<?xml version="1.0" encoding="UTF-8"?>
<svg id="_лой_1" data-name="Слой 1" xmlns="http://www.w3.org/2000/svg" width="1366" height="371.72" viewBox="0 0 1366 371.72">
  <defs>
    <style>
      .cls-1 {
        fill: #fff;
      }

      .cls-2 {
        fill: #dffe02;
      }
    </style>
  </defs>
  <path class="cls-2" d="M253.53,48.09c-82.49,0-149.8,66.73-150.23,149.25-.44,85.02,66.5,152.96,151.43,153.69,.41,0,.8,0,1.21,0,79.99,0,148.73-68.28,149.65-148.98,.97-84.97-65.93-153.27-150.81-153.96-.42,0-.83,0-1.25,0h0Zm.68,213.6c-.08,0-.15,0-.23,0-34.6-.12-61.49-26.95-61.61-61.47-.13-36.26,26.07-63.32,61.27-63.32h.13c35.48,.07,62.9,27.23,62.91,62.33,.01,35.19-27.28,62.45-62.47,62.45h0Z"/>
  <path class="cls-2" d="M513.2,48.11c-14.37,0-28.44,.15-42.49,.79-3.88,.18-9.24,8.63-10.73,14.12-22.61,83.16-44.69,166.46-66.88,249.74-3.1,11.65-6.11,23.33-9.99,38.19,15.4,0,29.75,.22,43.58,.22,12.66,0,24.88-.19,37.08-.9,5.19-.3,12.75-8.47,14.36-14.35,22.94-83.7,45.06-167.63,67.34-251.51,2.95-11.1,5.68-22.26,9.22-36.17-14.25,0-28.01-.14-41.5-.14h0Z"/>
  <path class="cls-2" d="M83.55,262.14c-23.91,0-43.8,19.66-44.06,43.7-.26,24.37,19.31,44.75,43.38,45.14,.24,0,.48,0,.72,0,23.9,0,43.36-19.51,43.55-43.84,.19-24.87-18.76-44.7-43.03-45.01-.19,0-.38,0-.56,0h0Z"/>
  <g>
    <path class="cls-1" d="M737.2,57.6h31.49l47.18,131.15h-34.1l-9.36-27.71h-70.82l-9.66,27.71h-33.8l47.38-131.15h31.69l-27.57,79.48h54.53l-26.96-79.48Z"/>
    <path class="cls-1" d="M855.06,75.94c-3.46,3.14-7.73,4.71-12.83,4.71s-9.39-1.56-12.88-4.66c-3.49-3.11-5.23-6.98-5.23-11.62s1.74-8.51,5.23-11.62c3.49-3.11,7.78-4.66,12.88-4.66s9.29,1.57,12.78,4.71c3.49,3.14,5.23,7,5.23,11.57s-1.73,8.43-5.18,11.57Zm-28.42,112.81V95.28h31.69v93.47h-31.69Z"/>
    <path class="cls-1" d="M949.37,83.66c-31.05,0-46.58,13.63-46.58,40.88,0,25.55,15.46,38.32,46.38,38.32,6.24,0,12.39-1.02,18.46-3.06,6.07-2.04,11.13-5,15.19-8.87,4.06-3.87,6.09-8.12,6.09-12.76h-42.25v-24.33h71.13v73.07h-28.87v-48.75c0,2.99-.15,5.91-.45,8.78-.3,2.87-.87,6.04-1.71,9.51s-1.93,6.68-3.27,9.6c-1.34,2.93-3.14,5.82-5.38,8.69-2.25,2.87-4.85,5.3-7.8,7.32-2.95,2.01-6.57,3.63-10.87,4.85-4.29,1.22-9.02,1.83-14.18,1.83-23.61,0-41.99-5.65-55.13-16.96-13.15-11.31-19.72-27.39-19.72-48.24,0-9.02,1.29-17.18,3.87-24.46,2.58-7.29,6.22-13.49,10.92-18.61,4.69-5.12,10.38-9.4,17.05-12.85,6.67-3.44,14-5.97,21.98-7.59,7.98-1.61,16.63-2.42,25.95-2.42,6.77,0,13.23,.53,19.37,1.6,6.14,1.07,12,2.76,17.61,5.08,5.6,2.32,10.51,5.21,14.74,8.69,4.22,3.48,7.75,7.77,10.56,12.89,2.82,5.12,4.59,10.82,5.33,17.1h-32.19c-1.01-3.66-2.73-6.78-5.18-9.37-2.45-2.59-5.38-4.59-8.8-5.99-3.42-1.4-6.96-2.41-10.61-3.02-3.66-.61-7.53-.91-11.62-.91Z"/>
    <path class="cls-1" d="M1083.78,191.03c-17.24,0-30.82-4.19-40.74-12.58-9.93-8.38-14.89-20.26-14.89-35.62s4.73-28.2,14.18-36.31c9.46-8.11,23-12.16,40.64-12.16s31.7,4.16,41.6,12.48c9.89,8.32,14.84,20.38,14.84,36.17v7.13l-82.8,.18c0,3.84,1.36,7.15,4.08,9.92,2.72,2.78,6.12,4.79,10.21,6.04,4.09,1.25,8.52,1.87,13.28,1.87,6.84,0,12.44-.93,16.8-2.79,4.36-1.86,6.94-4.37,7.75-7.55h29.07c-4.63,22.13-22.63,33.2-54.02,33.2Zm-27.16-57.71l52.72,.37c0-3.41-1.43-6.42-4.28-9.01-2.85-2.59-6.22-4.48-10.11-5.67-3.89-1.19-7.81-1.78-11.77-1.78-6.91,0-13.06,1.4-18.46,4.21-5.4,2.8-8.1,6.77-8.1,11.89Z"/>
    <path class="cls-1" d="M1181.46,138.54v50.21h-31.79V95.28h31.79v39.69c0-6.46,1.01-12.27,3.02-17.42,2.01-5.15,4.49-9.25,7.44-12.3,2.95-3.05,6.32-5.59,10.11-7.64,3.79-2.04,7.28-3.44,10.46-4.21,3.19-.76,6.15-1.14,8.9-1.14,2.35,0,4.66,.11,6.94,.32,2.28,.21,4.96,.69,8.05,1.42,3.08,.73,5.95,1.68,8.6,2.84,2.65,1.16,5.32,2.82,8,4.98,2.68,2.17,4.96,4.65,6.84,7.45,1.88,2.8,3.42,6.34,4.63,10.61,1.21,4.27,1.81,8.99,1.81,14.18v54.69h-31.69v-50.21c0-5.91-2.58-10.76-7.75-14.54-5.16-3.78-10.9-5.67-17.2-5.67-6.84,0-13.25,2.03-19.22,6.08-5.97,4.06-8.95,8.77-8.95,14.13Z"/>
  </g>
  <g>
    <path class="cls-1" d="M682.64,260.06h21.78v22.92h-6.09v-7.35h-.19c-1.68,3.1-3.89,5.34-6.66,6.72-2.43,1.25-6.09,1.88-10.99,1.88-3.68,0-7.04-.41-10.08-1.22-3.04-.82-5.7-2.46-8.01-4.93-3.85-4.1-5.78-9.77-5.78-17.01,0-7.62,2.28-13.5,6.84-17.64,4.31-3.89,10.19-5.84,17.64-5.84,6.66,0,11.8,1.13,15.45,3.39,4.27,2.6,6.61,6.4,7.03,11.43h-8.23c-.38-2.97-1.82-5.25-4.33-6.84-2.3-1.38-5.44-2.07-9.42-2.07-5.27,0-9.31,1.4-12.12,4.21-3.06,3.06-4.58,7.47-4.58,13.25s1.48,10.13,4.46,13.18c1.63,1.72,3.43,2.85,5.4,3.39s4.21,.82,6.72,.82c4.85,0,8.52-1.19,10.99-3.58,.75-.59,1.59-1.71,2.51-3.39s1.44-3.68,1.57-6.03h-13.94v-5.27Z"/>
    <path class="cls-1" d="M740.22,273.25h7.53c-.25,2.39-1.06,4.42-2.42,6.09s-3.09,2.89-5.18,3.64c-2.18,.8-5.59,1.19-10.23,1.19-3.18,0-6-.29-8.44-.88-2.45-.59-4.57-1.78-6.37-3.58-2.89-2.89-4.33-6.97-4.33-12.24s1.53-9.81,4.58-12.87c3.14-3.14,7.87-4.71,14.19-4.71s11.38,1.59,14.57,4.77c2.76,2.85,4.14,7.16,4.14,12.93v.94h-29.82v.38c0,3.22,.86,5.76,2.58,7.6,1.17,1.17,2.45,1.93,3.83,2.26s3.05,.5,5.02,.5c3.31,0,5.69-.42,7.16-1.25,1.88-1.09,2.95-2.68,3.2-4.77Zm-21.72-8.98h22.1c-.08-3.1-1.09-5.48-3.01-7.16-1.76-1.55-4.44-2.32-8.04-2.32-3.31,0-5.92,.84-7.85,2.51-1.97,1.8-3.03,4.12-3.2,6.97Z"/>
    <path class="cls-1" d="M755.47,251.09h7.03v4.33c1.21-1.71,2.72-3.03,4.52-3.96,1.97-1.05,4.5-1.57,7.6-1.57,4.6,0,8.04,1.07,10.3,3.2,2.05,1.93,3.08,4.9,3.08,8.92v20.97h-7.28v-18.58c0-3.64-.63-6.09-1.88-7.35-1.42-1.42-3.43-2.13-6.03-2.13-2.89,0-5.21,.88-6.97,2.64-2.05,2.05-3.08,5.32-3.08,9.79v15.63h-7.28v-31.89Z"/>
    <path class="cls-1" d="M824.66,273.25h7.53c-.25,2.39-1.06,4.42-2.42,6.09s-3.09,2.89-5.18,3.64c-2.18,.8-5.59,1.19-10.23,1.19-3.18,0-6-.29-8.44-.88-2.45-.59-4.57-1.78-6.37-3.58-2.89-2.89-4.33-6.97-4.33-12.24s1.53-9.81,4.58-12.87c3.14-3.14,7.87-4.71,14.19-4.71s11.38,1.59,14.57,4.77c2.76,2.85,4.14,7.16,4.14,12.93v.94h-29.82v.38c0,3.22,.86,5.76,2.58,7.6,1.17,1.17,2.45,1.93,3.83,2.26s3.05,.5,5.02,.5c3.31,0,5.69-.42,7.16-1.25,1.88-1.09,2.95-2.68,3.2-4.77Zm-21.72-8.98h22.1c-.08-3.1-1.09-5.48-3.01-7.16-1.76-1.55-4.44-2.32-8.04-2.32-3.31,0-5.92,.84-7.85,2.51-1.97,1.8-3.03,4.12-3.2,6.97Z"/>
    <path class="cls-1" d="M861.32,250.4v5.53h-.56c-4.77,0-8.18,1.03-10.23,3.08-2.22,2.18-3.33,5.84-3.33,10.99v13h-7.28v-31.89h7.09v5.84h.13c1.26-2.26,2.85-3.91,4.77-4.96,1.97-1.05,4.71-1.57,8.23-1.57h1.19Z"/>
    <path class="cls-1" d="M871.62,260.63h-7.28c-.04-2.8,.88-5.15,2.76-7.03,2.51-2.51,7.01-3.77,13.5-3.77s10.65,1.3,13.25,3.89c.29,.29,.55,.61,.79,.94,.23,.34,.43,.68,.6,1.04,.17,.36,.31,.67,.44,.94,.13,.27,.23,.62,.31,1.04s.15,.73,.19,.94c.04,.21,.07,.54,.09,1.01,.02,.46,.03,.75,.03,.88v14.06c0,1.63,.21,2.66,.63,3.08,.33,.46,.88,.69,1.63,.69,.5,0,.88-.06,1.13-.19v4.71c-1.22,.25-2.43,.38-3.64,.38-2.09,0-3.6-.35-4.52-1.07-1.09-.79-1.74-2.01-1.95-3.64-1.51,2.01-3.27,3.39-5.28,4.14-1.76,.71-4.39,1.07-7.91,1.07-4.14,0-7.2-.69-9.17-2.07-2.51-1.72-3.77-4.21-3.77-7.47,0-2.43,.77-4.41,2.32-5.96,1.34-1.42,3.35-2.43,6.03-3.01,.92-.21,3.22-.48,6.91-.82l3.58-.31c3.05-.25,4.98-.75,5.78-1.51,.67-.59,1.01-1.4,1.01-2.45,0-1.71-.86-3.08-2.57-4.08-1.55-.8-3.52-1.19-5.9-1.19-2.85,0-5,.44-6.47,1.32-1.67,.96-2.51,2.45-2.51,4.46Zm17.33,7.03v-.56c-.75,.67-1.55,1.1-2.39,1.29-.84,.19-2.24,.37-4.21,.53l-3.45,.25c-2.72,.17-4.62,.57-5.71,1.19-1.38,.96-2.07,2.18-2.07,3.64s.59,2.7,1.76,3.58c1.01,.84,2.66,1.26,4.96,1.26,3.14,0,5.52-.59,7.16-1.76,2.64-1.8,3.96-4.94,3.96-9.42Z"/>
    <path class="cls-1" d="M902.51,255.98v-4.9h6.91v-9.48h7.28v9.48h7.53v4.9h-7.53v18.02c0,1.76,.29,2.97,.88,3.64,.63,.67,1.67,1.01,3.14,1.01,1.3,0,2.51-.21,3.64-.63v4.9c-1.84,.67-3.79,1-5.84,1-3.43,0-5.82-.67-7.16-2.01-1.3-1.17-1.95-3.33-1.95-6.47v-19.46h-6.91Z"/>
    <path class="cls-1" d="M930.01,244.87v-6.09h7.53v6.09h-7.53Zm.13,6.21h7.28v31.89h-7.28v-31.89Z"/>
    <path class="cls-1" d="M946.46,251.09h7.03v4.33c1.21-1.71,2.72-3.03,4.52-3.96,1.97-1.05,4.5-1.57,7.6-1.57,4.6,0,8.04,1.07,10.3,3.2,2.05,1.93,3.08,4.9,3.08,8.92v20.97h-7.28v-18.58c0-3.64-.63-6.09-1.88-7.35-1.42-1.42-3.43-2.13-6.03-2.13-2.89,0-5.21,.88-6.97,2.64-2.05,2.05-3.08,5.32-3.08,9.79v15.63h-7.28v-31.89Z"/>
    <path class="cls-1" d="M988.71,285.87h7.72c.29,1.72,1.11,2.91,2.45,3.58,1.13,.54,3.08,.82,5.84,.82,3.52,0,6.05-.65,7.6-1.95,1.71-1.47,2.57-4.04,2.57-7.72v-2.76c-1.05,1.63-2.53,2.89-4.46,3.77-1.76,.84-4.27,1.26-7.53,1.26-1.59,0-2.94-.06-4.05-.19-1.11-.12-2.41-.48-3.89-1.07-1.49-.59-2.81-1.42-3.99-2.51-3.01-2.76-4.52-6.76-4.52-11.99s1.51-9.73,4.52-12.75c2.93-2.93,7.05-4.39,12.37-4.39,3.01,0,5.46,.46,7.35,1.38,2.01,.92,3.45,2.28,4.33,4.08h.19v-4.33h6.97v28.82c0,5.23-1.21,9.06-3.64,11.49-1.17,1.17-2.67,2.05-4.49,2.64s-3.37,.92-4.65,1.01c-1.28,.08-3.02,.12-5.24,.12-1.84,0-3.35-.04-4.52-.12-1.17-.08-2.51-.35-4.02-.79-1.51-.44-2.76-1.08-3.77-1.91-1.92-1.63-2.97-3.79-3.14-6.47Zm15.82-7.91c3.31,0,5.84-.88,7.6-2.64,2.05-2.05,3.08-5.02,3.08-8.92,0-3.6-.94-6.47-2.83-8.6-1.76-1.97-4.25-2.95-7.47-2.95s-5.78,.96-7.66,2.89c-2.09,2.18-3.14,5.11-3.14,8.79s.94,6.7,2.82,8.66c1.76,1.84,4.29,2.76,7.6,2.76Z"/>
    <path class="cls-1" d="M1080.69,239.03v43.95h-7.03v-4.39h-.19c-1.05,1.76-2.49,3.12-4.33,4.08-1.88,.96-4.65,1.44-8.29,1.44-1.59,0-2.91-.05-3.96-.16s-2.41-.48-4.08-1.13c-1.67-.65-3.14-1.6-4.4-2.86-1.47-1.46-2.56-3.4-3.3-5.81-.73-2.41-1.1-4.87-1.1-7.38,0-5.73,1.59-10.07,4.77-13,2.85-2.55,6.82-3.83,11.93-3.83,3.18,0,5.76,.46,7.72,1.38,2.18,.92,3.83,2.3,4.96,4.14v-16.45h7.28Zm-18.02,15.82c-3.35,0-5.99,.96-7.91,2.89-2.05,2.05-3.08,5.17-3.08,9.35s1.03,7.24,3.08,9.29c1.84,1.88,4.48,2.83,7.91,2.83s5.94-.98,7.91-2.95c2.05-2.13,3.08-5.19,3.08-9.17s-1.07-7.22-3.2-9.35c-1.92-1.92-4.52-2.89-7.78-2.89Z"/>
    <path class="cls-1" d="M1117.35,273.25h7.53c-.25,2.39-1.06,4.42-2.42,6.09s-3.09,2.89-5.18,3.64c-2.18,.8-5.59,1.19-10.23,1.19-3.18,0-6-.29-8.44-.88-2.45-.59-4.57-1.78-6.37-3.58-2.89-2.89-4.33-6.97-4.33-12.24s1.53-9.81,4.58-12.87c3.14-3.14,7.87-4.71,14.19-4.71s11.38,1.59,14.57,4.77c2.76,2.85,4.14,7.16,4.14,12.93v.94h-29.82v.38c0,3.22,.86,5.76,2.58,7.6,1.17,1.17,2.45,1.93,3.83,2.26s3.05,.5,5.02,.5c3.31,0,5.69-.42,7.16-1.25,1.88-1.09,2.95-2.68,3.2-4.77Zm-21.72-8.98h22.1c-.08-3.1-1.09-5.48-3.01-7.16-1.76-1.55-4.44-2.32-8.04-2.32-3.31,0-5.92,.84-7.85,2.51-1.97,1.8-3.03,4.12-3.2,6.97Z"/>
    <path class="cls-1" d="M1130.35,273.44h7.34v.19c0,1.88,.84,3.37,2.51,4.46,1.42,.84,3.54,1.26,6.34,1.26s4.88-.33,6.22-1.01c1.55-.75,2.32-2.05,2.32-3.89,0-1.59-.82-2.78-2.45-3.58-.92-.42-2.87-.9-5.84-1.44l-4.02-.69c-4.31-.75-7.14-1.53-8.48-2.32-2.3-1.46-3.45-3.58-3.45-6.34,0-3.56,1.55-6.24,4.65-8.04,2.47-1.46,6.07-2.2,10.8-2.2s8.35,.65,10.74,1.95c3.01,1.63,4.52,4.21,4.52,7.72h-7.41c0-1.76-.73-3.03-2.2-3.83-1.38-.71-3.31-1.07-5.78-1.07-2.18,0-4.02,.4-5.52,1.19-1.55,.88-2.32,2.11-2.32,3.7,0,1.26,.63,2.22,1.88,2.89,1.05,.54,3.66,1.15,7.85,1.82l4.33,.75c3.31,.46,5.86,1.34,7.66,2.64,1.92,1.51,2.89,3.6,2.89,6.28,0,2.97-.9,5.36-2.7,7.16-1.38,1.34-3.12,2.21-5.21,2.61-2.09,.4-4.81,.6-8.16,.6-6.15,0-10.3-.73-12.43-2.2-2.72-1.8-4.08-4.6-4.08-8.41v-.19Z"/>
    <path class="cls-1" d="M1169.59,244.87v-6.09h7.53v6.09h-7.53Zm.13,6.21h7.28v31.89h-7.28v-31.89Z"/>
    <path class="cls-1" d="M1186.73,285.87h7.72c.29,1.72,1.11,2.91,2.45,3.58,1.13,.54,3.08,.82,5.84,.82,3.52,0,6.05-.65,7.6-1.95,1.71-1.47,2.57-4.04,2.57-7.72v-2.76c-1.05,1.63-2.53,2.89-4.46,3.77-1.76,.84-4.27,1.26-7.53,1.26-1.59,0-2.94-.06-4.05-.19-1.11-.12-2.41-.48-3.89-1.07-1.49-.59-2.81-1.42-3.99-2.51-3.01-2.76-4.52-6.76-4.52-11.99s1.51-9.73,4.52-12.75c2.93-2.93,7.05-4.39,12.37-4.39,3.01,0,5.46,.46,7.35,1.38,2.01,.92,3.45,2.28,4.33,4.08h.19v-4.33h6.97v28.82c0,5.23-1.21,9.06-3.64,11.49-1.17,1.17-2.67,2.05-4.49,2.64s-3.37,.92-4.65,1.01c-1.28,.08-3.02,.12-5.24,.12-1.84,0-3.35-.04-4.52-.12-1.17-.08-2.51-.35-4.02-.79-1.51-.44-2.76-1.08-3.77-1.91-1.92-1.63-2.97-3.79-3.14-6.47Zm15.82-7.91c3.31,0,5.84-.88,7.6-2.64,2.05-2.05,3.08-5.02,3.08-8.92,0-3.6-.94-6.47-2.83-8.6-1.76-1.97-4.25-2.95-7.47-2.95s-5.78,.96-7.66,2.89c-2.09,2.18-3.14,5.11-3.14,8.79s.94,6.7,2.82,8.66c1.76,1.84,4.29,2.76,7.6,2.76Z"/>
    <path class="cls-1" d="M1229.23,251.09h7.03v4.33c1.21-1.71,2.72-3.03,4.52-3.96,1.97-1.05,4.5-1.57,7.6-1.57,4.6,0,8.04,1.07,10.3,3.2,2.05,1.93,3.08,4.9,3.08,8.92v20.97h-7.28v-18.58c0-3.64-.63-6.09-1.88-7.35-1.42-1.42-3.43-2.13-6.03-2.13-2.89,0-5.21,.88-6.97,2.64-2.05,2.05-3.08,5.32-3.08,9.79v15.63h-7.28v-31.89Z"/>
    <path class="cls-1" d="M656.09,340.43h7.35v.19c0,1.88,.84,3.37,2.51,4.46,1.42,.84,3.54,1.26,6.34,1.26s4.88-.33,6.22-1.01c1.55-.75,2.32-2.05,2.32-3.89,0-1.59-.82-2.78-2.45-3.58-.92-.42-2.87-.9-5.84-1.44l-4.02-.69c-4.31-.75-7.14-1.53-8.48-2.32-2.3-1.46-3.45-3.58-3.45-6.34,0-3.56,1.55-6.24,4.65-8.04,2.47-1.46,6.07-2.2,10.8-2.2s8.35,.65,10.74,1.95c3.01,1.63,4.52,4.21,4.52,7.72h-7.41c0-1.76-.73-3.03-2.2-3.83-1.38-.71-3.31-1.07-5.78-1.07-2.18,0-4.02,.4-5.52,1.19-1.55,.88-2.32,2.11-2.32,3.7,0,1.26,.63,2.22,1.88,2.89,1.05,.54,3.66,1.15,7.85,1.82l4.33,.75c3.31,.46,5.86,1.34,7.66,2.64,1.92,1.51,2.89,3.6,2.89,6.28,0,2.97-.9,5.36-2.7,7.16-1.38,1.34-3.12,2.21-5.21,2.61-2.09,.4-4.81,.6-8.16,.6-6.15,0-10.3-.73-12.43-2.2-2.72-1.8-4.08-4.6-4.08-8.41v-.19Z"/>
    <path class="cls-1" d="M731.55,334.03c0,5.02-1.55,9.08-4.64,12.18-3.31,3.31-8.21,4.96-14.69,4.96s-11.39-1.65-14.69-4.96c-3.1-3.1-4.65-7.16-4.65-12.18s1.55-9.08,4.65-12.18c3.31-3.31,8.2-4.96,14.69-4.96s11.38,1.65,14.69,4.96c3.1,3.1,4.64,7.16,4.64,12.18Zm-19.34-12.24c-3.47,0-6.19,.94-8.16,2.82-2.34,2.22-3.52,5.36-3.52,9.42s1.17,7.2,3.52,9.42c1.97,1.88,4.69,2.82,8.16,2.82s6.19-.94,8.16-2.82c2.34-2.22,3.52-5.36,3.52-9.42s-1.17-7.2-3.52-9.42c-1.97-1.88-4.69-2.82-8.16-2.82Z"/>
    <path class="cls-1" d="M738.77,306.02h7.28v43.95h-7.28v-43.95Z"/>
    <path class="cls-1" d="M787.68,349.97h-6.91v-4.33h-.19c-1.21,1.93-2.85,3.35-4.9,4.27-1.67,.79-4.19,1.19-7.53,1.19-4.52,0-7.78-1-9.79-3.01-2.18-2.05-3.26-5.34-3.26-9.86v-20.15h7.28v18.9c0,3.39,.73,5.82,2.2,7.28,1.21,1.22,3.16,1.82,5.84,1.82,3.26,0,5.73-.94,7.41-2.82,1.72-1.97,2.57-4.88,2.57-8.73v-16.45h7.28v31.89Z"/>
    <path class="cls-1" d="M793.02,322.98v-4.9h6.91v-9.48h7.28v9.48h7.53v4.9h-7.53v18.02c0,1.76,.29,2.97,.88,3.64,.63,.67,1.67,1.01,3.14,1.01,1.3,0,2.51-.21,3.64-.63v4.9c-1.84,.67-3.79,1-5.84,1-3.43,0-5.82-.67-7.16-2.01-1.3-1.17-1.95-3.33-1.95-6.47v-19.46h-6.91Z"/>
    <path class="cls-1" d="M820.51,311.86v-6.09h7.53v6.09h-7.53Zm.13,6.21h7.28v31.89h-7.28v-31.89Z"/>
    <path class="cls-1" d="M873.82,334.03c0,5.02-1.55,9.08-4.64,12.18-3.31,3.31-8.21,4.96-14.69,4.96s-11.39-1.65-14.69-4.96c-3.1-3.1-4.65-7.16-4.65-12.18s1.55-9.08,4.65-12.18c3.31-3.31,8.2-4.96,14.69-4.96s11.38,1.65,14.69,4.96c3.1,3.1,4.64,7.16,4.64,12.18Zm-19.34-12.24c-3.47,0-6.19,.94-8.16,2.82-2.34,2.22-3.52,5.36-3.52,9.42s1.17,7.2,3.52,9.42c1.97,1.88,4.69,2.82,8.16,2.82s6.19-.94,8.16-2.82c2.34-2.22,3.52-5.36,3.52-9.42s-1.17-7.2-3.52-9.42c-1.97-1.88-4.69-2.82-8.16-2.82Z"/>
    <path class="cls-1" d="M881.04,318.08h7.03v4.33c1.21-1.71,2.72-3.03,4.52-3.96,1.97-1.05,4.5-1.57,7.6-1.57,4.6,0,8.04,1.07,10.3,3.2,2.05,1.93,3.08,4.9,3.08,8.92v20.97h-7.28v-18.58c0-3.64-.63-6.09-1.88-7.35-1.42-1.42-3.43-2.13-6.03-2.13-2.89,0-5.21,.88-6.97,2.64-2.05,2.05-3.08,5.32-3.08,9.79v15.63h-7.28v-31.89Z"/>
    <path class="cls-1" d="M920.34,340.43h7.34v.19c0,1.88,.84,3.37,2.51,4.46,1.42,.84,3.54,1.26,6.34,1.26s4.88-.33,6.22-1.01c1.55-.75,2.32-2.05,2.32-3.89,0-1.59-.82-2.78-2.45-3.58-.92-.42-2.87-.9-5.84-1.44l-4.02-.69c-4.31-.75-7.14-1.53-8.48-2.32-2.3-1.46-3.45-3.58-3.45-6.34,0-3.56,1.55-6.24,4.65-8.04,2.47-1.46,6.07-2.2,10.8-2.2s8.35,.65,10.74,1.95c3.01,1.63,4.52,4.21,4.52,7.72h-7.41c0-1.76-.73-3.03-2.2-3.83-1.38-.71-3.31-1.07-5.78-1.07-2.18,0-4.02,.4-5.52,1.19-1.55,.88-2.32,2.11-2.32,3.7,0,1.26,.63,2.22,1.88,2.89,1.05,.54,3.66,1.15,7.85,1.82l4.33,.75c3.31,.46,5.86,1.34,7.66,2.64,1.92,1.51,2.89,3.6,2.89,6.28,0,2.97-.9,5.36-2.7,7.16-1.38,1.34-3.12,2.21-5.21,2.61-2.09,.4-4.81,.6-8.16,.6-6.15,0-10.3-.73-12.43-2.2-2.72-1.8-4.08-4.6-4.08-8.41v-.19Z"/>
  </g>
  <g>
    <path class="cls-1" d="M1303.02,20.49c12.94,.03,23.51,10.66,23.49,23.62-.02,12.97-10.68,23.56-23.67,23.52-12.93-.04-23.49-10.69-23.46-23.66,.03-12.93,10.68-23.51,23.63-23.48Zm-.06,4.73c-10.36,0-18.83,8.44-18.85,18.79-.02,10.39,8.44,18.89,18.82,18.89,10.36,0,18.83-8.44,18.85-18.79,.02-10.4-8.44-18.89-18.82-18.89Z"/>
    <path class="cls-1" d="M1311.07,52.36c-2.25,2.83-7.2,4.37-11.66,2.95-5-1.59-8.23-5.99-8.25-11.21-.01-5.14,3.23-9.68,7.96-11.22,4.77-1.55,9.71,.09,11.94,2.87l-3.21,3.21c-3.02-3.02-7.71-2.27-10,.11-2.51,2.61-2.64,6.92-.26,9.67,2.57,2.98,6.41,3.1,10.26,.38l3.22,3.23Z"/>
  </g>
</svg>