<?xml version="1.0" encoding="utf-8"?>
<!-- Generator: Adobe Illustrator 23.0.5, SVG Export Plug-In . SVG Version: 6.00 Build 0)  -->
<svg version="1.1" id="Слой_1" xmlns="http://www.w3.org/2000/svg" xmlns:xlink="http://www.w3.org/1999/xlink" x="0px" y="0px"
	 viewBox="0 0 200 100" style="enable-background:new 0 0 200 100;" xml:space="preserve">
<style type="text/css">
	.st0{fill:#FFFFFF;}
</style>
<g>
	<path class="st0" d="M43.8,24.5c-1.5,1.5-2.9,2.9-4.3,4.4c-0.4,0.4-0.7,0.3-1-0.1c-2.5-2.2-5.4-3.6-8.7-4.2
		c-7.7-1.3-15.1,2.3-18.9,9c-3.8,6.7-2.8,15.6,2.4,21.3c3.1,3.4,7,5.4,11.7,5.8c4.3,0.4,8.3-0.4,11.9-2.9c3.6-2.4,5.4-5.9,6.1-10
		c0.1-0.5-0.1-0.6-0.5-0.6c-1.2,0-2.5,0-3.7,0c-3.8,0-7.5,0-11.3,0c-0.6,0-0.9-0.2-0.9-0.8c0-1.8,0-3.6,0-5.3c0-0.6,0.2-0.8,0.8-0.8
		c7.2,0,14.4,0,21.7,0c0.6,0,0.8,0.2,0.9,0.8c0.7,5.7,0,11.2-3,16.2c-2.5,4.1-6.1,7.2-10.7,8.9c-7,2.6-14.1,2.4-20.8-0.9
		c-8.1-4-12.9-10.5-14.2-19.5c-1-7.2,1.1-13.7,5.8-19.2c4.1-4.9,9.5-7.9,15.8-8.8c7.7-1.1,14.6,0.9,20.4,6.1
		c0.1,0.1,0.2,0.2,0.3,0.3C43.6,24.3,43.7,24.4,43.8,24.5z"/>
	<path class="st0" d="M147.4,39.1c0-0.7,0-1.3,0-1.9c0-0.6,0.2-0.8,0.8-0.8c1.7,0,3.4,0,5,0c1,0,1,0,1,1c0,5.4,0,10.7,0,16.1
		c0,4.2,0,8.4,0,12.6c0,2.9-0.5,5.8-1.8,8.5c-1.7,3.5-4.4,5.8-8,6.9c-4.6,1.4-9.1,1.3-13.4-1.2c-2.9-1.6-5-4-6.4-7
		c-0.2-0.4-0.1-0.6,0.3-0.8c1.7-0.7,3.3-1.4,5-2.1c0.5-0.2,0.7-0.1,1,0.4c1.4,2.6,3.4,4.5,6.4,5c3.2,0.5,6.1-0.2,8.2-2.9
		c1.1-1.5,1.6-3.2,1.7-5c0.1-1.2,0-2.4,0-3.7c-0.3,0.2-0.4,0.3-0.6,0.4c-2.7,2.7-6.1,3.6-9.8,3.1c-8-1.1-13.8-7.9-13.8-15.9
		c0-7.1,4.2-13.2,10.9-15.6c4-1.4,7.8-1.1,11.4,1.3C146.1,37.9,146.7,38.5,147.4,39.1z M130.3,51.6c0,3.4,1.2,6.3,4.1,8.3
		c3.8,2.7,9.1,1.8,11.7-2c2.5-3.7,2.6-7.7,0.5-11.6c-2-3.9-6.4-5.4-10.5-3.8C132.6,43.9,130.4,47.6,130.3,51.6z"/>
	<path class="st0" d="M85,51.7C85.1,60.8,77.9,68,68.6,68c-9.1,0-16.3-7.2-16.3-16.3c0-9.3,7.1-16.3,16.4-16.3
		C78,35.4,85,42.4,85,51.7z M77.7,51.8c0.1,0,0.1,0,0.2,0c-0.3-1.3-0.4-2.6-0.9-3.9c-2.1-6-9.5-7.9-14.2-3.7
		c-3.6,3.1-4.3,9.2-1.5,13.3c3.3,4.9,9.9,5.3,13.9,1C76.9,56.6,77.7,54.3,77.7,51.8z"/>
	<path class="st0" d="M185.7,35.4c4.7,0,8.8,3,11.6,8c0.6,1.1,1,2.3,1.6,3.4c0.3,0.6,0.1,0.9-0.5,1.1c-4.1,1.7-8.1,3.3-12.1,5
		c-2.6,1.1-5.3,2.2-7.9,3.3c-0.8,0.3-0.8,0.4-0.3,1.1c3.1,5.2,10.3,5,13.8,1.2c0.4-0.4,0.7-0.8,1-1.2c0.3-0.4,0.6-0.4,1-0.2
		c1.5,1,3,2,4.5,3c0.4,0.3,0.5,0.6,0.2,1c-2.5,3.3-5.8,5.6-10,6.4c-7.9,1.5-15.6-2.3-18.2-10.1c-2.1-6.3-1.2-12.2,3.1-17.3
		C175.9,37.2,180,35.4,185.7,35.4z M185.2,41.9c-4.8,0-8.8,3.8-8.9,8.1c0,1,0.1,1,0.9,0.6c4.2-1.7,8.4-3.5,12.5-5.2
		c0.6-0.2,0.7-0.5,0.3-1C188.8,42.6,187,41.9,185.2,41.9z"/>
	<path class="st0" d="M120.3,51.6c0.3,9-7.1,16.2-16,16.3c-9.2,0.1-16.5-7-16.6-15.9c0-9.5,6.9-16.5,16.3-16.5
		C113,35.4,120.5,42.5,120.3,51.6z M113.2,51.7c-0.1-3.2-1.2-5.9-3.7-8c-3.5-2.8-8.9-2.4-11.8,1c-3,3.3-3.5,8-1.5,11.9
		c2.2,4.3,7.5,6.1,11.8,4C111.5,58.8,113,55.6,113.2,51.7z"/>
	<path class="st0" d="M166.2,43c0,7.6,0,15.2,0,22.8c0,1.1,0,1.1-1.1,1.1c-1.7,0-3.4,0-5,0c-1,0-1,0-1-1c0-13.7,0-27.3,0-41
		c0-1.7,0-3.3,0-5c0-0.6,0.2-0.8,0.8-0.8c1.8,0,3.7,0,5.5,0c0.7,0,0.9,0.3,0.9,1C166.2,27.8,166.2,35.4,166.2,43z"/>
</g>
</svg>
