<?xml version="1.0" encoding="utf-8"?>
<!-- Generator: Adobe Illustrator 23.0.5, SVG Export Plug-In . SVG Version: 6.00 Build 0)  -->
<svg version="1.1" id="Слой_1" xmlns="http://www.w3.org/2000/svg" xmlns:xlink="http://www.w3.org/1999/xlink" x="0px" y="0px"
	 viewBox="0 0 100 100" style="enable-background:new 0 0 100 100;" xml:space="preserve">
<style type="text/css">
	.st0{fill:#FFFFFF;}
</style>
<path class="st0" d="M50,0.7C22.6,0.7,0.7,22.8,0.7,50.3c0,26.9,22.2,49,49.3,49c27.3,0,49.3-22.1,49.3-49.5
	C99.3,22.7,77.2,0.7,50,0.7z M66.7,81.2c-2.8,0-5.5-0.1-8.3,0c-1.2,0-1.6-0.3-1.6-1.5c0-8.6,0-17.3,0-25.9c0-8.2,0-16.4,0-24.6
	c0-0.5,0-0.9,0-1.5c-4.5-0.1-9-0.4-13,1.8c-3,1.7-4.7,4.3-5,7.7c-0.5,5.7,1.3,10.4,5.9,13.9c2.6,2,5.4,3.8,8.1,5.7
	c0.3,0.2,0.7,0.5,1.2,0.8c-1.7,2.5-3.3,4.9-4.9,7.4c-3.4,5.1-6.8,10.2-10.2,15.3c-0.5,0.7-1,1.1-1.9,1c-3.4-0.1-6.9,0-10.7,0
	c4.8-7.2,9.4-14.1,14-20.8c-2.6-2.4-5.2-4.5-7.3-7c-5.9-7.1-6.7-15.1-3.1-23.4c2.6-5.9,7.8-8.8,13.9-10.1c2.6-0.6,5.4-0.8,8.1-0.9
	c4.8-0.1,9.5,0,14.3,0c1.7,0,1.7,0,1.7,1.7c0,18.3,0,36.7,0,55c0,1.4,0,2.9,0,4.3C68,80.9,67.6,81.2,66.7,81.2z"/>
</svg>
