<?xml version="1.0" encoding="utf-8"?>
<!-- Generator: Adobe Illustrator 23.0.5, SVG Export Plug-In . SVG Version: 6.00 Build 0)  -->
<svg version="1.1" id="Слой_1" xmlns="http://www.w3.org/2000/svg" xmlns:xlink="http://www.w3.org/1999/xlink" x="0px" y="0px"
	 viewBox="0 0 292 100" style="enable-background:new 0 0 292 100;" xml:space="preserve">
<style type="text/css">
	.st0{fill:#FFFFFF;}
</style>
<g>
	<path class="st0" d="M65.8,30.5C53.2,39.2,55,56.6,68,62.7c-0.5,1.3-0.9,2.6-1.5,3.9c-2.2,5-5.1,9.6-8.8,13.6
		c-3.7,4-7.8,4.9-12.7,2.6c-5.6-2.6-11-2.6-16.6,0c-5,2.3-8.6,1.6-12.3-2.5C6.7,70.1,1.8,58,2.6,43.9c0.4-7.2,3.2-13.5,9.4-17.7
		c5.2-3.6,10.9-4.8,16.7-2.1c4.9,2.3,9.3,2.1,14.2,0c8.4-3.5,17.3-1,22.4,5.5C65.4,29.9,65.6,30.1,65.8,30.5z"/>
	<path class="st0" d="M201.6,77.1c0,6.6,0,13.1,0,19.8c-3,0-5.7,0-8.7,0c0-18.4,0-36.8,0-55.3c2.2,0,4.6,0,7.2,0
		c0.2,1.8,0.4,3.7,0.6,5.8c0.4-0.3,0.7-0.5,0.8-0.7c7.2-8.9,20.4-8.1,25.8,2c4.6,8.5,4.3,17.4-0.7,25.7c-3.6,6.1-10.6,8.7-17.5,7.2
		C206.2,80.9,203.8,79.4,201.6,77.1z M201.6,61.7C201.6,61.7,201.6,61.7,201.6,61.7c0,1.3,0,2.6,0,3.9c0.2,4.7,3.3,8.6,7.4,9.3
		c5,0.9,9.1-1.2,11.1-6c1.9-4.5,2-9.2,0.6-13.8c-1.6-5.2-5.8-8-10.4-7.4c-4.8,0.7-8.4,4.8-8.6,10.2
		C201.5,59.1,201.6,60.4,201.6,61.7z"/>
	<path class="st0" d="M156.5,96.9c-3.1,0-5.8,0-8.8,0c0-18.5,0-36.9,0-55.4c2.3,0,4.7,0,7.3,0c0.2,1.9,0.4,3.8,0.6,5.7
		c0.3-0.2,0.5-0.2,0.6-0.3c8.3-10.1,22.4-8.1,27.3,4.2c2.9,7.5,2.6,15.1-1.2,22.2c-3.9,7.2-12.3,10.5-19.6,7.7c-2.1-0.8-4-2.4-6-3.7
		C156.5,83.6,156.5,90.1,156.5,96.9z M156.3,61.7c0.1,0,0.1,0,0.2,0c0,1.5-0.1,2.9,0,4.4c0.4,4.6,3.5,8.1,7.5,8.8
		c4.9,0.8,8.8-1.3,10.8-5.9c2-4.8,2.1-9.7,0.4-14.5c-1.6-4.7-5.3-7.2-9.7-6.9c-4.3,0.3-7.9,3.5-8.8,8.2
		C156.4,57.8,156.4,59.7,156.3,61.7z"/>
	<path class="st0" d="M95.2,81c1.8-5.6,3.4-10.7,5.1-15.9c3.9-12.3,7.9-24.6,11.7-36.9c0.5-1.7,1.3-2.3,3.1-2.2
		c2.2,0.2,4.4,0.1,6.6,0c1.4-0.1,2.1,0.4,2.5,1.7c4.3,13.5,8.6,26.9,12.9,40.4c1.3,4.2,2.7,8.4,4.1,12.9c-3,0-5.8,0.1-8.6-0.1
		c-0.4,0-0.9-0.9-1.1-1.4c-1.4-4.4-2.8-8.7-4.1-13.1c-0.4-1.2-1-1.6-2.2-1.6c-4.8,0.1-9.5,0.1-14.3,0c-1.5,0-2,0.5-2.4,1.8
		c-1.2,4.3-2.6,8.6-3.8,12.8c-0.3,1.1-0.8,1.6-2,1.5C100.3,80.9,97.9,81,95.2,81z M125.2,58c-2.5-8.2-4.9-16.1-7.3-24.1
		c-2.4,8.1-4.7,16-7.1,24.1C115.7,58,120.4,58,125.2,58z"/>
	<path class="st0" d="M286,73.3c0.4,1.8,0.9,3.4,1.1,5.1c0.1,0.4-0.5,1.3-0.9,1.4c-6.4,2.2-13,2.9-19.6,0.9
		c-4.3-1.4-7.8-4.1-9.6-8.3c-3.9-8.7-3.5-17.3,2.2-25.2c4.6-6.3,13.4-8.5,20.6-5.5c3.4,1.4,5.8,4,7.4,7.3c2,3.9,2.4,8.2,2.2,12.5
		c-0.1,1.5-0.7,1.9-2.2,1.9c-7.3-0.1-14.6,0-21.8,0c-0.7,0-1.4,0-2.1,0c-0.7,4.5,2.2,9.2,6.7,10.8c4.8,1.7,9.5,1,14.3-0.3
		C284.8,73.7,285.3,73.5,286,73.3z M263.2,56.9c6,0,11.9,0,17.8,0c0.9-5.1-2.7-9.9-7.5-10.3C268.1,46.1,263.3,50.8,263.2,56.9z"/>
	<path class="st0" d="M238.2,23.2c2.9,0,5.6,0,8.5,0c0,0.7,0.1,1.3,0.1,2c0,17.9,0,35.7,0,53.6c0,1.8-0.5,2.3-2.3,2.2
		c-2.1-0.1-4.2,0-6.4,0C238.2,61.6,238.2,42.4,238.2,23.2z"/>
	<path class="st0" d="M35.3,21.4c-2-7.5,7.2-18.3,15.7-18.3C52.9,10.8,44.5,22.6,35.3,21.4z"/>
</g>
</svg>
