<?xml version="1.0" encoding="utf-8"?>
<!-- Generator: Adobe Illustrator 23.0.5, SVG Export Plug-In . SVG Version: 6.00 Build 0)  -->
<svg version="1.1"
	 id="svg2" inkscape:version="0.48.2 r9819" sodipodi:docname="Likud_Logo.svg" xmlns:cc="http://creativecommons.org/ns#" xmlns:dc="http://purl.org/dc/elements/1.1/" xmlns:inkscape="http://www.inkscape.org/namespaces/inkscape" xmlns:rdf="http://www.w3.org/1999/02/22-rdf-syntax-ns#" xmlns:sodipodi="http://sodipodi.sourceforge.net/DTD/sodipodi-0.dtd" xmlns:svg="http://www.w3.org/2000/svg"
	 xmlns="http://www.w3.org/2000/svg" xmlns:xlink="http://www.w3.org/1999/xlink" x="0px" y="0px" viewBox="0 0 320.4 91.7"
	 style="enable-background:new 0 0 320.4 91.7;" xml:space="preserve">
<style type="text/css">
	.st0{fill:#FFFFFF;}
</style>
<sodipodi:namedview  bordercolor="#666666" borderopacity="1" fit-margin-bottom="0" fit-margin-left="0" fit-margin-right="0" fit-margin-top="0" gridtolerance="10" guidetolerance="10" id="namedview4" inkscape:bbox-nodes="true" inkscape:bbox-paths="true" inkscape:current-layer="g10" inkscape:cx="219.85112" inkscape:cy="10.892025" inkscape:guide-bbox="true" inkscape:pageopacity="0" inkscape:pageshadow="2" inkscape:snap-bbox="true" inkscape:snap-bbox-edge-midpoints="true" inkscape:snap-bbox-midpoints="true" inkscape:window-height="962" inkscape:window-maximized="1" inkscape:window-width="1280" inkscape:window-x="-8" inkscape:window-y="-8" inkscape:zoom="1.9893175" objecttolerance="10" pagecolor="#ffffff" showgrid="false" showguides="true">
	</sodipodi:namedview>
<g>
	<path class="st0" d="M54.1,11.8c-20.4,0-37,16.5-37.1,36.9c-0.1,21,16.4,37.8,37.4,38c0.1,0,0.2,0,0.3,0c19.8,0,36.8-16.9,37-36.8
		c0.2-21-16.3-37.9-37.3-38.1C54.3,11.8,54.2,11.8,54.1,11.8C54.1,11.8,54.1,11.8,54.1,11.8z M54.2,64.6
		C54.2,64.6,54.2,64.6,54.2,64.6c-8.6,0-15.3-6.7-15.3-15.2c0-9,6.4-15.7,15.1-15.7h0c8.8,0,15.5,6.7,15.5,15.4
		C69.7,57.9,62.9,64.6,54.2,64.6L54.2,64.6L54.2,64.6z"/>
	<path class="st0" d="M118.2,11.8c-3.6,0-7,0-10.5,0.2c-1,0-2.3,2.1-2.7,3.5C99.5,36,94,56.6,88.5,77.2c-0.8,2.9-1.5,5.8-2.5,9.4
		c3.8,0,7.4,0.1,10.8,0.1c3.1,0,6.1,0,9.2-0.2c1.3-0.1,3.2-2.1,3.5-3.5c5.7-20.7,11.1-41.4,16.6-62.2c0.7-2.7,1.4-5.5,2.3-8.9
		C125,11.8,121.6,11.8,118.2,11.8L118.2,11.8L118.2,11.8z"/>
	<path class="st0" d="M12,64.7c-5.9,0-10.8,4.9-10.9,10.8c-0.1,6,4.8,11.1,10.7,11.2c0.1,0,0.1,0,0.2,0c5.9,0,10.7-4.8,10.8-10.8
		c0-6.1-4.6-11-10.6-11.1C12.1,64.7,12.1,64.7,12,64.7L12,64.7L12,64.7z"/>
	<g>
		<path class="st0" d="M173.6,14.1h7.8L193,46.6h-8.4l-2.3-6.8h-17.5l-2.4,6.8h-8.4l11.7-32.4L173.6,14.1l-6.8,19.6h13.5L173.6,14.1
			L173.6,14.1z"/>
		<path class="st0" d="M202.7,18.7c-0.9,0.8-1.9,1.2-3.2,1.2s-2.3-0.4-3.2-1.2c-0.9-0.8-1.3-1.7-1.3-2.9s0.4-2.1,1.3-2.9
			c0.9-0.8,1.9-1.2,3.2-1.2s2.3,0.4,3.2,1.2s1.3,1.7,1.3,2.9C204,17,203.6,17.9,202.7,18.7z M195.7,46.6V23.5h7.8v23.1H195.7z"/>
		<path class="st0" d="M226,20.6c-7.7,0-11.5,3.4-11.5,10.1c0,6.3,3.8,9.5,11.5,9.5c1.5,0,3.1-0.3,4.6-0.8s2.8-1.2,3.8-2.2
			c1-1,1.5-2,1.5-3.2h-10.4v-6h17.6v18.1h-7.1v-12c0,0.7,0,1.5-0.1,2.2s-0.2,1.5-0.4,2.4c-0.2,0.9-0.5,1.7-0.8,2.4
			c-0.3,0.7-0.8,1.4-1.3,2.1c-0.6,0.7-1.2,1.3-1.9,1.8c-0.7,0.5-1.6,0.9-2.7,1.2c-1.1,0.3-2.2,0.5-3.5,0.5c-5.8,0-10.4-1.4-13.6-4.2
			c-3.3-2.8-4.9-6.8-4.9-11.9c0-2.2,0.3-4.2,1-6c0.6-1.8,1.5-3.3,2.7-4.6c1.2-1.3,2.6-2.3,4.2-3.2c1.6-0.9,3.5-1.5,5.4-1.9
			c2-0.4,4.1-0.6,6.4-0.6c1.7,0,3.3,0.1,4.8,0.4c1.5,0.3,3,0.7,4.4,1.3c1.4,0.6,2.6,1.3,3.6,2.1c1,0.9,1.9,1.9,2.6,3.2
			c0.7,1.3,1.1,2.7,1.3,4.2h-8c-0.2-0.9-0.7-1.7-1.3-2.3c-0.6-0.6-1.3-1.1-2.2-1.5c-0.8-0.3-1.7-0.6-2.6-0.7
			C228,20.7,227.1,20.6,226,20.6L226,20.6z"/>
		<path class="st0" d="M259.3,47.1c-4.3,0-7.6-1-10.1-3.1c-2.5-2.1-3.7-5-3.7-8.8s1.2-7,3.5-9c2.3-2,5.7-3,10-3s7.8,1,10.3,3.1
			c2.4,2.1,3.7,5,3.7,8.9V37l-20.5,0c0,0.9,0.3,1.8,1,2.5c0.7,0.7,1.5,1.2,2.5,1.5c1,0.3,2.1,0.5,3.3,0.5c1.7,0,3.1-0.2,4.2-0.7
			c1.1-0.5,1.7-1.1,1.9-1.9h7.2C271.5,44.4,267,47.1,259.3,47.1L259.3,47.1z M252.5,32.9l13,0.1c0-0.8-0.4-1.6-1.1-2.2
			c-0.7-0.6-1.5-1.1-2.5-1.4c-1-0.3-1.9-0.4-2.9-0.4c-1.7,0-3.2,0.3-4.6,1C253.2,30.6,252.5,31.6,252.5,32.9L252.5,32.9z"/>
		<path class="st0" d="M283.4,34.2v12.4h-7.9V23.5h7.9v9.8c0-1.6,0.2-3,0.7-4.3c0.5-1.3,1.1-2.3,1.8-3c0.7-0.8,1.6-1.4,2.5-1.9
			c0.9-0.5,1.8-0.9,2.6-1c0.8-0.2,1.5-0.3,2.2-0.3c0.6,0,1.2,0,1.7,0.1c0.6,0.1,1.2,0.2,2,0.4c0.8,0.2,1.5,0.4,2.1,0.7
			s1.3,0.7,2,1.2c0.7,0.5,1.2,1.1,1.7,1.8c0.5,0.7,0.8,1.6,1.1,2.6s0.4,2.2,0.4,3.5v13.5h-7.8V34.2c0-1.5-0.6-2.7-1.9-3.6
			c-1.3-0.9-2.7-1.4-4.3-1.4c-1.7,0-3.3,0.5-4.8,1.5C284.1,31.7,283.4,32.8,283.4,34.2L283.4,34.2z"/>
	</g>
	<g>
		<path class="st0" d="M160.1,64.2h5.4v5.7H164V68h0c-0.4,0.8-1,1.3-1.6,1.7c-0.6,0.3-1.5,0.5-2.7,0.5c-0.9,0-1.7-0.1-2.5-0.3
			c-0.8-0.2-1.4-0.6-2-1.2c-1-1-1.4-2.4-1.4-4.2c0-1.9,0.6-3.3,1.7-4.4c1.1-1,2.5-1.4,4.4-1.4c1.6,0,2.9,0.3,3.8,0.8
			c1.1,0.6,1.6,1.6,1.7,2.8h-2c-0.1-0.7-0.4-1.3-1.1-1.7c-0.6-0.3-1.3-0.5-2.3-0.5c-1.3,0-2.3,0.3-3,1c-0.8,0.8-1.1,1.8-1.1,3.3
			s0.4,2.5,1.1,3.3c0.4,0.4,0.8,0.7,1.3,0.8c0.5,0.1,1,0.2,1.7,0.2c1.2,0,2.1-0.3,2.7-0.9c0.2-0.1,0.4-0.4,0.6-0.8
			c0.2-0.4,0.4-0.9,0.4-1.5h-3.4L160.1,64.2L160.1,64.2z"/>
		<path class="st0" d="M174.3,67.4h1.9c-0.1,0.6-0.3,1.1-0.6,1.5s-0.8,0.7-1.3,0.9c-0.5,0.2-1.4,0.3-2.5,0.3c-0.8,0-1.5-0.1-2.1-0.2
			c-0.6-0.1-1.1-0.4-1.6-0.9c-0.7-0.7-1.1-1.7-1.1-3s0.4-2.4,1.1-3.2c0.8-0.8,1.9-1.2,3.5-1.2c1.6,0,2.8,0.4,3.6,1.2
			c0.7,0.7,1,1.8,1,3.2v0.2H169v0.1c0,0.8,0.2,1.4,0.6,1.9c0.3,0.3,0.6,0.5,0.9,0.6s0.8,0.1,1.2,0.1c0.8,0,1.4-0.1,1.8-0.3
			C174,68.4,174.3,68,174.3,67.4L174.3,67.4z M169,65.2h5.5c0-0.8-0.3-1.4-0.7-1.8c-0.4-0.4-1.1-0.6-2-0.6c-0.8,0-1.5,0.2-1.9,0.6
			C169.3,64,169,64.5,169,65.2z"/>
		<path class="st0" d="M178.1,62h1.7V63c0.3-0.4,0.7-0.7,1.1-1c0.5-0.3,1.1-0.4,1.9-0.4c1.1,0,2,0.3,2.5,0.8
			c0.5,0.5,0.8,1.2,0.8,2.2v5.2h-1.8v-4.6c0-0.9-0.2-1.5-0.5-1.8c-0.4-0.4-0.8-0.5-1.5-0.5c-0.7,0-1.3,0.2-1.7,0.7
			c-0.5,0.5-0.8,1.3-0.8,2.4v3.9h-1.8L178.1,62L178.1,62z"/>
		<path class="st0" d="M195.2,67.4h1.9c-0.1,0.6-0.3,1.1-0.6,1.5c-0.3,0.4-0.8,0.7-1.3,0.9c-0.5,0.2-1.4,0.3-2.5,0.3
			c-0.8,0-1.5-0.1-2.1-0.2c-0.6-0.1-1.1-0.4-1.6-0.9c-0.7-0.7-1.1-1.7-1.1-3s0.4-2.4,1.1-3.2c0.8-0.8,1.9-1.2,3.5-1.2
			c1.6,0,2.8,0.4,3.6,1.2c0.7,0.7,1,1.8,1,3.2v0.2h-7.4v0.1c0,0.8,0.2,1.4,0.6,1.9c0.3,0.3,0.6,0.5,0.9,0.6s0.8,0.1,1.2,0.1
			c0.8,0,1.4-0.1,1.8-0.3C194.9,68.4,195.2,68,195.2,67.4L195.2,67.4z M189.8,65.2h5.5c0-0.8-0.3-1.4-0.7-1.8
			c-0.4-0.4-1.1-0.6-2-0.6c-0.8,0-1.5,0.2-1.9,0.6C190.1,64,189.9,64.5,189.8,65.2z"/>
		<path class="st0" d="M204.3,61.8v1.4h-0.1c-1.2,0-2,0.3-2.5,0.8c-0.5,0.5-0.8,1.4-0.8,2.7v3.2H199V62h1.8v1.4h0
			c0.3-0.6,0.7-1,1.2-1.2c0.5-0.3,1.2-0.4,2-0.4L204.3,61.8L204.3,61.8z"/>
		<path class="st0" d="M206.8,64.3H205c0-0.7,0.2-1.3,0.7-1.7c0.6-0.6,1.7-0.9,3.3-0.9s2.6,0.3,3.3,1c0.1,0.1,0.1,0.2,0.2,0.2
			c0.1,0.1,0.1,0.2,0.1,0.3c0,0.1,0.1,0.2,0.1,0.2c0,0.1,0.1,0.2,0.1,0.3s0,0.2,0,0.2c0,0.1,0,0.1,0,0.2c0,0.1,0,0.2,0,0.2v3.5
			c0,0.4,0.1,0.7,0.2,0.8c0.1,0.1,0.2,0.2,0.4,0.2c0.1,0,0.2,0,0.3,0v1.2c-0.3,0.1-0.6,0.1-0.9,0.1c-0.5,0-0.9-0.1-1.1-0.3
			c-0.3-0.2-0.4-0.5-0.5-0.9c-0.4,0.5-0.8,0.8-1.3,1c-0.4,0.2-1.1,0.3-2,0.3c-1,0-1.8-0.2-2.3-0.5c-0.6-0.4-0.9-1-0.9-1.8
			c0-0.6,0.2-1.1,0.6-1.5c0.3-0.4,0.8-0.6,1.5-0.7c0.2-0.1,0.8-0.1,1.7-0.2l0.9-0.1c0.8-0.1,1.2-0.2,1.4-0.4
			c0.2-0.1,0.2-0.3,0.2-0.6c0-0.4-0.2-0.8-0.6-1c-0.4-0.2-0.9-0.3-1.5-0.3c-0.7,0-1.2,0.1-1.6,0.3C207,63.5,206.8,63.8,206.8,64.3
			L206.8,64.3z M211.1,66.1v-0.1c-0.2,0.2-0.4,0.3-0.6,0.3c-0.2,0-0.6,0.1-1,0.1l-0.9,0.1c-0.7,0-1.1,0.1-1.4,0.3
			c-0.3,0.2-0.5,0.5-0.5,0.9s0.1,0.7,0.4,0.9c0.2,0.2,0.7,0.3,1.2,0.3c0.8,0,1.4-0.1,1.8-0.4C210.8,67.9,211.1,67.2,211.1,66.1
			L211.1,66.1z"/>
		<path class="st0" d="M214.5,63.2V62h1.7v-2.3h1.8V62h1.9v1.2H218v4.5c0,0.4,0.1,0.7,0.2,0.9c0.2,0.2,0.4,0.2,0.8,0.2
			c0.3,0,0.6-0.1,0.9-0.2v1.2c-0.5,0.2-0.9,0.2-1.4,0.2c-0.8,0-1.4-0.2-1.8-0.5c-0.3-0.3-0.5-0.8-0.5-1.6v-4.8L214.5,63.2
			L214.5,63.2z"/>
		<path class="st0" d="M221.3,60.4v-1.5h1.9v1.5H221.3z M221.3,62h1.8v7.9h-1.8V62z"/>
		<path class="st0" d="M225.3,62h1.7V63c0.3-0.4,0.7-0.7,1.1-1c0.5-0.3,1.1-0.4,1.9-0.4c1.1,0,2,0.3,2.5,0.8
			c0.5,0.5,0.8,1.2,0.8,2.2v5.2h-1.8v-4.6c0-0.9-0.2-1.5-0.5-1.8c-0.4-0.4-0.8-0.5-1.5-0.5c-0.7,0-1.3,0.2-1.7,0.7
			c-0.5,0.5-0.8,1.3-0.8,2.4v3.9h-1.8L225.3,62L225.3,62z"/>
		<path class="st0" d="M235.8,70.6h1.9c0.1,0.4,0.3,0.7,0.6,0.9c0.3,0.1,0.8,0.2,1.4,0.2c0.9,0,1.5-0.2,1.9-0.5
			c0.4-0.4,0.6-1,0.6-1.9v-0.7c-0.3,0.4-0.6,0.7-1.1,0.9c-0.4,0.2-1.1,0.3-1.9,0.3c-0.4,0-0.7,0-1,0c-0.3,0-0.6-0.1-1-0.3
			c-0.4-0.1-0.7-0.4-1-0.6c-0.7-0.7-1.1-1.7-1.1-3s0.4-2.4,1.1-3.2c0.7-0.7,1.7-1.1,3.1-1.1c0.7,0,1.3,0.1,1.8,0.3
			c0.5,0.2,0.9,0.6,1.1,1h0V62h1.7v7.1c0,1.3-0.3,2.2-0.9,2.8c-0.3,0.3-0.7,0.5-1.1,0.7c-0.4,0.1-0.8,0.2-1.1,0.2
			c-0.3,0-0.7,0-1.3,0c-0.5,0-0.8,0-1.1,0c-0.3,0-0.6-0.1-1-0.2c-0.4-0.1-0.7-0.3-0.9-0.5C236.1,71.8,235.8,71.2,235.8,70.6
			L235.8,70.6z M239.7,68.6c0.8,0,1.4-0.2,1.9-0.7c0.5-0.5,0.8-1.2,0.8-2.2c0-0.9-0.2-1.6-0.7-2.1c-0.4-0.5-1.1-0.7-1.8-0.7
			c-0.8,0-1.4,0.2-1.9,0.7c-0.5,0.5-0.8,1.3-0.8,2.2s0.2,1.7,0.7,2.1C238.2,68.4,238.9,68.6,239.7,68.6L239.7,68.6z"/>
		<path class="st0" d="M258.5,59v10.9h-1.7v-1.1h0c-0.3,0.4-0.6,0.8-1.1,1c-0.5,0.2-1.1,0.4-2,0.4c-0.4,0-0.7,0-1,0
			c-0.3,0-0.6-0.1-1-0.3c-0.4-0.2-0.8-0.4-1.1-0.7c-0.4-0.4-0.6-0.8-0.8-1.4c-0.2-0.6-0.3-1.2-0.3-1.8c0-1.4,0.4-2.5,1.2-3.2
			c0.7-0.6,1.7-0.9,2.9-0.9c0.8,0,1.4,0.1,1.9,0.3c0.5,0.2,0.9,0.6,1.2,1V59L258.5,59L258.5,59z M254,62.9c-0.8,0-1.5,0.2-2,0.7
			c-0.5,0.5-0.8,1.3-0.8,2.3c0,1,0.3,1.8,0.8,2.3c0.5,0.5,1.1,0.7,2,0.7c0.8,0,1.5-0.2,2-0.7c0.5-0.5,0.8-1.3,0.8-2.3
			c0-1-0.3-1.8-0.8-2.3C255.5,63.1,254.8,62.9,254,62.9L254,62.9z"/>
		<path class="st0" d="M267.6,67.4h1.9c-0.1,0.6-0.3,1.1-0.6,1.5c-0.3,0.4-0.8,0.7-1.3,0.9c-0.5,0.2-1.4,0.3-2.5,0.3
			c-0.8,0-1.5-0.1-2.1-0.2c-0.6-0.1-1.1-0.4-1.6-0.9c-0.7-0.7-1.1-1.7-1.1-3s0.4-2.4,1.1-3.2c0.8-0.8,1.9-1.2,3.5-1.2
			s2.8,0.4,3.6,1.2c0.7,0.7,1,1.8,1,3.2v0.2h-7.4v0.1c0,0.8,0.2,1.4,0.6,1.9c0.3,0.3,0.6,0.5,0.9,0.6c0.3,0.1,0.8,0.1,1.2,0.1
			c0.8,0,1.4-0.1,1.8-0.3C267.2,68.4,267.5,68,267.6,67.4L267.6,67.4z M262.2,65.2h5.5c0-0.8-0.3-1.4-0.7-1.8
			c-0.4-0.4-1.1-0.6-2-0.6c-0.8,0-1.5,0.2-1.9,0.6C262.5,64,262.2,64.5,262.2,65.2z"/>
		<path class="st0" d="M270.8,67.5h1.8v0c0,0.5,0.2,0.8,0.6,1.1c0.4,0.2,0.9,0.3,1.6,0.3c0.7,0,1.2-0.1,1.5-0.2
			c0.4-0.2,0.6-0.5,0.6-1c0-0.4-0.2-0.7-0.6-0.9c-0.2-0.1-0.7-0.2-1.4-0.4l-1-0.2c-1.1-0.2-1.8-0.4-2.1-0.6
			c-0.6-0.4-0.9-0.9-0.9-1.6c0-0.9,0.4-1.5,1.1-2c0.6-0.4,1.5-0.5,2.7-0.5c1.2,0,2.1,0.2,2.7,0.5c0.7,0.4,1.1,1,1.1,1.9h-1.8
			c0-0.4-0.2-0.7-0.5-0.9c-0.3-0.2-0.8-0.3-1.4-0.3c-0.5,0-1,0.1-1.4,0.3c-0.4,0.2-0.6,0.5-0.6,0.9c0,0.3,0.2,0.5,0.5,0.7
			c0.3,0.1,0.9,0.3,1.9,0.4l1.1,0.2c0.8,0.1,1.4,0.3,1.9,0.7c0.5,0.4,0.7,0.9,0.7,1.6c0,0.7-0.2,1.3-0.7,1.8
			c-0.3,0.3-0.8,0.5-1.3,0.6s-1.2,0.1-2,0.1c-1.5,0-2.5-0.2-3.1-0.5C271.1,69.2,270.8,68.5,270.8,67.5L270.8,67.5L270.8,67.5z"/>
		<path class="st0" d="M280.5,60.4v-1.5h1.9v1.5H280.5z M280.5,62h1.8v7.9h-1.8V62z"/>
		<path class="st0" d="M284.7,70.6h1.9c0.1,0.4,0.3,0.7,0.6,0.9c0.3,0.1,0.8,0.2,1.4,0.2c0.9,0,1.5-0.2,1.9-0.5
			c0.4-0.4,0.6-1,0.6-1.9v-0.7c-0.3,0.4-0.6,0.7-1.1,0.9c-0.4,0.2-1.1,0.3-1.9,0.3c-0.4,0-0.7,0-1,0c-0.3,0-0.6-0.1-1-0.3
			c-0.4-0.1-0.7-0.4-1-0.6c-0.7-0.7-1.1-1.7-1.1-3s0.4-2.4,1.1-3.2c0.7-0.7,1.7-1.1,3.1-1.1c0.7,0,1.3,0.1,1.8,0.3
			c0.5,0.2,0.9,0.6,1.1,1h0V62h1.7v7.1c0,1.3-0.3,2.2-0.9,2.8c-0.3,0.3-0.7,0.5-1.1,0.7c-0.4,0.1-0.8,0.2-1.1,0.2
			c-0.3,0-0.7,0-1.3,0c-0.5,0-0.8,0-1.1,0c-0.3,0-0.6-0.1-1-0.2c-0.4-0.1-0.7-0.3-0.9-0.5C285,71.8,284.7,71.2,284.7,70.6
			L284.7,70.6z M288.6,68.6c0.8,0,1.4-0.2,1.9-0.7c0.5-0.5,0.8-1.2,0.8-2.2c0-0.9-0.2-1.6-0.7-2.1c-0.4-0.5-1.1-0.7-1.8-0.7
			s-1.4,0.2-1.9,0.7c-0.5,0.5-0.8,1.3-0.8,2.2s0.2,1.7,0.7,2.1C287.2,68.4,287.8,68.6,288.6,68.6L288.6,68.6z"/>
		<path class="st0" d="M295.2,62h1.7V63c0.3-0.4,0.7-0.7,1.1-1c0.5-0.3,1.1-0.4,1.9-0.4c1.1,0,2,0.3,2.5,0.8
			c0.5,0.5,0.8,1.2,0.8,2.2v5.2h-1.8v-4.6c0-0.9-0.2-1.5-0.5-1.8c-0.4-0.4-0.8-0.5-1.5-0.5c-0.7,0-1.3,0.2-1.7,0.7
			c-0.5,0.5-0.8,1.3-0.8,2.4v3.9h-1.8L295.2,62L295.2,62z"/>
		<path class="st0" d="M153.5,84.1h1.8v0c0,0.5,0.2,0.8,0.6,1.1c0.4,0.2,0.9,0.3,1.6,0.3s1.2-0.1,1.5-0.2c0.4-0.2,0.6-0.5,0.6-1
			c0-0.4-0.2-0.7-0.6-0.9c-0.2-0.1-0.7-0.2-1.4-0.4l-1-0.2c-1.1-0.2-1.8-0.4-2.1-0.6c-0.6-0.4-0.9-0.9-0.9-1.6c0-0.9,0.4-1.5,1.1-2
			c0.6-0.4,1.5-0.5,2.7-0.5c1.2,0,2.1,0.2,2.7,0.5c0.7,0.4,1.1,1,1.1,1.9h-1.8c0-0.4-0.2-0.7-0.5-0.9c-0.3-0.2-0.8-0.3-1.4-0.3
			c-0.5,0-1,0.1-1.4,0.3c-0.4,0.2-0.6,0.5-0.6,0.9c0,0.3,0.2,0.5,0.5,0.7c0.3,0.1,0.9,0.3,1.9,0.4L159,82c0.8,0.1,1.4,0.3,1.9,0.7
			c0.5,0.4,0.7,0.9,0.7,1.6c0,0.7-0.2,1.3-0.7,1.8c-0.3,0.3-0.8,0.5-1.3,0.6c-0.5,0.1-1.2,0.1-2,0.1c-1.5,0-2.5-0.2-3.1-0.5
			C153.9,85.7,153.6,85,153.5,84.1L153.5,84.1L153.5,84.1z"/>
		<path class="st0" d="M172.2,82.5c0,1.2-0.4,2.2-1.1,3c-0.8,0.8-2,1.2-3.6,1.2s-2.8-0.4-3.6-1.2c-0.8-0.8-1.1-1.8-1.1-3
			s0.4-2.2,1.1-3c0.8-0.8,2-1.2,3.6-1.2s2.8,0.4,3.6,1.2C171.8,80.2,172.2,81.2,172.2,82.5z M167.4,79.4c-0.9,0-1.5,0.2-2,0.7
			c-0.6,0.5-0.9,1.3-0.9,2.3c0,1,0.3,1.8,0.9,2.3c0.5,0.5,1.2,0.7,2,0.7s1.5-0.2,2-0.7c0.6-0.5,0.9-1.3,0.9-2.3c0-1-0.3-1.8-0.9-2.3
			C168.9,79.7,168.3,79.4,167.4,79.4z"/>
		<path class="st0" d="M174,75.5h1.8v10.9H174V75.5z"/>
		<path class="st0" d="M186.1,86.4h-1.7v-1.1h0c-0.3,0.5-0.7,0.8-1.2,1.1c-0.4,0.2-1,0.3-1.9,0.3c-1.1,0-1.9-0.2-2.4-0.7
			c-0.5-0.5-0.8-1.3-0.8-2.4v-5h1.8v4.7c0,0.8,0.2,1.4,0.5,1.8c0.3,0.3,0.8,0.4,1.4,0.4c0.8,0,1.4-0.2,1.8-0.7
			c0.4-0.5,0.6-1.2,0.6-2.2v-4.1h1.8L186.1,86.4L186.1,86.4z"/>
		<path class="st0" d="M187.4,79.7v-1.2h1.7v-2.3h1.8v2.3h1.9v1.2h-1.9v4.5c0,0.4,0.1,0.7,0.2,0.9c0.2,0.2,0.4,0.2,0.8,0.2
			c0.3,0,0.6-0.1,0.9-0.2v1.2c-0.5,0.2-0.9,0.2-1.4,0.2c-0.8,0-1.4-0.2-1.8-0.5c-0.3-0.3-0.5-0.8-0.5-1.6v-4.8H187.4L187.4,79.7z"/>
		<path class="st0" d="M194.2,77v-1.5h1.9V77H194.2z M194.2,78.5h1.8v7.9h-1.8V78.5L194.2,78.5z"/>
		<path class="st0" d="M207.4,82.5c0,1.2-0.4,2.2-1.1,3c-0.8,0.8-2,1.2-3.6,1.2s-2.8-0.4-3.6-1.2c-0.8-0.8-1.1-1.8-1.1-3
			s0.4-2.2,1.1-3c0.8-0.8,2-1.2,3.6-1.2s2.8,0.4,3.6,1.2C207,80.2,207.4,81.2,207.4,82.5z M202.6,79.4c-0.9,0-1.5,0.2-2,0.7
			c-0.6,0.5-0.9,1.3-0.9,2.3c0,1,0.3,1.8,0.9,2.3c0.5,0.5,1.2,0.7,2,0.7s1.5-0.2,2-0.7c0.6-0.5,0.9-1.3,0.9-2.3c0-1-0.3-1.8-0.9-2.3
			C204.1,79.7,203.4,79.4,202.6,79.4z"/>
		<path class="st0" d="M209.1,78.5h1.7v1.1c0.3-0.4,0.7-0.7,1.1-1c0.5-0.3,1.1-0.4,1.9-0.4c1.1,0,2,0.3,2.5,0.8
			c0.5,0.5,0.8,1.2,0.8,2.2v5.2h-1.8v-4.6c0-0.9-0.2-1.5-0.5-1.8c-0.4-0.4-0.8-0.5-1.5-0.5c-0.7,0-1.3,0.2-1.7,0.7
			c-0.5,0.5-0.8,1.3-0.8,2.4v3.9h-1.8L209.1,78.5L209.1,78.5z"/>
		<path class="st0" d="M218.9,84.1h1.8v0c0,0.5,0.2,0.8,0.6,1.1c0.4,0.2,0.9,0.3,1.6,0.3c0.7,0,1.2-0.1,1.5-0.2
			c0.4-0.2,0.6-0.5,0.6-1c0-0.4-0.2-0.7-0.6-0.9c-0.2-0.1-0.7-0.2-1.4-0.4l-1-0.2c-1.1-0.2-1.8-0.4-2.1-0.6
			c-0.6-0.4-0.9-0.9-0.9-1.6c0-0.9,0.4-1.5,1.1-2c0.6-0.4,1.5-0.5,2.7-0.5c1.2,0,2.1,0.2,2.7,0.5c0.7,0.4,1.1,1,1.1,1.9h-1.8
			c0-0.4-0.2-0.7-0.5-0.9c-0.3-0.2-0.8-0.3-1.4-0.3c-0.5,0-1,0.1-1.4,0.3c-0.4,0.2-0.6,0.5-0.6,0.9c0,0.3,0.2,0.5,0.5,0.7
			c0.3,0.1,0.9,0.3,1.9,0.4l1.1,0.2c0.8,0.1,1.4,0.3,1.9,0.7c0.5,0.4,0.7,0.9,0.7,1.6c0,0.7-0.2,1.3-0.7,1.8
			c-0.3,0.3-0.8,0.5-1.3,0.6s-1.2,0.1-2,0.1c-1.5,0-2.5-0.2-3.1-0.5C219.2,85.7,218.9,85,218.9,84.1L218.9,84.1L218.9,84.1z"/>
	</g>
	<g>
		<path class="st0" d="M313.4,5c3.2,0,5.8,2.6,5.8,5.8c0,3.2-2.6,5.8-5.9,5.8c-3.2,0-5.8-2.6-5.8-5.8C307.6,7.6,310.2,5,313.4,5
			L313.4,5z M313.4,6.1c-2.6,0-4.7,2.1-4.7,4.6c0,2.6,2.1,4.7,4.7,4.7c2.6,0,4.7-2.1,4.7-4.6C318.1,8.2,316,6.1,313.4,6.1z"/>
		<path class="st0" d="M315.4,12.9c-0.6,0.7-1.8,1.1-2.9,0.7c-1.2-0.4-2-1.5-2-2.8c0-1.3,0.8-2.4,2-2.8c1.2-0.4,2.4,0,3,0.7
			l-0.8,0.8c-0.7-0.7-1.9-0.6-2.5,0c-0.6,0.6-0.7,1.7-0.1,2.4c0.6,0.7,1.6,0.8,2.5,0.1L315.4,12.9L315.4,12.9z"/>
	</g>
</g>
</svg>
