<svg xmlns="http://www.w3.org/2000/svg" xmlns:xlink="http://www.w3.org/1999/xlink" viewBox="0 0 2819 1011"><defs><style>.cls-1{fill:url(#Безымянный_градиент_3);}.cls-2{font-size:224.53px;font-family:AngleciaProDisplay-Regular, Anglecia Pro Display;}.cls-3{letter-spacing:-0.02em;}.cls-4{letter-spacing:-0.07em;}.cls-5{letter-spacing:-0.02em;}.cls-6{letter-spacing:-0.08em;}.cls-7{letter-spacing:0em;}.cls-8{letter-spacing:-0.17em;}.cls-9{letter-spacing:-0.04em;}.cls-10{font-size:86.91px;font-family:Mont-ExtraLightDEMO, Mont;font-weight:200;}.cls-11{letter-spacing:-0.01em;}.cls-12{letter-spacing:-0.03em;}.cls-13{letter-spacing:-0.03em;}.cls-14{letter-spacing:-0.02em;}</style><radialGradient id="Безымянный_градиент_3" cx="483.73" cy="509.04" r="337.5" gradientUnits="userSpaceOnUse"><stop offset="0"/><stop offset="0.92"/><stop offset="1"/></radialGradient></defs><title>Logo</title><g id="Слой_1" data-name="Слой 1"><path class="cls-1" d="M470.85,614.36H506l6-13h2v15.48H448.9v-1l8.25-2v-82.1l-8.25-2.41v-1.27h30.2v1.27l-8.25,2.41ZM453.34,728.43v-18h2.29a27.19,27.19,0,0,0,4.44,10,19.68,19.68,0,0,0,7,6.09,31.55,31.55,0,0,0,7.42,2.72,34,34,0,0,0,7.3.77q10.53,0,16.49-5.08t6-14.21a17.41,17.41,0,0,0-1.33-7.24,11.81,11.81,0,0,0-4.69-5,34.7,34.7,0,0,0-6.54-3.23q-3.17-1.14-9.64-3.05l-4.76-1.46c-1-.29-2.47-.78-4.5-1.46a40,40,0,0,1-4.51-1.71c-1-.46-2.28-1.12-3.93-2a14.72,14.72,0,0,1-3.68-2.47c-.81-.8-1.74-1.8-2.79-3a12.62,12.62,0,0,1-2.35-3.68,29.17,29.17,0,0,1-1.33-4.44,24.26,24.26,0,0,1-.57-5.33q0-11.17,7.36-18.15t21.82-7a38.17,38.17,0,0,1,21.32,6l5.33-3.68,1.27,1.27v18h-2.29a28.25,28.25,0,0,0-4.06-10,18.45,18.45,0,0,0-6.41-6.09,30.45,30.45,0,0,0-6.78-2.79,25.7,25.7,0,0,0-6.48-.83q-9.26,0-14.78,5a16.58,16.58,0,0,0-5.52,12.95,14.46,14.46,0,0,0,1.08,5.71,14.08,14.08,0,0,0,2.48,4.06,14.78,14.78,0,0,0,4.69,3q3.3,1.53,5.52,2.29t7,2.28q5.71,1.78,9,3a67.72,67.72,0,0,1,7.8,3.56,26.34,26.34,0,0,1,7,4.94,22.87,22.87,0,0,1,4.26,6.73,23.11,23.11,0,0,1,1.77,9.2q0,11.55-8,18.65t-24,7.11q-13.18,0-23-6l-5.46,3.8Zm-13.26,28h40.48q19.29,0,31.22,12t11.92,32.42q0,20.55-11.92,32.48T480.56,845.3H440.08v-1l8.25-2V759.52l-8.25-1.9ZM480.56,759H462v83.75h18.53q13.06,0,20.94-10.72t7.86-31q0-20.43-7.86-31.21T480.56,759Zm27.09-146.6,33-12,1.18-14.21,1.9-.69,5.3,14.55L487.89,622.3l-.35-.95,7.06-4.73-28.08-77.15-8.58.56-.43-1.19,28.38-10.34.43,1.2-6.93,5.08ZM530.21,725.6l-6.16-16.94,2.15-.78a27.08,27.08,0,0,0,7.57,7.84,19.73,19.73,0,0,0,8.65,3.34,31.71,31.71,0,0,0,7.91,0,33.5,33.5,0,0,0,7.11-1.78q9.9-3.6,13.77-10.41c2.57-4.54,2.83-9.67.74-15.39a17.19,17.19,0,0,0-3.73-6.34,11.75,11.75,0,0,0-6.12-3.11,34.78,34.78,0,0,0-7.25-.8c-2.25,0-5.61.15-10.1.44l-5,.25c-1,.06-2.6.11-4.74.17a40.74,40.74,0,0,1-4.82-.07c-1.06-.1-2.52-.27-4.36-.5a14.87,14.87,0,0,1-4.31-1.07c-1-.48-2.24-1.09-3.64-1.85a12.49,12.49,0,0,1-3.47-2.65,30,30,0,0,1-2.77-3.72,24.72,24.72,0,0,1-2.36-4.81q-3.81-10.5.71-19.57t18.13-14a38.11,38.11,0,0,1,22.07-1.69l3.75-5.28,1.62.76,6.17,16.93-2.15.78a28.37,28.37,0,0,0-7.22-8,18.58,18.58,0,0,0-8.11-3.53,30,30,0,0,0-7.33-.3,25,25,0,0,0-6.37,1.44q-8.7,3.16-12.19,9.7a16.57,16.57,0,0,0-.76,14,14.42,14.42,0,0,0,3,5,14.16,14.16,0,0,0,3.72,3,15,15,0,0,0,5.45,1.25c2.41.2,4.41.29,6,.26s4-.12,7.4-.26q6-.29,9.48-.28a67.65,67.65,0,0,1,8.55.67,26.47,26.47,0,0,1,8.25,2.26,22.75,22.75,0,0,1,6.3,4.87,23.13,23.13,0,0,1,4.81,8q3.94,10.85-1.13,20.26t-20.11,14.88q-12.39,4.51-23.62,2.25l-3.82,5.45Zm-2.87,30.88,38-13.84q18.12-6.6,33.43.59t22.3,26.38q7,19.32-.1,34.61t-25.25,21.89l-38,13.84-.34-1,7-4.73-28.3-77.75-8.4,1ZM566.25,745l-17.41,6.34,28.64,78.7,17.41-6.34q12.29-4.47,16-17.23t-3.22-31.85q-7-19.2-18.07-26.64T566.25,745ZM541.56,598l26.93-22.59-3.75-13.75,1.55-1.31,10,11.86-49.87,41.85-.66-.78,5-6.86L478,543.52,470.1,547l-.82-1,23.14-19.41.82,1-4.78,7.15Zm59.92,98.65-11.59-13.81,1.76-1.46a27.11,27.11,0,0,0,9.8,4.77,19.69,19.69,0,0,0,9.26.18,31.68,31.68,0,0,0,7.44-2.68,34.59,34.59,0,0,0,6.08-4.11q8.07-6.76,9.38-14.49T629,650.32a17.62,17.62,0,0,0-5.67-4.69,11.77,11.77,0,0,0-6.82-.81,34.25,34.25,0,0,0-7.09,1.72q-3.16,1.15-9.34,3.86l-4.58,1.94q-1.41.6-4.39,1.78a41.7,41.7,0,0,1-4.56,1.59c-1,.27-2.46.6-4.27,1a14.57,14.57,0,0,1-4.42.46c-1.13-.09-2.48-.25-4-.49a12.54,12.54,0,0,1-4.16-1.3,29.77,29.77,0,0,1-3.88-2.55,24.53,24.53,0,0,1-3.86-3.72q-7.17-8.55-6-18.63t12.24-19.37A38.12,38.12,0,0,1,588.32,602l1.72-6.24,1.79.15,11.57,13.81-1.74,1.46a28.48,28.48,0,0,0-9.52-5,18.48,18.48,0,0,0-8.82-.55,30.58,30.58,0,0,0-7,2.22,25.57,25.57,0,0,0-5.49,3.53q-7.1,6-8.15,13.3a16.55,16.55,0,0,0,4.1,13.46,14.49,14.49,0,0,0,4.49,3.68,14.28,14.28,0,0,0,4.51,1.52,14.85,14.85,0,0,0,5.55-.69,56.7,56.7,0,0,0,5.7-1.8q2.19-.84,6.86-2.77,5.52-2.31,8.82-3.51a69.12,69.12,0,0,1,8.26-2.29,26.78,26.78,0,0,1,8.53-.7,22.84,22.84,0,0,1,7.58,2.42,23.12,23.12,0,0,1,7.27,5.91q7.42,8.85,5.87,19.42t-13.81,20.87q-10.09,8.48-21.42,10.19l-1.74,6.42Zm7.86,30,31-26q14.77-12.39,31.62-10.88t30,17.17q13.21,15.75,11.74,32.55t-16.25,29.21l-31,26-.66-.77,5-6.86-53.18-63.38-7.55,3.84ZM642,702.57l-14.19,11.9,53.83,64.16,14.2-11.91q10-8.4,9.14-21.67t-13.91-28.83q-13.14-15.65-26.1-18.85T642,702.57ZM568.5,572.85l17.58-30.44-8.23-11.64,1-1.76,13.41,7.74-32.54,56.38-.89-.51,2.37-8.16-71.1-41.05-6.21,5.94-1.1-.63,15.1-26.16,1.1.64-2,8.35Zm90,72.2-15.61-9,1.15-2a27.07,27.07,0,0,0,10.84,1.14,19.59,19.59,0,0,0,8.77-3,32.31,32.31,0,0,0,6.08-5.06,34.6,34.6,0,0,0,4.3-5.94q5.26-9.12,3.85-16.82T668.6,592.1a17.45,17.45,0,0,0-6.93-2.46A11.79,11.79,0,0,0,655,591.2a34.23,34.23,0,0,0-6.07,4q-2.58,2.18-7.46,6.83l-3.64,3.39c-.75.7-1.92,1.75-3.52,3.17a42.22,42.22,0,0,1-3.74,3c-.88.61-2.11,1.42-3.67,2.43a14.68,14.68,0,0,1-4,1.94c-1.1.3-2.42.6-4,.93a12.74,12.74,0,0,1-4.36.19,28.64,28.64,0,0,1-4.51-1.07,24,24,0,0,1-4.9-2.17q-9.67-5.58-12-15.44T598,576.1a38.1,38.1,0,0,1,15.83-15.48l-.52-6.46,1.73-.46,15.6,9-1.14,2a28.33,28.33,0,0,0-10.66-1.46,18.58,18.58,0,0,0-8.47,2.5,30.87,30.87,0,0,0-5.82,4.49,26.35,26.35,0,0,0-3.95,5.19q-4.64,8-3.11,15.27a16.62,16.62,0,0,0,8.46,11.26,14.76,14.76,0,0,0,10.24,1.81,15,15,0,0,0,5-2.55,58.38,58.38,0,0,0,4.74-3.64q1.77-1.53,5.49-4.95,4.39-4.07,7.09-6.31a71.18,71.18,0,0,1,7-5,26.6,26.6,0,0,1,7.78-3.56,23.21,23.21,0,0,1,16.8,2.74q10,5.78,12.16,16.25t-5.84,24.32q-6.6,11.43-16.65,16.91l.57,6.63Zm17.65,25.51,20.24-35.06q9.65-16.69,26-21t34,5.87q17.79,10.29,22.16,26.58t-5.27,33L753.11,715l-.87-.51,2.37-8.16L683,664.94l-5.77,6.19Zm22.44-33.79-9.26,16.05,72.53,41.87,9.26-16q6.54-11.32,1.18-23.5t-22.93-22.32q-17.7-10.22-31-8.8T698.63,636.77ZM585.22,540l6.1-34.62-11.71-8.12.35-2L595.2,498l-11.3,64.11-1-.18-.57-8.47-80.85-14.26-3.8,7.7-1.25-.21,5.24-29.75,1.25.22.94,8.55Zm109.3,37-17.75-3.13.4-2.25A27,27,0,0,0,687.75,569a19.71,19.71,0,0,0,7.21-5.81,31.23,31.23,0,0,0,4-6.84,33.81,33.81,0,0,0,2-7q1.83-10.38-2.13-17.13t-13-8.34a17.35,17.35,0,0,0-7.36.06,11.73,11.73,0,0,0-5.75,3.75,34.79,34.79,0,0,0-4.32,5.87q-1.68,2.93-4.67,9c-1,2.05-1.81,3.53-2.26,4.43s-1.21,2.3-2.22,4.19a42.89,42.89,0,0,1-2.47,4.13q-.94,1.32-2.63,3.54a14.75,14.75,0,0,1-3.07,3.19c-.93.66-2.07,1.4-3.42,2.23a12.78,12.78,0,0,1-4,1.68,30.62,30.62,0,0,1-4.61.54,23.82,23.82,0,0,1-5.34-.37q-11-1.94-16.6-10.4T614,533a38.14,38.14,0,0,1,9.57-20l-2.7-5.89,1.47-1,17.75,3.13-.4,2.25a28.45,28.45,0,0,0-10.51,2.27A18.66,18.66,0,0,0,622.1,519a30.73,30.73,0,0,0-3.93,6.2,26.12,26.12,0,0,0-1.94,6.24q-1.61,9.12,2.31,15.41a16.53,16.53,0,0,0,11.79,7.68,14.5,14.5,0,0,0,5.81-.06,14.15,14.15,0,0,0,4.42-1.74,14.61,14.61,0,0,0,3.82-4.09,59.35,59.35,0,0,0,3.21-5c.76-1.37,1.91-3.55,3.47-6.54q2.75-5.31,4.5-8.35a66.69,66.69,0,0,1,4.86-7.07,26.6,26.6,0,0,1,6.09-6,22.42,22.42,0,0,1,7.36-3,23.09,23.09,0,0,1,9.36-.16q11.38,2,17,11.11t2.83,24.86q-2.29,13-9.86,21.58l2.8,6ZM719.83,595l7-39.86q3.35-19,17.23-28.66t34-6.12q20.24,3.57,29.91,17.39t6.33,32.81l-7,39.86-1-.17-.57-8.48L724.26,587.4,721,595.19Zm9.53-39.42-3.22,18.24,82.48,14.55,3.22-18.25q2.26-12.87-6.93-22.48T775.73,534.5q-20.13-3.56-32.11,2.32T729.36,555.57ZM589.68,503.44l-6.1-34.62-13.78-3.63-.35-2,15.24-2.69L596,524.61l-1,.18L591.57,517l-80.86,14.26-.94,8.54-1.25.22-5.24-29.75,1.25-.22,3.8,7.71Zm115.39-2.57L687.33,504l-.4-2.25a27.34,27.34,0,0,0,9-6.1,19.66,19.66,0,0,0,4.78-7.93,31.49,31.49,0,0,0,1.4-7.79,33.86,33.86,0,0,0-.52-7.31q-1.83-10.38-7.86-15.37t-15-3.4a17.29,17.29,0,0,0-6.89,2.57,11.7,11.7,0,0,0-4.12,5.49,34.1,34.1,0,0,0-2.05,7q-.58,3.31-1.33,10c-.28,2.29-.49,3.94-.61,4.94s-.34,2.57-.66,4.69a41.54,41.54,0,0,1-.9,4.74c-.29,1-.71,2.44-1.25,4.21a15.22,15.22,0,0,1-1.8,4.06c-.65.93-1.47,2-2.45,3.26a12.48,12.48,0,0,1-3.22,2.95,28.41,28.41,0,0,1-4.14,2.09,24.6,24.6,0,0,1-5.15,1.49q-11,1.93-19.15-4.1T614.36,487a38.08,38.08,0,0,1,2.17-22L612,460.33l1-1.46,17.75-3.13.39,2.24a28.4,28.4,0,0,0-9.1,5.73,18.6,18.6,0,0,0-4.89,7.37,30.86,30.86,0,0,0-1.57,7.17,25.91,25.91,0,0,0,.31,6.52q1.61,9.12,7.44,13.7a16.6,16.6,0,0,0,13.71,3.19,14.36,14.36,0,0,0,5.43-2.06,14.07,14.07,0,0,0,3.57-3.14,14.75,14.75,0,0,0,2.18-5.15c.63-2.35,1-4.29,1.3-5.84s.58-4,1-7.32q.75-5.94,1.37-9.4a67.8,67.8,0,0,1,2.14-8.3,26.67,26.67,0,0,1,3.66-7.73,22.54,22.54,0,0,1,5.89-5.35,23,23,0,0,1,8.75-3.35q11.37-2,19.76,4.63T703.29,471q2.3,13-1.88,23.65l4.69,4.71ZM735,509.06l-7-39.86q-3.35-19,6.39-32.83T764.2,419q20.25-3.57,34.07,6.1t17.17,28.68l7,39.86-1,.17L818,486l-81.47,14.37-.45,8.46Zm-4.53-40.3L733.68,487l82.47-14.54-3.21-18.24q-2.28-12.87-14.2-18.76t-31.92-2.36q-20.12,3.54-29.37,13.17T730.46,468.76Zm-149.08-1.22L563.8,437.1l-14.19,1.31-1-1.76L562,428.91l32.55,56.37-.89.51-5.88-6.13-71.1,41.05,2,8.35-1.1.64-15.1-26.16,1.1-.63,6.21,5.93Zm107.55-41.87-15.61,9-1.14-2a27.1,27.1,0,0,0,6.41-8.82,19.69,19.69,0,0,0,1.78-9.09A31.39,31.39,0,0,0,679,407a33.85,33.85,0,0,0-3-6.7q-5.26-9.12-12.65-11.75t-15.29,1.94a17.56,17.56,0,0,0-5.6,4.77,11.78,11.78,0,0,0-2,6.57,34.37,34.37,0,0,0,.47,7.28q.6,3.33,2.18,9.88c.52,2.24.89,3.86,1.12,4.85s.56,2.53,1,4.62a39.29,39.29,0,0,1,.77,4.77c.09,1.07.17,2.53.27,4.39A14.69,14.69,0,0,1,646,442c-.29,1.1-.68,2.4-1.18,3.91a12.44,12.44,0,0,1-2,3.87,29.1,29.1,0,0,1-3.17,3.37,24.85,24.85,0,0,1-4.34,3.17q-9.66,5.56-19.39,2.69t-17-15.41a38.09,38.09,0,0,1-5.49-21.44l-5.85-2.78.46-1.73,15.61-9,1.14,2a28.16,28.16,0,0,0-6.59,8.49,18.49,18.49,0,0,0-2.08,8.6,30.29,30.29,0,0,0,1,7.27,25.42,25.42,0,0,0,2.52,6q4.64,8,11.68,10.33a16.57,16.57,0,0,0,14-1.69,14.41,14.41,0,0,0,4.4-3.79,14,14,0,0,0,2.28-4.17,15.06,15.06,0,0,0,.29-5.59q-.33-3.62-.78-5.93T629.93,423q-1.32-5.83-1.92-9.28a67.44,67.44,0,0,1-.83-8.54,26.55,26.55,0,0,1,.8-8.52,22.63,22.63,0,0,1,3.69-7.05,23,23,0,0,1,7.08-6.13q10-5.78,20.15-2.41t18.15,17.21q6.6,11.44,6.32,22.88l6,2.82Zm30.91-2.54-20.23-35.06q-9.65-16.69-5.23-33t22.12-26.54q17.79-10.29,34.09-5.92t25.94,21.07l20.24,35.06-.88.51L790,373.1l-71.65,41.36,2.47,8.1Zm-18-36.32,9.27,16L783.59,361l-9.26-16q-6.54-11.31-19.75-12.77t-30.8,8.7q-17.7,10.22-23.1,22.42T701.8,386.81ZM561.3,436.65l-26.93-22.59-12.89,6.08-1.55-1.3,10-11.87,49.87,41.84-.65.79-7.63-3.75L518.7,508.74l4.77,7.15-.82,1-23.13-19.42.81-1,7.87,3.46ZM648,360.52l-11.58,13.8-1.75-1.47a27.14,27.14,0,0,0,3-10.48,19.83,19.83,0,0,0-1.43-9.16,31.54,31.54,0,0,0-3.94-6.86,34.55,34.55,0,0,0-5.09-5.27q-8.07-6.76-15.9-6.71t-13.7,7.05a17.34,17.34,0,0,0-3.64,6.4,11.82,11.82,0,0,0,.38,6.85,34.35,34.35,0,0,0,2.93,6.68q1.7,2.92,5.42,8.53l2.71,4.19c.56.85,1.39,2.18,2.52,4a42.86,42.86,0,0,1,2.35,4.22c.44,1,1,2.32,1.75,4a15.1,15.1,0,0,1,1.22,4.26c.11,1.14.18,2.49.22,4.08A12.73,12.73,0,0,1,613,399a30.27,30.27,0,0,1-1.84,4.26,23.92,23.92,0,0,1-3,4.45q-7.17,8.55-17.3,9.17t-21.2-8.69a38.13,38.13,0,0,1-12.5-18.27l-6.45-.61-.15-1.79,11.58-13.8,1.75,1.47a28.08,28.08,0,0,0-3.29,10.24,18.59,18.59,0,0,0,1,8.78,30.2,30.2,0,0,0,3.41,6.51,25.41,25.41,0,0,0,4.42,4.79q7.1,6,14.51,5.71a16.56,16.56,0,0,0,12.55-6.36,14.51,14.51,0,0,0,2.84-5.07,13.85,13.85,0,0,0,.71-4.7,14.85,14.85,0,0,0-1.64-5.36,59.53,59.53,0,0,0-2.75-5.29q-1.22-2-3.93-6.28c-2.15-3.35-3.81-6-5-8.07a71,71,0,0,1-3.69-7.74,26.94,26.94,0,0,1-2.17-8.28A23.36,23.36,0,0,1,586.45,338q7.41-8.85,18.11-9.16t22.94,10q10.11,8.47,13.76,19.33l6.62.59Zm28.18-13-31-26Q630.43,309.15,629,292.29t11.7-32.5q13.21-15.75,30-17.22t31.58,10.93l31,26-.65.78-7.62-3.75-53.19,63.38,5.1,6.75Zm-29.37-28L661,331.51l53.83-64.16-14.19-11.91q-10-8.38-22.93-5.24t-26,18.71q-13.14,15.64-14,29T646.85,319.6Zm-115,94.88-33-12-10,10.13-1.91-.7,5.29-14.54,61.17,22.26-.34.95-8.45-.91L516.49,496.8l6.93,5.08-.44,1.19L494.6,492.75l.44-1.19,8.57.55Zm55.47-101.2-6.17,16.93-2.14-.78a27.29,27.29,0,0,0-.76-10.88,19.76,19.76,0,0,0-4.48-8.11,31.78,31.78,0,0,0-6-5.1,33,33,0,0,0-6.59-3.21q-9.9-3.61-17.24-.88t-10.47,11.32a17.24,17.24,0,0,0-1.21,7.25,11.68,11.68,0,0,0,2.69,6.32,34.48,34.48,0,0,0,5,5.27q2.58,2.16,8,6.16l4,3q1.23.92,3.73,2.91a41.06,41.06,0,0,1,3.65,3.15c.76.77,1.76,1.84,3,3.2a14.68,14.68,0,0,1,2.61,3.58c.48,1,1,2.28,1.6,3.76a12.64,12.64,0,0,1,.95,4.26,30.05,30.05,0,0,1-.27,4.63,24.67,24.67,0,0,1-1.28,5.2q-3.83,10.5-13.13,14.53t-22.9-.91A38.13,38.13,0,0,1,512,372l-6.26,1.63-.76-1.63,6.16-16.93,2.15.78a28.43,28.43,0,0,0,.4,10.75,18.77,18.77,0,0,0,3.94,7.91,30.38,30.38,0,0,0,5.43,4.95,25.89,25.89,0,0,0,5.8,3q8.7,3.17,15.58.4A16.52,16.52,0,0,0,554,372.58a14.46,14.46,0,0,0,1-5.73,14.19,14.19,0,0,0-.94-4.67,15.06,15.06,0,0,0-3.37-4.47c-1.72-1.7-3.19-3-4.41-4s-3.16-2.5-5.84-4.55c-3.16-2.42-5.65-4.38-7.44-5.89a68.37,68.37,0,0,1-6.12-6,26.73,26.73,0,0,1-4.86-7,22.82,22.82,0,0,1-1.7-7.78,23.19,23.19,0,0,1,1.48-9.25q3.94-10.85,13.89-14.79t25,1.52q12.39,4.52,19.54,13.46l6.43-1.71Zm22-21.82-38-13.84q-18.12-6.6-25.23-22T546,221.13q7-19.32,22.32-26.45t33.41-.53l38,13.84-.35,1L631,208l-28.3,77.74,7.1,4.61Zm-37.17-16.23,17.41,6.34,28.64-78.7-17.4-6.34q-12.29-4.47-23.35,2.92t-18,26.46q-7,19.2-3.29,32T572.22,275.23Zm-75.59,128.5H461.48l-6,12.94h-2V401.19h65.09v1l-8.25,2v82.1l8.25,2.42V490h-30.2v-1.26l8.25-2.42Zm17.51-114.08v18h-2.29a27.22,27.22,0,0,0-4.44-10,19.58,19.58,0,0,0-7-6.09,31.61,31.61,0,0,0-7.42-2.73,34,34,0,0,0-7.3-.76q-10.53,0-16.49,5.07t-6,14.22a17.39,17.39,0,0,0,1.33,7.23,11.81,11.81,0,0,0,4.69,5,33.53,33.53,0,0,0,6.54,3.23q3.17,1.16,9.64,3.05l4.76,1.46c1,.3,2.47.78,4.5,1.46a44.37,44.37,0,0,1,4.51,1.71c1,.47,2.28,1.12,3.93,2a14.72,14.72,0,0,1,3.68,2.47c.81.81,1.74,1.8,2.79,3a12.49,12.49,0,0,1,2.35,3.68,28.82,28.82,0,0,1,1.33,4.44,24.26,24.26,0,0,1,.57,5.33q0,11.16-7.36,18.14t-21.82,7a38.17,38.17,0,0,1-21.32-6l-5.33,3.68L456.78,373V355h2.29a28.25,28.25,0,0,0,4.06,10,18.45,18.45,0,0,0,6.41,6.09,30.45,30.45,0,0,0,6.78,2.79,25.7,25.7,0,0,0,6.48.83q9.26,0,14.78-4.95a16.55,16.55,0,0,0,5.52-12.94,14.42,14.42,0,0,0-1.08-5.71,14,14,0,0,0-2.47-4.06,15,15,0,0,0-4.7-3.05c-2.2-1-4-1.78-5.52-2.28s-3.83-1.27-7-2.29c-3.81-1.18-6.81-2.18-9-3a69.19,69.19,0,0,1-7.8-3.55,26.57,26.57,0,0,1-7-4.95,23.3,23.3,0,0,1-6-15.93q0-11.53,8-18.65t24-7.11q13.19,0,23,6l5.46-3.81Zm13.26-28H486.92q-19.29,0-31.21-12T443.78,217.2q0-20.56,11.93-32.49t31.21-11.93H527.4v1l-8.25,2v82.73l8.25,1.91Zm-40.48-2.54h18.53V175.32H486.92q-13.07,0-20.94,10.72t-7.86,31q0,20.43,7.86,31.22T486.92,259.07ZM459.83,405.66l-33,12-1.17,14.2-1.91.69L418.42,418l61.17-22.27.35,1-7.06,4.73L501,478.61l8.58-.56.43,1.19-28.38,10.33-.43-1.19,6.93-5.09ZM437.27,292.48l6.16,16.93-2.15.78a27.21,27.21,0,0,0-7.57-7.84,19.73,19.73,0,0,0-8.65-3.34,32.19,32.19,0,0,0-7.91,0,34.27,34.27,0,0,0-7.11,1.78q-9.9,3.6-13.77,10.41c-2.57,4.54-2.83,9.68-.74,15.4a17.42,17.42,0,0,0,3.73,6.34,11.74,11.74,0,0,0,6.12,3.1,34.16,34.16,0,0,0,7.25.81c2.25,0,5.61-.16,10.1-.44,2.3-.12,4-.21,5-.25s2.6-.12,4.74-.18a43.06,43.06,0,0,1,4.82.07c1.06.11,2.52.28,4.36.51a14.91,14.91,0,0,1,4.31,1.06c1,.48,2.24,1.1,3.64,1.85A12.68,12.68,0,0,1,453,342.1a30.75,30.75,0,0,1,2.77,3.72,25,25,0,0,1,2.36,4.81q3.81,10.5-.71,19.57t-18.13,14a38.11,38.11,0,0,1-22.07,1.69l-3.75,5.28-1.62-.76-6.17-16.94,2.15-.78a28.23,28.23,0,0,0,7.22,8,18.61,18.61,0,0,0,8.11,3.54,30.55,30.55,0,0,0,7.33.3,25.91,25.91,0,0,0,6.37-1.44q8.7-3.16,12.19-9.71a16.57,16.57,0,0,0,.76-14.05,14.47,14.47,0,0,0-3-5,13.76,13.76,0,0,0-3.72-3,14.8,14.8,0,0,0-5.45-1.26c-2.41-.2-4.41-.29-6-.26s-4,.12-7.4.27q-6,.28-9.48.27a67.42,67.42,0,0,1-8.55-.66,26.45,26.45,0,0,1-8.25-2.27,22.89,22.89,0,0,1-6.3-4.86,23.13,23.13,0,0,1-4.81-8Q383,323.7,388.09,314.3t20.11-14.88q12.39-4.51,23.62-2.25l3.82-5.45Zm2.87-30.88-38,13.84q-18.12,6.6-33.43-.6t-22.3-26.38q-7-19.32.1-34.6T371.72,192l38-13.84.34,1-7.05,4.73,28.3,77.74,8.4-1Zm-38.91,11.45,17.41-6.33L390,188l-17.41,6.33q-12.29,4.47-16,17.24t3.22,31.85q7,19.2,18.07,26.64T401.23,273.05Zm24.68,147L399,442.67l3.75,13.75-1.55,1.31-9.95-11.87L441.09,404l.66.78-5,6.86,52.78,62.89,7.86-3.46.82,1-23.13,19.41-.82-1,4.77-7.15ZM366,321.43l11.58,13.81-1.75,1.46a27.19,27.19,0,0,0-9.8-4.77,19.6,19.6,0,0,0-9.27-.18,32,32,0,0,0-7.44,2.68,35,35,0,0,0-6.08,4.11q-8.07,6.76-9.37,14.49t4.57,14.72a17.6,17.6,0,0,0,5.66,4.69,11.78,11.78,0,0,0,6.82.81,34.25,34.25,0,0,0,7.09-1.72q3.17-1.15,9.35-3.86l4.58-1.94c.93-.4,2.4-1,4.39-1.78a41.7,41.7,0,0,1,4.55-1.59c1.05-.27,2.47-.6,4.28-1a14.51,14.51,0,0,1,4.41-.46c1.13.09,2.48.25,4.05.49a12.52,12.52,0,0,1,4.17,1.3,30.46,30.46,0,0,1,3.88,2.55,24,24,0,0,1,3.85,3.72q7.19,8.55,6,18.63t-12.23,19.37a38.15,38.15,0,0,1-20.16,9.14l-1.72,6.24-1.79-.15-11.58-13.81,1.75-1.46a28.35,28.35,0,0,0,9.51,5,18.51,18.51,0,0,0,8.83.55,30.58,30.58,0,0,0,7-2.22,26.07,26.07,0,0,0,5.49-3.53q7.1-6,8.14-13.3A16.58,16.58,0,0,0,400.69,380a14.76,14.76,0,0,0-9-5.2,14.9,14.9,0,0,0-5.56.69,56.7,56.7,0,0,0-5.7,1.8c-1.46.56-3.74,1.48-6.86,2.77q-5.51,2.31-8.82,3.51a68.9,68.9,0,0,1-8.25,2.29,26.84,26.84,0,0,1-8.54.7,22.79,22.79,0,0,1-7.57-2.42,23.15,23.15,0,0,1-7.28-5.91q-7.41-8.85-5.86-19.42t13.8-20.87q10.11-8.47,21.43-10.19l1.73-6.42Zm-7.87-30-31,26q-14.79,12.39-31.62,10.88t-30-17.17q-13.23-15.75-11.75-32.55T270,249.4l31-26,.66.77-5,6.86,53.19,63.38,7.54-3.84ZM325.49,315.5l14.2-11.9-53.84-64.16-14.19,11.91q-10,8.4-9.15,21.67t13.92,28.83q13.13,15.64,26.09,18.85T325.49,315.5ZM399,445.22l-17.58,30.44,8.23,11.64-1,1.75-13.41-7.74,32.54-56.37.89.51-2.37,8.16,71.1,41,6.21-5.93,1.1.63-15.1,26.15-1.1-.63,2-8.35Zm-90-72.21,15.6,9-1.14,2a27.07,27.07,0,0,0-10.84-1.14,19.59,19.59,0,0,0-8.77,3,32.31,32.31,0,0,0-6.08,5.06,34.21,34.21,0,0,0-4.3,5.94q-5.26,9.12-3.85,16.82T298.87,426a17.61,17.61,0,0,0,6.93,2.46,11.79,11.79,0,0,0,6.69-1.56,34.81,34.81,0,0,0,6.07-4.05q2.58-2.18,7.46-6.82l3.64-3.39q1.13-1,3.52-3.17a40.46,40.46,0,0,1,3.74-3.05c.88-.61,2.11-1.42,3.67-2.43a15.07,15.07,0,0,1,4-1.95c1.1-.29,2.42-.6,4-.92a12.26,12.26,0,0,1,4.36-.19,29.67,29.67,0,0,1,4.51,1.06,24.54,24.54,0,0,1,4.9,2.17q9.68,5.6,12,15.45T369.48,442a38.08,38.08,0,0,1-15.82,15.48l.52,6.46-1.73.46-15.6-9,1.14-2a28.35,28.35,0,0,0,10.66,1.47,18.58,18.58,0,0,0,8.47-2.51,30.85,30.85,0,0,0,5.82-4.48,26.35,26.35,0,0,0,3.95-5.19q4.64-8,3.11-15.28a16.58,16.58,0,0,0-8.46-11.25,14.31,14.31,0,0,0-5.48-1.92,14,14,0,0,0-4.76.11,15,15,0,0,0-5,2.55,58.59,58.59,0,0,0-4.74,3.63q-1.77,1.55-5.49,5-4.39,4-7.09,6.31a69.64,69.64,0,0,1-7,5,26.4,26.4,0,0,1-7.78,3.57,22.65,22.65,0,0,1-7.95.32,23.16,23.16,0,0,1-8.86-3.06q-10-5.77-12.15-16.25T291.11,397q6.61-11.43,16.66-16.91l-.57-6.63Zm-17.65-25.5L271,382.57q-9.63,16.69-26,21t-34-5.88q-17.79-10.28-22.16-26.57t5.27-33l20.25-35,.87.5-2.37,8.16,71.65,41.37,5.78-6.19ZM268.84,381.3l9.26-16.05-72.53-41.87-9.26,16q-6.54,11.31-1.18,23.49t22.93,22.33q17.7,10.22,31,8.79T268.84,381.3Zm113.41,96.76-6.1,34.61,11.71,8.12-.35,2-15.24-2.68L383.57,456l1,.17.57,8.48L466,478.91l3.8-7.71,1.25.22-5.24,29.75-1.25-.22-.94-8.55ZM273,441l17.74,3.12-.39,2.25A27.38,27.38,0,0,0,279.72,449a19.73,19.73,0,0,0-7.21,5.82,31.7,31.7,0,0,0-4,6.84,34.24,34.24,0,0,0-2,7.05q-1.83,10.38,2.13,17.13t13,8.34a17.36,17.36,0,0,0,7.36-.06,11.8,11.8,0,0,0,5.75-3.75,35.2,35.2,0,0,0,4.32-5.87q1.68-2.92,4.67-9c1.05-2.05,1.81-3.53,2.26-4.44s1.21-2.3,2.22-4.18a44.66,44.66,0,0,1,2.47-4.14c.63-.88,1.5-2.05,2.63-3.53a14.52,14.52,0,0,1,3.07-3.19c.93-.66,2.07-1.4,3.42-2.24a12.75,12.75,0,0,1,4-1.67,29.23,29.23,0,0,1,4.61-.54,24.4,24.4,0,0,1,5.34.36q11,1.95,16.6,10.4t3.08,22.71a38.14,38.14,0,0,1-9.57,20l2.7,5.89-1.48,1-17.74-3.13.4-2.24a28.45,28.45,0,0,0,10.51-2.27,18.58,18.58,0,0,0,7.11-5.26,30.18,30.18,0,0,0,3.93-6.2,25.91,25.91,0,0,0,1.94-6.23q1.61-9.12-2.31-15.42a16.59,16.59,0,0,0-11.79-7.68,14.68,14.68,0,0,0-5.81.07,14.4,14.4,0,0,0-4.42,1.73,14.82,14.82,0,0,0-3.82,4.1,59.35,59.35,0,0,0-3.21,5c-.76,1.37-1.91,3.55-3.48,6.54q-2.73,5.31-4.49,8.35a67.73,67.73,0,0,1-4.86,7.07,26.33,26.33,0,0,1-6.09,6,22.42,22.42,0,0,1-7.36,3,23,23,0,0,1-9.37.15q-11.37-2-17-11.11t-2.83-24.85q2.29-13,9.86-21.58l-2.8-6Zm-25.31-17.94-7,39.87q-3.35,19-17.23,28.66t-34,6.11q-20.24-3.56-29.91-17.38t-6.34-32.82l7-39.86,1,.18.57,8.47,81.48,14.37,3.31-7.79Zm-9.53,39.43,3.22-18.25-82.48-14.54L155.63,448q-2.26,12.87,6.93,22.48t29.18,13.14q20.13,3.56,32.11-2.33T238.11,462.5Zm139.67,52.14,6.11,34.61,13.78,3.63.35,2-15.25,2.7-11.3-64.11,1-.18,3.43,7.77,80.86-14.26.94-8.54L459,478l5.24,29.75-1.25.22-3.81-7.71ZM262.4,517.2l17.74-3.13.4,2.25a27.14,27.14,0,0,0-9,6.1,19.68,19.68,0,0,0-4.79,7.93,31.61,31.61,0,0,0-1.39,7.79,33.84,33.84,0,0,0,.51,7.31q1.83,10.38,7.87,15.37t15,3.41a17.59,17.59,0,0,0,6.89-2.57,11.87,11.87,0,0,0,4.12-5.49,35.11,35.11,0,0,0,2.05-7q.57-3.33,1.33-10c.28-2.28.48-3.93.61-4.94s.34-2.57.65-4.69a43.13,43.13,0,0,1,.9-4.73c.3-1,.71-2.44,1.26-4.22a14.4,14.4,0,0,1,1.8-4c.65-.94,1.46-2,2.45-3.27a12.48,12.48,0,0,1,3.22-2.95,29.45,29.45,0,0,1,4.14-2.09,24.41,24.41,0,0,1,5.15-1.48q11-2,19.15,4.1t10.66,20.28a38.18,38.18,0,0,1-2.17,22l4.55,4.61-1,1.46-17.75,3.13-.39-2.24a28.34,28.34,0,0,0,9.1-5.73A18.57,18.57,0,0,0,350.3,547a30.3,30.3,0,0,0,1.58-7.17,25.93,25.93,0,0,0-.31-6.52q-1.62-9.12-7.45-13.7a16.57,16.57,0,0,0-13.7-3.19,14.75,14.75,0,0,0-5.44,2.06,14,14,0,0,0-3.56,3.14,14.73,14.73,0,0,0-2.19,5.15,59.4,59.4,0,0,0-1.29,5.84c-.25,1.54-.58,4-1,7.33-.51,4-1,7.08-1.37,9.39a69.68,69.68,0,0,1-2.14,8.3,26.66,26.66,0,0,1-3.67,7.73,22.68,22.68,0,0,1-5.88,5.36,23,23,0,0,1-8.75,3.34q-11.37,2-19.76-4.63T264.18,547q-2.3-13,1.88-23.65l-4.69-4.71ZM232.48,509l7,39.86q3.35,19-6.39,32.83t-29.86,17.37Q183,602.64,169.2,593T152,564.3l-7-39.87,1-.17,3.43,7.77,81.48-14.37.44-8.45Zm4.53,40.3-3.22-18.24-82.48,14.54,3.22,18.24q2.26,12.89,14.19,18.76T200.64,585q20.13-3.54,29.38-13.16T237,549.31Zm149.07,1.23L403.65,581l14.2-1.31,1,1.76-13.41,7.74-32.54-56.38.88-.5,5.88,6.13,71.1-41-2-8.35,1.1-.64,15.1,26.15-1.09.64-6.22-5.94ZM278.53,592.41l15.61-9,1.14,2a27.24,27.24,0,0,0-6.41,8.83,19.66,19.66,0,0,0-1.78,9.09,31.48,31.48,0,0,0,1.35,7.79,34.44,34.44,0,0,0,3,6.7q5.26,9.12,12.65,11.75t15.29-1.94a17.46,17.46,0,0,0,5.6-4.77,11.78,11.78,0,0,0,2-6.57,34.37,34.37,0,0,0-.47-7.28q-.59-3.33-2.18-9.88c-.51-2.24-.89-3.86-1.11-4.85s-.57-2.53-1-4.63a41.31,41.31,0,0,1-.77-4.76c-.09-1.07-.17-2.54-.27-4.39a14.69,14.69,0,0,1,.31-4.42c.29-1.1.68-2.4,1.18-3.91a12.64,12.64,0,0,1,2-3.87,30.19,30.19,0,0,1,3.18-3.38,24.73,24.73,0,0,1,4.33-3.16q9.68-5.58,19.4-2.69t17,15.41A38.09,38.09,0,0,1,374,595.89l5.85,2.77-.46,1.74-15.6,9-1.15-2a28.27,28.27,0,0,0,6.6-8.5,18.56,18.56,0,0,0,2.07-8.59,30.29,30.29,0,0,0-1-7.27,25.49,25.49,0,0,0-2.52-6q-4.63-8-11.67-10.32a16.53,16.53,0,0,0-14,1.69,14.34,14.34,0,0,0-4.41,3.79,14,14,0,0,0-2.28,4.17,14.82,14.82,0,0,0-.29,5.59c.22,2.41.48,4.39.78,5.92s.82,4,1.55,7.24q1.31,5.83,1.92,9.29a67.27,67.27,0,0,1,.82,8.54,26.58,26.58,0,0,1-.79,8.52,23.31,23.31,0,0,1-10.78,13.18q-10,5.77-20.15,2.41t-18.15-17.22q-6.6-11.43-6.32-22.87l-6-2.83ZM247.62,595l20.24,35q9.63,16.71,5.22,33T251,689.57q-17.81,10.27-34.1,5.92t-25.94-21.07l-20.24-35.06.88-.51,5.88,6.13,71.65-41.36-2.47-8.1Zm18,36.32-9.26-16L183.87,657.1l9.26,16q6.54,11.31,19.75,12.77t30.81-8.7q17.69-10.22,23.1-22.43T265.66,631.27Zm140.5-49.84L433.09,604,446,597.94l1.55,1.31-9.95,11.86-49.87-41.84.66-.78,7.62,3.74,52.77-62.89L444,502.19l.82-1L468,520.64l-.82,1-7.87-3.46Zm-86.74,76.13L331,643.76l1.75,1.47a27.14,27.14,0,0,0-3,10.48,19.8,19.8,0,0,0,1.43,9.16,31.48,31.48,0,0,0,3.94,6.86,33.72,33.72,0,0,0,5.1,5.27q8.05,6.76,15.9,6.71t13.7-7.05a17.49,17.49,0,0,0,3.63-6.39,11.76,11.76,0,0,0-.38-6.86,34,34,0,0,0-2.93-6.68q-1.68-2.93-5.42-8.53L362,644c-.56-.85-1.39-2.19-2.51-4a41.44,41.44,0,0,1-2.36-4.21c-.44-1-1-2.33-1.74-4a14.89,14.89,0,0,1-1.23-4.27c-.1-1.13-.17-2.49-.22-4.07a12.79,12.79,0,0,1,.56-4.34,29.7,29.7,0,0,1,1.84-4.25,23.92,23.92,0,0,1,3-4.45q7.17-8.55,17.3-9.17t21.2,8.68a38.17,38.17,0,0,1,12.5,18.27l6.45.61.16,1.79-11.59,13.8-1.75-1.47a28.3,28.3,0,0,0,3.3-10.24,18.73,18.73,0,0,0-1-8.78,30.31,30.31,0,0,0-3.4-6.5,25.86,25.86,0,0,0-4.43-4.8q-7.09-6-14.51-5.71A16.58,16.58,0,0,0,371,613.24a14.49,14.49,0,0,0-2.84,5.07,14,14,0,0,0-.71,4.7,14.81,14.81,0,0,0,1.64,5.35,59.62,59.62,0,0,0,2.76,5.3q1.2,2,3.92,6.27,3.24,5,5,8.08a68.33,68.33,0,0,1,3.69,7.74,27,27,0,0,1,2.17,8.27A23.32,23.32,0,0,1,381,680.09q-7.41,8.85-18.11,9.16t-22.94-10q-10.11-8.49-13.76-19.34l-6.62-.59Zm-28.18,13,31,26q14.78,12.39,16.2,29.25t-11.7,32.5q-13.22,15.75-30,17.22t-31.58-10.92l-31-26,.65-.77,7.62,3.75,53.19-63.39-5.1-6.75Zm29.37,28-14.19-11.9-53.83,64.15,14.19,11.91q10,8.4,22.93,5.24t26-18.7q13.14-15.64,14-29T320.61,698.48Zm115-94.88,33,12,10-10.12,1.9.69-5.29,14.55L414.1,598.48l.35-1,8.44.92L451,521.29l-6.92-5.09.43-1.19,28.38,10.33-.43,1.19-8.58-.56ZM380.13,704.81l6.16-16.94,2.15.79a27.06,27.06,0,0,0,.76,10.87,19.75,19.75,0,0,0,4.48,8.12,31.66,31.66,0,0,0,6,5.09,33.68,33.68,0,0,0,6.6,3.22q9.89,3.6,17.24.87T434,705.51a17.4,17.4,0,0,0,1.22-7.25,11.75,11.75,0,0,0-2.7-6.31,34.06,34.06,0,0,0-5-5.28q-2.6-2.16-8-6.16l-4-3c-.82-.61-2.06-1.57-3.74-2.91a42.58,42.58,0,0,1-3.65-3.15c-.75-.76-1.76-1.83-3-3.19a14.89,14.89,0,0,1-2.61-3.59c-.48-1-1-2.28-1.6-3.76a12.41,12.41,0,0,1-.95-4.25,28.9,28.9,0,0,1,.27-4.64,23.84,23.84,0,0,1,1.28-5.19q3.83-10.5,13.12-14.54t22.9.91a38,38,0,0,1,18,12.89l6.27-1.64.76,1.63L456.38,663l-2.15-.79a28.36,28.36,0,0,0-.41-10.74,18.52,18.52,0,0,0-3.94-7.92,30.35,30.35,0,0,0-5.42-5,25.89,25.89,0,0,0-5.8-3q-8.7-3.17-15.59-.4a16.57,16.57,0,0,0-9.61,10.28,14.63,14.63,0,0,0-.94,5.73,14.19,14.19,0,0,0,.93,4.66,15.13,15.13,0,0,0,3.38,4.47c1.72,1.7,3.18,3,4.4,4s3.17,2.5,5.84,4.55q4.76,3.62,7.45,5.88a68.42,68.42,0,0,1,6.11,6,26.67,26.67,0,0,1,4.87,7,22.71,22.71,0,0,1,1.69,7.77,23.17,23.17,0,0,1-1.47,9.25q-4,10.86-13.89,14.8t-25-1.53q-12.39-4.51-19.54-13.46l-6.42,1.72Zm-22.06,21.81,38,13.84q18.13,6.6,25.24,21.95t.12,34.54q-7,19.32-22.33,26.45t-33.41.54l-38-13.85.34-1,8.44.91,28.31-77.75-7.1-4.6Zm37.17,16.23-17.4-6.34-28.65,78.7,17.41,6.34q12.28,4.47,23.34-2.92t18-26.46q7-19.2,3.28-32T395.24,742.85Z"/><text class="cls-2" transform="translate(927.18 335.76)">LA<tspan class="cls-3" x="301.31" y="0">B</tspan><tspan x="444.79" y="0">OR</tspan><tspan class="cls-4" x="765.41" y="0">A</tspan><tspan class="cls-5" x="918.09" y="0">T</tspan><tspan x="1064.71" y="0">O</tspan><tspan class="cls-6" x="1237.37" y="0">R</tspan><tspan class="cls-7" x="1367.6" y="0">Y </tspan><tspan class="cls-3" x="0" y="187.97">S</tspan><tspan x="128.88" y="187.97">OFT</tspan><tspan class="cls-8" x="586.24" y="187.97">W</tspan><tspan x="814.59" y="187.97">ARE </tspan><tspan x="0" y="375.93">DEVE</tspan><tspan class="cls-9" x="610.49" y="375.93">L</tspan><tspan x="733.98" y="375.93">OPMENT </tspan></text><text class="cls-10" transform="translate(922.93 845.75)"><tspan class="cls-11">b</tspan><tspan class="cls-12" x="59.79" y="0">y</tspan><tspan x="106.98" y="0" xml:space="preserve"> SCUIIIP</tspan><tspan class="cls-13" x="428.96" y="0">T</tspan><tspan x="472.24" y="0">OR p</tspan><tspan class="cls-14" x="684.99" y="0">r</tspan><tspan x="715.84" y="0">od.</tspan></text></g></svg>