<?xml version="1.0" encoding="utf-8"?>
<!-- Generator: Adobe Illustrator 23.0.5, SVG Export Plug-In . SVG Version: 6.00 Build 0)  -->
<svg version="1.1" id="Слой_1" xmlns="http://www.w3.org/2000/svg" xmlns:xlink="http://www.w3.org/1999/xlink" x="0px" y="0px"
	 viewBox="0 0 212 59" style="enable-background:new 0 0 212 59;" xml:space="preserve">
<style type="text/css">
	.st0{fill:url(#SVGID_1_);}
	.st1{fill:#FFFFFF;}
</style>
<title>Безымянный-1</title>
<radialGradient id="SVGID_1_" cx="28.985" cy="31.23" r="28.8548" gradientTransform="matrix(1 0 0 -1 0 60)" gradientUnits="userSpaceOnUse">
	<stop  offset="0" style="stop-color:#FFFFFF"/>
	<stop  offset="0.92" style="stop-color:#FFFFFF"/>
	<stop  offset="1" style="stop-color:#FFFFFF"/>
</radialGradient>
<path class="st0" d="M27.9,37.8h3l0.5-1.1h0.2V38H26v-0.1l0.7-0.2v-7L26,30.5v-0.1h2.6v0.1l-0.7,0.2L27.9,37.8z M26.4,47.5V46h0.2
	c0.1,0.3,0.2,0.6,0.4,0.8c0.2,0.2,0.4,0.4,0.6,0.5c0.2,0.1,0.4,0.2,0.6,0.2c0.2,0,0.4,0.1,0.6,0.1c0.5,0,1-0.1,1.4-0.4
	c0.4-0.3,0.5-0.8,0.5-1.2c0-0.2,0-0.4-0.1-0.6c-0.1-0.2-0.2-0.3-0.4-0.4c-0.2-0.1-0.4-0.2-0.6-0.3c-0.2-0.1-0.5-0.2-0.8-0.3
	l-0.4-0.1L28,44.2L27.7,44c-0.1,0-0.2-0.1-0.3-0.2c-0.1-0.1-0.2-0.1-0.3-0.2l-0.2-0.3c-0.1-0.1-0.2-0.2-0.2-0.3
	c-0.1-0.1-0.1-0.3-0.1-0.4c0-0.1,0-0.3,0-0.5c0-0.6,0.2-1.1,0.6-1.5c0.5-0.4,1.2-0.6,1.9-0.6c0.6,0,1.3,0.2,1.8,0.5l0.5-0.3l0.1,0.1
	V42h-0.2c-0.1-0.3-0.2-0.6-0.4-0.8c-0.1-0.2-0.3-0.4-0.5-0.5c-0.2-0.1-0.4-0.2-0.6-0.2c-0.2,0-0.4-0.1-0.6-0.1
	c-0.5,0-0.9,0.1-1.3,0.4c-0.3,0.3-0.5,0.7-0.5,1.1c0,0.3,0.1,0.6,0.3,0.8c0.1,0.1,0.3,0.2,0.4,0.3c0.2,0.1,0.4,0.2,0.5,0.2l0.6,0.2
	l0.8,0.3c0.2,0.1,0.5,0.2,0.7,0.3c0.2,0.1,0.4,0.2,0.6,0.4c0.2,0.2,0.3,0.4,0.4,0.6c0.1,0.2,0.2,0.5,0.1,0.8c0,0.6-0.2,1.2-0.7,1.6
	c-0.6,0.4-1.3,0.7-2.1,0.6c-0.7,0-1.4-0.2-2-0.5l-0.5,0.3L26.4,47.5z M25.3,49.9h3.5c1,0,2,0.3,2.7,1c1.4,1.6,1.4,4,0,5.5
	c-0.7,0.7-1.7,1-2.7,1h-3.5v-0.1l0.7-0.2v-7L25.3,49.9L25.3,49.9z M28.7,50.2h-1.6v7.2h1.6c0.7,0,1.4-0.3,1.8-0.9
	c0.5-0.8,0.7-1.7,0.7-2.7c0.1-0.9-0.2-1.9-0.7-2.7C30.1,50.5,29.4,50.1,28.7,50.2z M31,37.6l2.8-1l0.1-1.2l0.2-0.1l0.5,1.3l-5.2,1.9
	v-0.1l0.6-0.4l-2.4-6.6h-0.7v-0.1l2.4-0.9v0.1L28.6,31L31,37.6z M33,47.3l-0.5-1.5l0.2-0.1c0.2,0.3,0.4,0.5,0.7,0.7
	c0.2,0.1,0.5,0.2,0.7,0.3c0.2,0,0.5,0,0.7,0c0.2,0,0.4-0.1,0.6-0.2c0.5-0.1,0.9-0.5,1.2-0.9c0.2-0.4,0.2-0.9,0.1-1.3
	c-0.1-0.2-0.2-0.4-0.3-0.5c-0.1-0.1-0.3-0.2-0.5-0.3c-0.2,0-0.4-0.1-0.6-0.1h-0.9h-0.4h-0.4c-0.1,0-0.3,0-0.4,0h-0.4
	c-0.1,0-0.3,0-0.4-0.1L32,43.3c-0.1-0.1-0.2-0.1-0.3-0.2c-0.1-0.1-0.2-0.2-0.2-0.3c-0.1-0.1-0.1-0.3-0.2-0.4
	c-0.2-0.5-0.2-1.2,0.1-1.7c0.3-0.6,0.9-1,1.6-1.2c0.6-0.2,1.3-0.3,1.9-0.1l0.3-0.5l0.1,0.1l0.5,1.5l-0.2,0.1
	c-0.2-0.3-0.4-0.5-0.6-0.7c-0.2-0.2-0.4-0.3-0.7-0.3c-0.2,0-0.4,0-0.6,0c-0.2,0-0.4,0.1-0.5,0.1c-0.4,0.1-0.8,0.4-1,0.8
	c-0.2,0.4-0.2,0.8-0.1,1.2c0.1,0.2,0.1,0.3,0.3,0.4c0.1,0.1,0.2,0.2,0.3,0.3c0.1,0.1,0.3,0.1,0.5,0.1c0.2,0,0.3,0,0.5,0h0.6
	c0.3,0,0.6,0,0.8,0s0.4,0,0.7,0c0.2,0,0.5,0.1,0.7,0.2c0.2,0.1,0.4,0.2,0.5,0.4c0.2,0.2,0.3,0.4,0.4,0.7c0.2,0.6,0.2,1.2-0.1,1.7
	c-0.4,0.6-1,1.1-1.7,1.3c-0.6,0.2-1.3,0.3-2,0.2l-0.3,0.5L33,47.3z M32.8,49.9l3.3-1.2c0.9-0.4,2-0.4,2.9,0c1.8,1,2.6,3.2,1.9,5.2
	c-0.4,0.9-1.2,1.6-2.2,1.9l-3.3,1.2V57l0.6-0.4L33.5,50l-0.7,0.1V49.9z M36,49l-1.5,0.5l2.5,6.7l1.5-0.5c0.7-0.2,1.2-0.8,1.4-1.5
	c0.2-0.9,0.1-1.9-0.3-2.7c-0.3-0.9-0.8-1.7-1.6-2.3C37.4,48.8,36.7,48.7,36,49z M33.9,36.4l2.3-1.9l-0.3-1.2l0.1-0.1l0.8,1l-4.3,3.6
	l0-0.1l0.4-0.6l-4.5-5.4L27.8,32l-0.1-0.1l2-1.7l0.1,0.1L29.4,31L33.9,36.4z M39.1,44.8l-1-1.2l0.2-0.1c0.2,0.2,0.5,0.3,0.8,0.4
	c0.3,0.1,0.5,0.1,0.8,0c0.2-0.1,0.4-0.1,0.6-0.2c0.2-0.1,0.4-0.2,0.5-0.3c0.4-0.3,0.7-0.7,0.8-1.2c0.1-0.5-0.1-0.9-0.4-1.3
	c-0.1-0.2-0.3-0.3-0.5-0.4c-0.2-0.1-0.4-0.1-0.6-0.1c-0.2,0-0.4,0.1-0.6,0.2c-0.2,0.1-0.5,0.2-0.8,0.3L38.5,41l-0.4,0.2l-0.4,0.1
	l-0.4,0.1c-0.1,0-0.3,0-0.4,0h-0.3c-0.1,0-0.2-0.1-0.3-0.1c-0.1-0.1-0.2-0.1-0.3-0.2c-0.1-0.1-0.2-0.2-0.3-0.3
	c-0.4-0.4-0.6-1-0.5-1.6c0.1-0.7,0.5-1.3,1-1.7c0.5-0.4,1.1-0.7,1.7-0.8l0.2-0.5h0.2l1,1.2l-0.2,0.1c-0.2-0.2-0.5-0.3-0.8-0.4
	c-0.2-0.1-0.5-0.1-0.8,0c-0.2,0-0.4,0.1-0.6,0.2c-0.2,0.1-0.3,0.2-0.5,0.3c-0.4,0.3-0.6,0.7-0.7,1.1c-0.1,0.4,0.1,0.8,0.3,1.2
	c0.1,0.1,0.2,0.2,0.4,0.3c0.3,0.2,0.6,0.2,0.9,0.1c0.2,0,0.3-0.1,0.5-0.2l0.6-0.2l0.8-0.3c0.2-0.1,0.4-0.1,0.7-0.2
	c0.2-0.1,0.5-0.1,0.7,0c1.1,0.2,1.9,1.2,1.8,2.4c-0.2,0.7-0.6,1.4-1.2,1.8c-0.5,0.5-1.1,0.8-1.8,0.9l-0.2,0.5L39.1,44.8z M39.7,47.4
	l2.7-2.2c0.7-0.7,1.7-1,2.7-0.9c2.1,0.3,3.6,2.2,3.6,4.3c-0.1,1-0.6,1.9-1.4,2.5l-2.7,2.2l-0.1-0.1l0.4-0.6l-4.5-5.4L39.7,47.4
	L39.7,47.4z M42.5,45.3l-1.2,1l4.6,5.5l1.2-1c0.5-0.4,0.8-1.1,0.8-1.8c-0.1-0.9-0.5-1.8-1.2-2.5c-0.6-0.8-1.3-1.3-2.2-1.6
	C43.8,44.7,43.1,44.9,42.5,45.3z M36.2,34.2l1.5-2.6l-0.7-1l0.1-0.1l1.2,0.7L35.5,36h-0.1l0.2-0.7l-6.1-3.5L29,32.3h-0.1l1.3-2.2
	l0.1,0l-0.2,0.7L36.2,34.2z M43.9,40.4l-1.3-0.8l0.1-0.2c0.3,0.1,0.6,0.1,0.9,0.1c0.3,0,0.5-0.1,0.8-0.3c0.2-0.1,0.4-0.3,0.5-0.4
	c0.1-0.2,0.3-0.3,0.4-0.5c0.3-0.4,0.4-0.9,0.3-1.4c-0.1-0.4-0.4-0.8-0.8-1c-0.2-0.1-0.4-0.2-0.6-0.2c-0.2,0-0.4,0-0.6,0.1
	c-0.2,0.1-0.4,0.2-0.5,0.3c-0.2,0.1-0.4,0.3-0.6,0.6l-0.3,0.3l-0.3,0.3c-0.1,0.1-0.2,0.2-0.3,0.3c-0.1,0.1-0.2,0.1-0.3,0.2
	c-0.1,0.1-0.2,0.1-0.3,0.2l-0.3,0.1c-0.1,0-0.2,0-0.4,0c-0.1,0-0.3,0-0.4-0.1c-0.1,0-0.3-0.1-0.4-0.2c-0.5-0.3-0.9-0.8-1-1.3
	c-0.1-0.7,0-1.4,0.4-1.9c0.3-0.6,0.8-1,1.3-1.3v-0.5h0.2l1.3,0.8l-0.1,0.2c-0.3-0.1-0.6-0.1-0.9-0.1c-0.3,0-0.5,0.1-0.7,0.2
	c-0.2,0.1-0.4,0.2-0.5,0.4c-0.1,0.1-0.2,0.3-0.3,0.4c-0.2,0.4-0.3,0.9-0.3,1.3c0.1,0.4,0.3,0.8,0.7,1c0.1,0.1,0.3,0.1,0.5,0.2
	c0.1,0,0.3,0,0.4,0c0.2,0,0.3-0.1,0.4-0.2l0.4-0.3l0.5-0.4l0.6-0.5c0.2-0.2,0.4-0.3,0.6-0.4c0.2-0.1,0.4-0.2,0.7-0.3
	c0.2,0,0.5,0,0.7,0c0.8,0.1,1.5,0.7,1.8,1.5c0.1,0.7-0.1,1.5-0.5,2.1c-0.4,0.6-0.9,1.1-1.5,1.4l0,0.6L43.9,40.4z M45.5,42.6l1.7-3
	c0.5-0.9,1.3-1.5,2.2-1.8c2.1-0.4,4.1,0.8,4.8,2.8c0.2,1,0.1,2-0.5,2.8l-1.7,3H52l0.2-0.7L46,42.1L45.5,42.6L45.5,42.6z M47.4,39.7
	l-0.8,1.4l6.2,3.6l0.8-1.4c0.4-0.6,0.4-1.4,0.1-2c-1-1.6-2.7-2.6-4.6-2.7C48.4,38.7,47.7,39.1,47.4,39.7z M37.7,31.4l0.5-3l-1-0.7
	v-0.2l1.3,0.2l-1,5.5h-0.1v-0.7l-6.9-1.2L30.2,32h-0.1l0.5-2.5h0.1l0.1,0.7L37.7,31.4z M47,34.6l-1.5-0.3v-0.2
	c0.3,0,0.6-0.1,0.9-0.2c0.2-0.1,0.5-0.3,0.6-0.5c0.1-0.2,0.3-0.4,0.3-0.6c0.1-0.2,0.1-0.4,0.2-0.6c0.1-0.5,0-1-0.2-1.5
	c-0.2-0.4-0.6-0.7-1.1-0.8c-0.2,0-0.4,0-0.6,0c-0.2,0.1-0.4,0.2-0.5,0.3c-0.1,0.1-0.3,0.3-0.4,0.5c-0.1,0.2-0.2,0.4-0.4,0.8L44.2,32
	L44,32.3c-0.1,0.1-0.1,0.2-0.2,0.4L43.6,33c-0.1,0.1-0.2,0.2-0.3,0.3L43,33.4c-0.1,0.1-0.2,0.1-0.3,0.2c-0.1,0-0.3,0-0.4,0
	c-0.1,0-0.3,0-0.5,0c-0.6-0.1-1.1-0.4-1.4-0.9c-0.3-0.6-0.4-1.3-0.3-1.9c0.1-0.6,0.4-1.2,0.9-1.6l-0.2-0.5l0.1-0.1l1.5,0.3V29
	c-0.3,0-0.6,0.1-0.9,0.2c-0.2,0.1-0.4,0.3-0.6,0.5c-0.1,0.2-0.2,0.3-0.3,0.5c-0.1,0.2-0.1,0.4-0.2,0.5c-0.1,0.4,0,0.9,0.2,1.3
	c0.2,0.4,0.6,0.6,1,0.7c0.2,0,0.3,0,0.5,0c0.1,0,0.3-0.1,0.4-0.2c0.1-0.1,0.2-0.2,0.3-0.3c0.1-0.1,0.2-0.3,0.3-0.4
	c0.1-0.1,0.2-0.3,0.3-0.6l0.4-0.7c0.1-0.2,0.2-0.4,0.4-0.6c0.1-0.2,0.3-0.4,0.5-0.5c0.2-0.1,0.4-0.2,0.6-0.3c0.3-0.1,0.5-0.1,0.8,0
	c0.6,0.1,1.1,0.5,1.5,1c0.3,0.7,0.4,1.4,0.2,2.1c-0.1,0.7-0.5,1.3-0.9,1.8l0.2,0.5L47,34.6z M49.2,36.1l0.6-3.4
	c0.1-1,0.7-1.9,1.5-2.5c1.8-1.1,4.1-0.6,5.5,1c0.5,0.8,0.7,1.8,0.6,2.7l-0.6,3.4h-0.1v-0.7l-7-1.2l-0.3,0.7L49.2,36.1z M50,32.8
	l-0.3,1.6l7,1.3l0.3-1.6c0.1-0.7-0.1-1.4-0.6-1.9c-0.7-0.6-1.6-1-2.5-1.1c-0.9-0.2-1.9-0.2-2.8,0.2C50.6,31.5,50.1,32.1,50,32.8z
	 M38,28.3l-0.5-3L36.3,25v-0.2l1.3-0.2l1,5.5h-0.1l-0.3-0.7l-6.9,1.2l-0.1,0.7h-0.2l-0.4-2.5h0.1l0.3,0.7L38,28.3z M47.9,28.1
	l-1.5,0.3v-0.2c0.3-0.1,0.5-0.3,0.8-0.5c0.2-0.2,0.3-0.4,0.4-0.7c0.1-0.2,0.1-0.4,0.1-0.7c0-0.2,0-0.4,0-0.6c-0.1-0.5-0.3-1-0.6-1.3
	c-0.4-0.3-0.8-0.4-1.3-0.3c-0.2,0-0.4,0.1-0.6,0.2c-0.2,0.1-0.3,0.3-0.3,0.5c-0.1,0.2-0.1,0.4-0.2,0.6c0,0.2-0.1,0.5-0.1,0.9
	c0,0.2,0,0.3,0,0.4s0,0.2-0.1,0.4c0,0.1,0,0.3-0.1,0.4c0,0.1-0.1,0.2-0.1,0.4c0,0.1-0.1,0.2-0.2,0.3c-0.1,0.1-0.1,0.2-0.2,0.3
	c-0.1,0.1-0.2,0.2-0.3,0.3c-0.1,0.1-0.2,0.1-0.4,0.2c-0.1,0.1-0.3,0.1-0.4,0.1c-0.6,0.1-1.2,0-1.6-0.4c-0.5-0.4-0.8-1.1-0.9-1.7
	c-0.2-0.6-0.1-1.3,0.1-1.9L40,24.6l0.1-0.1l1.5-0.3v0.2c-0.3,0.1-0.6,0.3-0.8,0.5c-0.2,0.2-0.3,0.4-0.4,0.6
	c-0.1,0.2-0.1,0.4-0.1,0.6c0,0.2,0,0.4,0,0.6c0.1,0.5,0.3,0.9,0.6,1.2c0.3,0.3,0.8,0.4,1.2,0.3c0.2,0,0.3-0.1,0.5-0.2
	c0.1-0.1,0.2-0.2,0.3-0.3c0.1-0.1,0.2-0.3,0.2-0.5c0-0.2,0.1-0.4,0.1-0.5l0.1-0.6c0-0.3,0.1-0.6,0.1-0.8c0-0.2,0.1-0.5,0.2-0.7
	c0.1-0.2,0.2-0.5,0.3-0.7c0.1-0.2,0.3-0.3,0.5-0.5c0.2-0.1,0.5-0.2,0.7-0.3c0.6-0.1,1.2,0,1.7,0.4c0.6,0.5,0.9,1.2,1,1.9
	c0.1,0.7,0.1,1.4-0.2,2L48,28L47.9,28.1z M50.4,28.8l-0.6-3.4c-0.2-1,0-2,0.5-2.8c1.3-1.6,3.6-2,5.5-1c0.8,0.6,1.4,1.5,1.5,2.4
	l0.6,3.4h-0.1l-0.3-0.7l-7,1.2v0.7L50.4,28.8z M50,25.3l0.3,1.6l7.1-1.3l-0.3-1.6c-0.1-0.7-0.6-1.3-1.2-1.6
	c-0.9-0.4-1.8-0.4-2.7-0.2c-0.9,0.1-1.8,0.5-2.5,1.1C50.1,23.9,49.9,24.6,50,25.3L50,25.3z M37.3,25.2l-1.5-2.6l-1.2,0.1l-0.1-0.1
	l1.2-0.7l2.8,4.8h-0.1l-0.5-0.5l-6,3.5l0.2,0.7l-0.1,0.1l-1.3-2.2l0.1,0l0.5,0.5L37.3,25.2z M46.5,21.6l-1.3,0.8l-0.1-0.2
	c0.2-0.2,0.4-0.5,0.5-0.8c0.1-0.2,0.2-0.5,0.2-0.8c0-0.4-0.2-0.9-0.4-1.2c-0.2-0.5-0.6-0.8-1.1-1c-0.4-0.1-0.9-0.1-1.3,0.2
	c-0.2,0.1-0.4,0.2-0.5,0.4c-0.1,0.2-0.2,0.4-0.2,0.6c0,0.2,0,0.4,0,0.6c0,0.2,0.1,0.5,0.2,0.9c0,0.2,0.1,0.3,0.1,0.4l0.1,0.4
	c0,0.2,0,0.3,0.1,0.4c0,0.1,0,0.3,0,0.4c0,0.1,0,0.3,0,0.4l-0.1,0.3c0,0.1-0.1,0.2-0.2,0.3c-0.1,0.1-0.2,0.2-0.3,0.3
	c-0.1,0.1-0.2,0.2-0.4,0.3c-0.5,0.3-1.1,0.4-1.7,0.2c-0.6-0.2-1.2-0.7-1.5-1.3c-0.3-0.6-0.5-1.2-0.5-1.8l-0.5-0.2V21l1.3-0.8
	l0.1,0.2c-0.2,0.2-0.4,0.5-0.6,0.7c-0.1,0.2-0.2,0.5-0.2,0.7c0,0.2,0,0.4,0.1,0.6c0.1,0.2,0.1,0.3,0.2,0.5c0.2,0.4,0.6,0.7,1,0.9
	c0.4,0.1,0.8,0.1,1.2-0.1c0.1-0.1,0.3-0.2,0.4-0.3c0.1-0.1,0.2-0.2,0.2-0.4c0-0.2,0-0.3,0-0.5c0-0.2,0-0.3-0.1-0.5
	c0-0.1-0.1-0.3-0.1-0.6s-0.1-0.6-0.2-0.8c0-0.2-0.1-0.5-0.1-0.7c0-0.2,0-0.5,0.1-0.7c0.1-0.2,0.2-0.4,0.3-0.6
	c0.2-0.2,0.4-0.4,0.6-0.5c0.5-0.3,1.1-0.4,1.7-0.2c0.7,0.3,1.2,0.8,1.5,1.5c0.4,0.6,0.6,1.3,0.5,2l0.5,0.2L46.5,21.6z M49.1,21.4
	l-1.7-3c-0.5-0.8-0.7-1.9-0.4-2.8c0.7-2,2.7-3.2,4.8-2.8c0.9,0.3,1.7,0.9,2.2,1.8l1.7,3h-0.1l-0.5-0.5L49,20.6L49.1,21.4L49.1,21.4z
	 M47.6,18.3l0.8,1.4l6.2-3.6l-0.8-1.4c-0.3-0.6-1-1-1.7-1.1c-0.9,0-1.9,0.2-2.6,0.7c-0.9,0.4-1.6,1.1-2,1.9
	C47.2,17,47.2,17.7,47.6,18.3L47.6,18.3z M35.6,22.6l-2.3-1.9l-1.1,0.5l-0.1-0.1l0.8-1l4.3,3.6l-0.1,0.1l-0.7-0.3L32,28.8l0.4,0.6
	l-0.1,0.1l-2-1.7l0.1-0.1l0.7,0.3L35.6,22.6z M43,16.1l-1,1.2l-0.2-0.1c0.1-0.3,0.2-0.6,0.3-0.9c0-0.3,0-0.5-0.1-0.8
	c-0.1-0.2-0.2-0.4-0.3-0.6c-0.1-0.2-0.3-0.3-0.4-0.4c-0.4-0.4-0.9-0.6-1.4-0.6c-0.5,0-0.9,0.2-1.2,0.6c-0.1,0.2-0.2,0.3-0.3,0.6
	c-0.1,0.2-0.1,0.4,0,0.6c0.1,0.2,0.1,0.4,0.3,0.6c0.1,0.2,0.3,0.4,0.5,0.7s0.2,0.3,0.2,0.4s0.1,0.2,0.2,0.4c0.1,0.1,0.1,0.2,0.2,0.4
	c0,0.1,0.1,0.2,0.2,0.3c0.1,0.1,0.1,0.2,0.1,0.4c0,0.1,0,0.2,0,0.3c0,0.1,0,0.3,0,0.4c0,0.1-0.1,0.2-0.2,0.4
	c-0.1,0.1-0.2,0.3-0.3,0.4c-0.4,0.5-0.9,0.7-1.5,0.8c-0.7,0-1.3-0.3-1.8-0.7c-0.5-0.4-0.9-0.9-1.1-1.6h-0.5v-0.2l1-1.2l0.2,0.1
	c-0.1,0.3-0.2,0.6-0.3,0.9c0,0.3,0,0.5,0.1,0.8c0.1,0.2,0.2,0.4,0.3,0.5c0.1,0.2,0.2,0.3,0.4,0.4c0.3,0.3,0.8,0.5,1.2,0.5
	c0.4,0,0.8-0.2,1.1-0.5c0.1-0.1,0.2-0.3,0.2-0.4c0-0.1,0.1-0.3,0.1-0.4c0-0.2-0.1-0.3-0.1-0.5l-0.2-0.5c-0.1-0.1-0.2-0.3-0.3-0.5
	s-0.3-0.5-0.4-0.7c-0.1-0.2-0.2-0.4-0.3-0.7c-0.1-0.2-0.2-0.5-0.2-0.7c0-0.2,0-0.5,0.1-0.7c0.1-0.3,0.2-0.5,0.4-0.7
	c0.4-0.5,0.9-0.8,1.5-0.8c0.8,0,1.5,0.3,2,0.9c0.5,0.4,1,1,1.2,1.6L43,16.1L43,16.1z M45.5,15l-2.7-2.3c-0.8-0.6-1.3-1.5-1.4-2.5
	c-0.1-1,0.3-2,1-2.8C43,6.6,44,6.1,45,6c1-0.1,2,0.3,2.7,0.9l2.7,2.2l-0.1,0.1l-0.7-0.3l-4.6,5.4l0.4,0.6L45.5,15z M42.9,12.6l1.2,1
	l4.6-5.5l-1.2-1c-0.5-0.5-1.3-0.7-2-0.4c-0.9,0.3-1.7,0.9-2.2,1.6c-0.7,0.7-1.1,1.5-1.2,2.5C42.1,11.5,42.4,12.1,42.9,12.6
	L42.9,12.6z M33.1,20.7l-2.8-1l-0.9,0.9l-0.2-0.1l0.5-1.3l5.2,1.9v0.1l-0.7-0.1l-2.4,6.6l0.6,0.4v0.1L30,27.4v-0.1h0.7L33.1,20.7z
	 M37.8,12l-0.5,1.4l-0.2-0.1c0-0.3,0-0.6-0.1-0.9c-0.1-0.3-0.2-0.5-0.4-0.7c-0.2-0.2-0.3-0.3-0.5-0.4c-0.2-0.1-0.4-0.2-0.6-0.3
	c-0.5-0.2-1-0.2-1.5-0.1c-0.4,0.2-0.8,0.5-0.9,1c-0.1,0.2-0.1,0.4-0.1,0.6c0,0.2,0.1,0.4,0.2,0.5c0.1,0.2,0.3,0.3,0.4,0.4
	c0.2,0.1,0.4,0.3,0.7,0.5l0.3,0.3c0.1,0.1,0.2,0.1,0.3,0.3c0.1,0.1,0.2,0.2,0.3,0.3c0.1,0.1,0.2,0.2,0.3,0.3
	c0.1,0.1,0.2,0.2,0.2,0.3c0.1,0.1,0.1,0.2,0.1,0.3c0.1,0.1,0.1,0.2,0.1,0.4c0,0.1,0,0.3,0,0.4c0,0.1-0.1,0.3-0.2,0.4
	c-0.2,0.6-0.6,1-1.1,1.3c-0.7,0.2-1.4,0.2-2-0.1c-0.6-0.2-1.1-0.6-1.5-1.1l-0.5,0.1l-0.1-0.1l0.5-1.4l0.2,0.1
	c-0.1,0.3-0.1,0.6,0,0.9c0.1,0.3,0.2,0.5,0.3,0.7c0.1,0.2,0.3,0.3,0.5,0.4c0.2,0.1,0.3,0.2,0.5,0.3c0.4,0.2,0.9,0.2,1.3,0
	c0.4-0.1,0.8-0.4,0.9-0.9c0.1-0.2,0.1-0.3,0.1-0.5c0-0.1,0-0.3-0.1-0.4c-0.1-0.1-0.2-0.3-0.3-0.4c-0.1-0.1-0.2-0.2-0.4-0.3
	c-0.1-0.1-0.3-0.2-0.5-0.4l-0.6-0.5c-0.2-0.2-0.4-0.3-0.5-0.5c-0.2-0.2-0.3-0.4-0.4-0.6c-0.1-0.2-0.1-0.4-0.2-0.7
	c0-0.3,0-0.5,0.1-0.8c0.2-0.6,0.6-1,1.2-1.3c0.7-0.2,1.5-0.2,2.1,0.1c0.7,0.2,1.2,0.6,1.7,1.1l0.5-0.1L37.8,12z M39.7,10.1L36.5,9
	c-0.9-0.3-1.7-1-2.2-1.9c-0.4-0.9-0.4-2,0-2.9c0.3-1,1-1.8,1.9-2.3c0.9-0.4,1.9-0.4,2.9,0L42.3,3v0.1L41.6,3l-2.4,6.7L39.7,10.1
	L39.7,10.1z M36.6,8.8L38,9.3l2.5-6.7L39,2c-0.7-0.3-1.4-0.2-2,0.3c-0.7,0.6-1.3,1.4-1.5,2.3c-0.4,0.9-0.5,1.8-0.3,2.7
	C35.3,8,35.9,8.5,36.6,8.8z M30.1,19.8h-3l-0.5,1.1h-0.2v-1.3H32v0.1l-0.7,0.2v7L32,27v0.1h-2.6V27l0.7-0.2L30.1,19.8z M31.6,10v1.5
	h-0.2c-0.1-0.3-0.2-0.6-0.4-0.9c-0.2-0.2-0.4-0.4-0.6-0.5c-0.2-0.1-0.4-0.2-0.6-0.2c-0.2,0-0.4-0.1-0.6-0.1c-0.5,0-1,0.1-1.4,0.4
	c-0.3,0.3-0.5,0.8-0.5,1.2c0,0.2,0,0.4,0.1,0.6c0.1,0.2,0.2,0.3,0.4,0.4c0.2,0.1,0.4,0.2,0.6,0.3c0.3,0.1,0.5,0.2,0.8,0.3l0.4,0.1
	l0.4,0.1l0.4,0.1l0.3,0.2c0.1,0.1,0.2,0.1,0.3,0.2l0.2,0.3c0.1,0.1,0.2,0.2,0.2,0.3c0,0.1,0.1,0.3,0.1,0.4c0,0.2,0,0.3,0,0.5
	c0,0.6-0.2,1.2-0.6,1.6c-0.5,0.4-1.2,0.6-1.9,0.6c-0.6,0-1.3-0.2-1.8-0.5l-0.5,0.3l-0.1-0.1v-1.5h0.2c0.1,0.3,0.2,0.6,0.4,0.9
	c0.1,0.2,0.3,0.4,0.5,0.5c0.2,0.1,0.4,0.2,0.6,0.2c0.2,0,0.4,0.1,0.5,0.1c0.5,0,0.9-0.1,1.3-0.4c0.3-0.3,0.5-0.7,0.5-1.1
	c0-0.2,0-0.3-0.1-0.5c0-0.1-0.1-0.2-0.2-0.3c-0.1-0.1-0.3-0.2-0.4-0.3c-0.2-0.1-0.3-0.1-0.5-0.2l-0.6-0.2L28.1,14
	c-0.2-0.1-0.5-0.2-0.7-0.3c-0.2-0.1-0.4-0.3-0.6-0.4c-0.2-0.2-0.3-0.4-0.4-0.6c-0.1-0.3-0.2-0.5-0.1-0.8c0-0.6,0.2-1.2,0.7-1.6
	c0.6-0.4,1.3-0.6,2-0.6c0.7,0,1.4,0.2,2,0.5l0.5-0.3L31.6,10z M32.7,7.6h-3.5c-1,0.1-2-0.3-2.7-1c-0.7-0.7-1.1-1.7-1-2.8
	c-0.1-1,0.3-2,1-2.8c0.7-0.7,1.7-1,2.7-1h3.5v0L32,0.3v7.1L32.7,7.6L32.7,7.6z M29.3,7.4h1.6V0.2h-1.6c-0.7,0-1.4,0.3-1.8,0.9
	c-0.5,0.8-0.7,1.7-0.7,2.7c-0.1,0.9,0.2,1.9,0.7,2.7C27.9,7.1,28.5,7.4,29.3,7.4z M26.9,19.9l-2.8,1L24,22.2l-0.2,0.1L23.4,21
	l5.2-1.9v0.1L28,19.6l2.4,6.6l0.7,0v0.1l-2.4,0.9V27l0.6-0.4L26.9,19.9z M25,10.2l0.5,1.4l-0.2,0.1c-0.2-0.3-0.4-0.5-0.6-0.7
	c-0.2-0.2-0.4-0.2-0.7-0.3c-0.2,0-0.4,0-0.7,0c-0.2,0-0.4,0.1-0.6,0.1c-0.5,0.1-0.9,0.5-1.2,0.9c-0.2,0.4-0.2,0.9-0.1,1.3
	c0.1,0.2,0.2,0.4,0.3,0.5c0.1,0.1,0.3,0.2,0.5,0.3c0.2,0,0.4,0.1,0.6,0.1h0.9h0.4h0.4H25h0.4c0.1,0,0.3,0,0.4,0.1l0.3,0.2
	c0.1,0.1,0.2,0.1,0.3,0.2c0.1,0.1,0.2,0.2,0.2,0.3c0.1,0.1,0.2,0.3,0.2,0.4c0.2,0.5,0.2,1.1-0.1,1.7c-0.3,0.6-0.9,1-1.6,1.2
	c-0.6,0.2-1.3,0.3-1.9,0.1L23,18.7l-0.1-0.1l-0.5-1.5l0.2-0.1c0.2,0.3,0.4,0.5,0.6,0.7c0.2,0.2,0.4,0.3,0.7,0.3c0.2,0,0.4,0,0.6,0
	c0.2,0,0.4-0.1,0.6-0.1c0.4-0.1,0.8-0.4,1-0.8c0.2-0.4,0.2-0.8,0.1-1.2c-0.1-0.2-0.1-0.3-0.3-0.4c-0.1-0.1-0.2-0.2-0.3-0.3
	c-0.1-0.1-0.3-0.1-0.5-0.1h-0.5h-0.6h-0.8c-0.2,0-0.5,0-0.7-0.1c-0.2,0-0.5-0.1-0.7-0.2c-0.4-0.2-0.8-0.6-1-1.1
	c-0.2-0.6-0.2-1.2,0.1-1.7c0.4-0.6,1-1.1,1.7-1.3c0.6-0.3,1.3-0.3,2-0.2l0.3-0.5L25,10.2z M25.2,7.6L22,8.8c-0.9,0.4-1.9,0.4-2.9,0
	c-0.9-0.5-1.6-1.3-1.9-2.3c-0.4-1-0.4-2,0-3c0.4-0.9,1.2-1.6,2.2-1.9l3.3-1.2v0.1L22,0.9l2.5,6.7L25.2,7.6L25.2,7.6z M21.9,8.6
	L23.4,8L21,1.3l-1.5,0.5c-0.7,0.2-1.2,0.8-1.4,1.5c-0.2,0.9-0.1,1.9,0.3,2.7c0.3,0.9,0.8,1.7,1.5,2.3C20.5,8.7,21.3,8.8,21.9,8.6
	L21.9,8.6z M24,21.2l-2.3,1.9l0.3,1.2l-0.1,0.1l-0.9-1l4.3-3.6l0,0.1l-0.4,0.6l4.5,5.4l0.7-0.3l0.1,0.1l-2,1.7l-0.1-0.1l0.4-0.6
	L24,21.2z M18.9,12.7l1,1.2L19.7,14c-0.2-0.2-0.5-0.3-0.8-0.4c-0.3-0.1-0.5-0.1-0.8,0c-0.2,0.1-0.4,0.1-0.6,0.2
	c-0.2,0.1-0.4,0.2-0.5,0.4c-0.4,0.3-0.7,0.7-0.8,1.2c-0.1,0.5,0.1,0.9,0.4,1.3c0.1,0.2,0.3,0.3,0.5,0.4c0.2,0.1,0.4,0.1,0.6,0.1
	c0.2,0,0.4-0.1,0.6-0.1l0.8-0.3l0.4-0.2l0.4-0.1c0.1-0.1,0.3-0.1,0.4-0.1l0.4-0.1c0.1,0,0.3,0,0.4,0l0.3,0c0.1,0,0.2,0.1,0.4,0.1
	c0.1,0.1,0.2,0.1,0.3,0.2c0.1,0.1,0.2,0.2,0.3,0.3c0.4,0.4,0.6,1,0.5,1.6c-0.1,0.7-0.5,1.3-1,1.7c-0.5,0.4-1.1,0.7-1.7,0.8l-0.1,0.5
	h-0.1l-1-1.2l0.1-0.1c0.2,0.2,0.5,0.3,0.8,0.4c0.2,0.1,0.5,0.1,0.8,0c0.2,0,0.4-0.1,0.6-0.2c0.2-0.1,0.3-0.2,0.5-0.3
	c0.4-0.3,0.6-0.7,0.7-1.1c0.1-0.4-0.1-0.8-0.4-1.1c-0.1-0.1-0.2-0.2-0.4-0.3c-0.1-0.1-0.2-0.1-0.4-0.1c-0.2,0-0.3,0-0.5,0.1
	c-0.2,0-0.4,0.1-0.5,0.1l-0.6,0.2l-0.8,0.3c-0.2,0.1-0.5,0.2-0.7,0.2c-0.2,0.1-0.5,0.1-0.7,0.1c-0.2,0-0.4-0.1-0.6-0.2
	c-0.2-0.1-0.5-0.3-0.6-0.5c-0.4-0.4-0.6-1.1-0.5-1.7c0.2-0.7,0.6-1.4,1.2-1.8c0.5-0.5,1.1-0.8,1.8-0.9L18.9,12.7L18.9,12.7z
	 M18.2,10.2l-2.7,2.2c-0.7,0.7-1.7,1-2.7,0.9c-1-0.1-1.9-0.7-2.6-1.5c-0.7-0.8-1.1-1.8-1-2.8c0.1-1,0.6-1.9,1.4-2.5l2.7-2.2l0.1,0.1
	L13,5l4.5,5.4L18.2,10.2L18.2,10.2z M15.4,12.2l1.2-1l-4.6-5.5l-1.2,1c-0.6,0.4-0.9,1.1-0.8,1.9c0.1,0.9,0.6,1.8,1.2,2.4
	c0.6,0.8,1.3,1.3,2.2,1.6C14.2,12.8,14.9,12.7,15.4,12.2L15.4,12.2z M21.7,23.3l-1.5,2.6l0.7,1l-0.1,0.1l-1.1-0.7l2.8-4.8h0.1
	l-0.2,0.7l6.1,3.5l0.5-0.5l0.1,0.1l-1.3,2.2l-0.1,0l0.2-0.7L21.7,23.3z M14,17.1l1.3,0.8l-0.1,0.2c-0.3-0.1-0.6-0.1-0.9-0.1
	c-0.3,0-0.5,0.1-0.8,0.3c-0.2,0.1-0.4,0.3-0.5,0.4c-0.1,0.2-0.3,0.3-0.4,0.5c-0.3,0.4-0.4,0.9-0.3,1.4c0.1,0.5,0.4,0.8,0.8,1
	c0.2,0.1,0.4,0.2,0.6,0.2c0.2,0,0.4,0,0.6-0.1c0.2-0.1,0.4-0.2,0.5-0.4c0.1-0.1,0.4-0.3,0.6-0.6l0.3-0.3l0.3-0.3l0.3-0.3l0.3-0.2
	c0.1-0.1,0.2-0.1,0.3-0.2l0.3-0.1c0.1,0,0.2,0,0.4,0l0.4,0.1c0.1,0,0.3,0.1,0.4,0.2c0.5,0.3,0.9,0.8,1,1.3c0.1,0.6,0,1.3-0.4,1.9
	c-0.3,0.6-0.8,1-1.4,1.3v0.5h-0.1l-1.3-0.8l0.1-0.2c0.3,0.1,0.6,0.1,0.9,0.1c0.3,0,0.5-0.1,0.7-0.2c0.2-0.1,0.3-0.2,0.5-0.4
	c0.1-0.1,0.2-0.3,0.3-0.5c0.2-0.4,0.3-0.8,0.3-1.3c-0.1-0.4-0.3-0.8-0.7-1c-0.1-0.1-0.3-0.1-0.5-0.2c-0.1,0-0.3,0-0.4,0
	c-0.2,0-0.3,0.1-0.4,0.2c-0.1,0.1-0.3,0.2-0.4,0.3l-0.5,0.4c-0.3,0.2-0.4,0.4-0.6,0.5c-0.2,0.2-0.4,0.3-0.6,0.4
	c-0.2,0.1-0.4,0.2-0.7,0.3c-0.2,0-0.5,0-0.7,0c-0.3,0-0.5-0.1-0.8-0.3c-0.5-0.3-0.9-0.8-1-1.4c-0.1-0.7,0.1-1.5,0.5-2.1
	c0.3-0.6,0.8-1.1,1.4-1.5L14,17.1L14,17.1z M12.5,15l-1.7,3c-0.5,0.9-1.3,1.5-2.2,1.8c-1,0.2-2,0.1-2.9-0.5C4.7,18.8,4,18,3.8,17
	c-0.2-1-0.1-2,0.4-2.8l1.7-3H6l-0.2,0.7l6.1,3.5l0.5-0.5L12.5,15z M10.6,17.8l0.8-1.4l-6.2-3.6l-0.8,1.4c-0.4,0.6-0.4,1.4-0.1,2
	c0.4,0.8,1.1,1.5,2,1.9C7.1,18.7,8,19,8.9,18.9C9.6,18.9,10.3,18.5,10.6,17.8z M20.3,26.1l-0.5,3l1,0.7V30l-1.3-0.2l1-5.5h0.1l0,0.7
	l6.9,1.2l0.3-0.7H28l-0.5,2.5h-0.1l-0.1-0.7L20.3,26.1z M11,23l1.5,0.3v0.2c-0.3,0-0.6,0.1-0.9,0.2c-0.2,0.1-0.5,0.3-0.6,0.5
	c-0.1,0.2-0.2,0.4-0.3,0.6c-0.1,0.2-0.1,0.4-0.2,0.6c-0.1,0.5-0.1,1,0.2,1.5c0.2,0.4,0.7,0.7,1.1,0.7c0.2,0,0.4,0,0.6,0
	c0.2-0.1,0.4-0.2,0.5-0.3c0.1-0.2,0.3-0.3,0.4-0.5c0.1-0.2,0.2-0.4,0.4-0.8l0.2-0.4l0.2-0.4l0.2-0.4l0.2-0.3
	c0.1-0.1,0.2-0.2,0.3-0.3l0.3-0.2c0.1-0.1,0.2-0.1,0.3-0.1h0.4c0.2,0,0.3,0,0.5,0c0.6,0.1,1.1,0.4,1.4,0.9c0.3,0.6,0.4,1.3,0.3,1.9
	c-0.1,0.6-0.5,1.2-0.9,1.7l0.2,0.5L17.1,29l-1.5-0.3v-0.2c0.3,0,0.6-0.1,0.9-0.2c0.2-0.1,0.4-0.3,0.6-0.5c0.1-0.2,0.2-0.3,0.3-0.5
	c0.1-0.2,0.1-0.4,0.2-0.5c0.1-0.4,0-0.9-0.2-1.3c-0.2-0.4-0.6-0.6-1-0.7c-0.2,0-0.3,0-0.5,0c-0.1,0-0.3,0.1-0.4,0.1
	c-0.1,0.1-0.2,0.2-0.3,0.4c-0.1,0.2-0.2,0.3-0.3,0.4l-0.3,0.6c-0.2,0.3-0.3,0.5-0.4,0.7s-0.2,0.4-0.4,0.6c-0.1,0.2-0.3,0.4-0.5,0.5
	c-0.2,0.1-0.4,0.2-0.6,0.3c-0.3,0.1-0.5,0.1-0.8,0c-0.6-0.1-1.1-0.4-1.4-1c-0.3-0.7-0.4-1.4-0.2-2.1c0.1-0.7,0.4-1.3,0.8-1.9
	L10.8,23H11z M8.8,21.4l-0.6,3.4c-0.1,1-0.7,1.9-1.5,2.5c-0.9,0.6-1.9,0.8-2.9,0.5c-1-0.1-1.9-0.7-2.6-1.5c-0.6-0.8-0.8-1.8-0.5-2.8
	l0.6-3.4h0.1l0,0.7l7,1.2L8.8,21.4L8.8,21.4z M8,24.8l0.3-1.6L1.2,22l-0.3,1.5C0.8,24.2,1,25,1.5,25.5c0.7,0.6,1.6,1,2.5,1.1
	c0.9,0.2,1.9,0.2,2.8-0.2C7.4,26.1,7.9,25.5,8,24.8z M20,29.3l0.5,3l1.2,0.3v0.2L20.4,33l-1-5.5h0.1l0.3,0.7l6.9-1.2l0.1-0.7h0.1
	l0.5,2.5h-0.1L26.9,28L20,29.3z M10,29.5l1.5-0.3v0.2c-0.3,0.1-0.6,0.3-0.8,0.5c-0.2,0.2-0.3,0.4-0.4,0.7c-0.1,0.2-0.1,0.4-0.1,0.7
	c0,0.2,0,0.4,0.1,0.6c0.1,0.5,0.3,1,0.7,1.3c0.4,0.3,0.8,0.4,1.3,0.3c0.2,0,0.4-0.1,0.6-0.2c0.2-0.1,0.3-0.3,0.4-0.5
	c0.1-0.2,0.1-0.4,0.2-0.6c0-0.2,0.1-0.5,0.1-0.9c0-0.2,0-0.3,0.1-0.4s0-0.2,0.1-0.4c0-0.1,0-0.3,0.1-0.4c0-0.1,0.1-0.2,0.1-0.4
	c0-0.1,0.1-0.2,0.2-0.4c0.1-0.1,0.1-0.2,0.2-0.3c0.1-0.1,0.2-0.2,0.3-0.3l0.4-0.2c0.1-0.1,0.3-0.1,0.4-0.1c0.6-0.1,1.2,0,1.6,0.4
	c0.5,0.4,0.8,1.1,0.9,1.7c0.1,0.6,0.1,1.3-0.2,1.9l0.4,0.4l-0.1,0.1l-1.5,0.3v-0.2c0.3-0.1,0.6-0.3,0.8-0.5c0.2-0.2,0.3-0.4,0.4-0.6
	c0.1-0.2,0.1-0.4,0.1-0.6c0-0.2,0-0.4,0-0.6c-0.1-0.5-0.3-0.9-0.7-1.2c-0.3-0.3-0.8-0.4-1.2-0.3c-0.2,0-0.3,0.1-0.5,0.2
	c-0.1,0.1-0.2,0.2-0.3,0.3c-0.1,0.1-0.1,0.3-0.2,0.4c0,0.2-0.1,0.3-0.1,0.5l-0.1,0.6c0,0.3-0.1,0.6-0.1,0.8c0,0.2-0.1,0.5-0.2,0.7
	c-0.1,0.2-0.2,0.5-0.3,0.7c-0.3,0.4-0.8,0.7-1.3,0.7c-0.6,0.1-1.2,0-1.7-0.4c-0.6-0.5-0.9-1.2-1-1.9c-0.1-0.7-0.1-1.4,0.2-2
	l-0.4-0.4L10,29.5z M7.4,28.8l0.6,3.4c0.2,1,0,2-0.5,2.8C6.9,35.8,6,36.3,5,36.5c-1,0.2-2.1,0.1-2.9-0.5c-0.8-0.6-1.4-1.5-1.5-2.5
	L0,30.1h0.1l0.3,0.7l7-1.2L7.4,28.8L7.4,28.8z M7.8,32.2l-0.2-1.6l-7.1,1.2l0.3,1.6c0.1,0.7,0.5,1.3,1.2,1.6
	c0.9,0.3,1.8,0.4,2.7,0.2c0.9-0.1,1.8-0.5,2.5-1.1C7.8,33.6,8,32.9,7.8,32.2L7.8,32.2z M20.6,32.3l1.5,2.6l1.2-0.1l0.1,0.2l-1.1,0.7
	l-2.8-4.8h0.1l0.5,0.5l6.1-3.5L26,27.1l0.1-0.1l1.3,2.2l-0.1,0.1l-0.5-0.5L20.6,32.3z M11.4,35.9l1.3-0.8l0.1,0.2
	c-0.2,0.2-0.4,0.5-0.6,0.8c-0.1,0.2-0.2,0.5-0.1,0.8c0,0.2,0,0.4,0.1,0.7c0.1,0.2,0.2,0.4,0.3,0.6c0.2,0.5,0.6,0.8,1.1,1
	c0.4,0.2,0.9,0.1,1.3-0.2c0.2-0.1,0.3-0.2,0.5-0.4c0.1-0.2,0.2-0.4,0.2-0.6c0-0.2,0-0.4,0-0.6c0-0.2-0.1-0.5-0.2-0.8l-0.1-0.4
	l-0.1-0.4c0-0.1-0.1-0.3-0.1-0.4c0-0.1,0-0.2,0-0.4c0-0.1,0-0.2,0-0.4c0-0.1,0.1-0.2,0.1-0.3c0-0.1,0.1-0.2,0.2-0.3l0.3-0.3
	c0.1-0.1,0.2-0.2,0.4-0.3c0.5-0.3,1.1-0.4,1.7-0.2c0.6,0.2,1.2,0.7,1.5,1.3c0.3,0.6,0.5,1.2,0.5,1.8l0.5,0.2v0.2l-1.3,0.8l-0.1-0.2
	c0.2-0.2,0.4-0.5,0.6-0.7c0.1-0.2,0.2-0.5,0.2-0.7c0-0.2,0-0.4-0.1-0.6c0-0.2-0.1-0.4-0.2-0.5c-0.2-0.4-0.6-0.7-1-0.9
	c-0.4-0.1-0.8-0.1-1.2,0.1c-0.3,0.2-0.5,0.4-0.6,0.7c0,0.2,0,0.3,0,0.5c0,0.2,0,0.3,0.1,0.5c0,0.1,0.1,0.3,0.1,0.6s0.1,0.6,0.2,0.8
	c0,0.2,0.1,0.5,0.1,0.7c0,0.2,0,0.5-0.1,0.7c-0.1,0.2-0.2,0.4-0.3,0.6c-0.2,0.2-0.4,0.4-0.6,0.5c-0.5,0.3-1.2,0.4-1.7,0.2
	c-0.7-0.3-1.2-0.8-1.6-1.5c-0.4-0.6-0.5-1.3-0.5-2L11.4,35.9L11.4,35.9z M8.7,36.1l1.7,3C11,40,11.2,41,11,42c-0.3,1-1,1.8-1.9,2.3
	c-0.9,0.6-1.9,0.7-2.9,0.5c-1-0.3-1.8-0.9-2.2-1.8l-1.7-3h0.1l0.5,0.5l6.1-3.5l-0.2-0.7V36.1z M10.3,39.2l-0.8-1.4l-6.2,3.6l0.8,1.4
	c0.3,0.6,1,1,1.7,1.1c0.9,0,1.9-0.2,2.6-0.8c0.9-0.4,1.6-1.1,2-1.9C10.7,40.6,10.7,39.8,10.3,39.2L10.3,39.2z M22.3,35l2.3,1.9
	l1.1-0.5l0.1,0.1l-0.9,1l-4.3-3.6l0-0.1l0.7,0.3l4.6-5.4l-0.4-0.6l0.1-0.1l2,1.7l-0.1,0.1l-0.7-0.3L22.3,35z M14.8,41.5l1-1.2
	l0.1,0.1c-0.1,0.3-0.2,0.6-0.3,0.9c0,0.3,0,0.5,0.1,0.8c0.1,0.2,0.2,0.4,0.3,0.6c0.1,0.2,0.3,0.3,0.4,0.5c0.4,0.3,0.9,0.6,1.4,0.6
	c0.5,0,0.9-0.2,1.2-0.6c0.1-0.2,0.2-0.3,0.3-0.5c0.1-0.2,0.1-0.4,0-0.6c-0.1-0.2-0.1-0.4-0.3-0.6c-0.1-0.2-0.3-0.4-0.5-0.7l-0.2-0.4
	L18.4,40l-0.2-0.4c0-0.1-0.1-0.2-0.1-0.3c-0.1-0.1-0.1-0.2-0.1-0.4c0-0.1,0-0.2,0-0.3c0-0.1,0-0.3,0-0.4c0-0.1,0.1-0.2,0.1-0.4
	c0.1-0.1,0.2-0.3,0.3-0.4c0.4-0.5,0.9-0.7,1.5-0.8c0.7,0,1.3,0.3,1.8,0.7c0.5,0.4,0.9,1,1.1,1.6l0.6,0v0.2l-1,1.2l-0.1-0.1
	c0.1-0.3,0.2-0.6,0.3-0.9c0-0.3,0-0.5-0.1-0.8c-0.1-0.2-0.2-0.4-0.3-0.6c-0.1-0.2-0.2-0.3-0.4-0.4c-0.3-0.3-0.8-0.5-1.2-0.5
	c-0.4,0-0.8,0.2-1.1,0.5c-0.1,0.1-0.2,0.3-0.2,0.4c0,0.1-0.1,0.3-0.1,0.4c0,0.2,0.1,0.3,0.1,0.5c0.1,0.2,0.1,0.3,0.2,0.5
	c0.1,0.1,0.2,0.3,0.3,0.5l0.4,0.7c0.1,0.2,0.2,0.4,0.3,0.7c0.1,0.2,0.2,0.5,0.2,0.7c0,0.5-0.2,1-0.5,1.4c-0.4,0.5-0.9,0.8-1.5,0.8
	c-0.7,0-1.5-0.3-2-0.8c-0.5-0.4-0.9-1-1.2-1.7h-0.6L14.8,41.5z M12.4,42.6l2.7,2.2c0.8,0.6,1.3,1.5,1.4,2.5c0.1,1-0.3,2-1,2.8
	c-0.6,0.8-1.5,1.3-2.5,1.5c-1,0.1-2-0.3-2.7-0.9l-2.7-2.2v-0.1l0.7,0.3l4.6-5.4L12.4,42.6L12.4,42.6z M15,45l-1.2-1l-4.6,5.5l1.2,1
	c0.5,0.5,1.3,0.7,2,0.5c0.9-0.3,1.7-0.8,2.2-1.6c0.6-0.7,1.1-1.5,1.2-2.5C15.9,46.1,15.6,45.4,15,45z M24.8,36.9l2.8,1l0.9-0.9h0.2
	l-0.5,1.3L23,36.4v-0.1l0.7,0.1l2.4-6.6l-0.6-0.4v-0.1l2.4,0.9v0.1l-0.7,0L24.8,36.9z M20.1,45.5l0.5-1.5l0.2,0.1
	c0,0.3,0,0.6,0.1,0.9c0.1,0.3,0.2,0.5,0.4,0.7c0.2,0.2,0.3,0.3,0.5,0.4c0.2,0.1,0.4,0.2,0.6,0.3c0.5,0.2,1,0.2,1.5,0.1
	c0.4-0.2,0.8-0.5,0.9-1c0.1-0.2,0.1-0.4,0.1-0.6c0-0.2-0.1-0.4-0.2-0.5c-0.1-0.2-0.3-0.3-0.4-0.5c-0.1-0.1-0.4-0.3-0.7-0.5l-0.3-0.3
	l-0.3-0.3l-0.3-0.3l-0.3-0.3c-0.1-0.1-0.2-0.2-0.2-0.3l-0.1-0.3c0-0.1-0.1-0.2-0.1-0.4c0-0.1,0-0.3,0-0.4c0-0.2,0.1-0.3,0.1-0.5
	c0.2-0.6,0.6-1,1.1-1.2c0.7-0.2,1.4-0.2,2,0.1c0.6,0.2,1.1,0.6,1.5,1.1l0.5-0.1l0.1,0.1L26.6,42l-0.2-0.1c0.1-0.3,0.1-0.6,0-0.9
	c-0.1-0.2-0.2-0.5-0.3-0.7c-0.1-0.2-0.3-0.3-0.5-0.4c-0.2-0.1-0.3-0.2-0.5-0.3c-0.4-0.2-0.9-0.2-1.3,0c-0.4,0.2-0.7,0.5-0.8,0.9
	c-0.1,0.2-0.1,0.3-0.1,0.5c0,0.1,0,0.3,0.1,0.4c0.1,0.1,0.2,0.3,0.3,0.4c0.1,0.2,0.3,0.3,0.4,0.3l0.5,0.4c0.3,0.2,0.5,0.4,0.6,0.5
	c0.2,0.2,0.4,0.3,0.5,0.5c0.2,0.2,0.3,0.4,0.4,0.6c0.1,0.2,0.1,0.4,0.1,0.7c0,0.9-0.5,1.7-1.3,2.1c-0.7,0.2-1.5,0.2-2.1-0.1
	c-0.7-0.2-1.2-0.6-1.7-1.2l-0.5,0.1L20.1,45.5z M18.2,47.4l3.3,1.2c0.9,0.3,1.7,1,2.2,1.9c0.7,2-0.1,4.2-1.9,5.2
	c-0.9,0.4-1.9,0.4-2.9,0l-3.3-1.2v-0.1l0.7,0.1l2.4-6.7L18.2,47.4L18.2,47.4z M21.4,48.8l-1.5-0.5L17.5,55l1.5,0.5
	c0.7,0.3,1.4,0.2,2-0.3c0.7-0.6,1.3-1.4,1.5-2.3c0.4-0.9,0.5-1.8,0.3-2.7C22.6,49.6,22.1,49,21.4,48.8L21.4,48.8z"/>
<path class="st1" d="M70.6,13.6h5.3l0.9-2h0.3v2.3h-9.9v-0.1l1.3-0.3V1l-1.3-0.4V0.5h4.6v0.2L70.6,1V13.6z"/>
<path class="st1" d="M85.9,0.5l5.4,12.9l1.2,0.4v0.2h-4.6v-0.2l1.3-0.4l-1.6-3.9h-5.8l-1.7,3.9l1.7,0.4v0.2h-3.4v-0.2l1.3-0.4
	l5.6-12.9H85.9z M84.8,2.6L82,9.1h5.5L84.8,2.6z"/>
<path class="st1" d="M93.1,0.5h6.2c1.2-0.1,2.3,0.3,3.3,0.9c0.8,0.5,1.3,1.5,1.3,2.5c0,0.8-0.3,1.5-0.8,2.1c-0.6,0.6-1.4,1-2.3,1.1
	c1,0.1,1.9,0.5,2.7,1.2c0.6,0.6,1,1.4,1,2.2c0,1-0.5,2-1.4,2.6c-1.1,0.7-2.4,1-3.7,0.9h-6.2v-0.1l1.3-0.3V1l-1.3-0.3V0.5z M98.8,0.9
	h-2.4v6h2.4c0.8,0,1.5-0.2,2.1-0.8c0.6-0.6,0.8-1.4,0.8-2.2c0-0.8-0.2-1.6-0.8-2.2C100.4,1.1,99.6,0.8,98.8,0.9z M96.4,13.6h2.4
	c0.9,0,1.8-0.2,2.5-0.8c0.6-0.6,1-1.5,0.9-2.3c0.1-0.9-0.3-1.7-0.9-2.3c-0.7-0.6-1.6-0.9-2.5-0.8h-2.4V13.6z"/>
<path class="st1" d="M105.9,7.2c-0.1-1.8,0.5-3.6,1.8-5c2.6-2.5,6.7-2.5,9.4,0c1.2,1.4,1.9,3.2,1.8,5c0.1,1.8-0.6,3.6-1.8,5
	c-2.6,2.5-6.7,2.5-9.4,0C106.5,10.9,105.8,9.1,105.9,7.2z M108.1,7.2c-0.1,1.7,0.3,3.4,1.2,4.8c0.7,1.1,1.9,1.7,3.1,1.7
	c1.3,0,2.4-0.6,3.1-1.7c0.9-1.5,1.3-3.1,1.2-4.8c0.1-1.7-0.3-3.4-1.2-4.9c-0.7-1.1-1.8-1.7-3.1-1.7c-1.3,0-2.4,0.6-3.1,1.7
	C108.4,3.8,108,5.5,108.1,7.2L108.1,7.2z"/>
<path class="st1" d="M130.6,4.2c0,0.9-0.3,1.7-0.9,2.3c-0.7,0.7-1.6,1.1-2.5,1.1c0.6,0.3,1.1,0.8,1.3,1.4l2.5,4.4l1.1,0.3v0.2h-3
	l-3.5-6.2h-2.2v5.6l1.3,0.4v0.2h-4.6v-0.2l1.3-0.4V1l-1.2-0.3V0.5h5.8c1.2-0.1,2.4,0.3,3.5,1C130.2,2.1,130.7,3.1,130.6,4.2z
	 M125.6,0.9h-2.2v6.5h2.2c0.8,0,1.5-0.3,2.1-0.8c0.6-0.7,0.9-1.5,0.8-2.4c0.1-0.9-0.2-1.7-0.8-2.4C127.2,1.2,126.4,0.8,125.6,0.9
	L125.6,0.9z"/>
<path class="st1" d="M140.1,0.5l5.4,12.9l1.2,0.4v0.2h-4.6v-0.2l1.3-0.4l-1.6-3.9H136l-1.7,3.9l1.7,0.4v0.2h-3.4v-0.2l1.3-0.4
	l5.6-12.9H140.1z M139,2.6l-2.8,6.5h5.4L139,2.6z"/>
<path class="st1" d="M156.6,0.9H153v12.5l1.3,0.4v0.2h-4.6v-0.2l1.3-0.4V0.9h-3.6l-0.9,2h-0.3V0.5h11.7v2.4h-0.3L156.6,0.9z"/>
<path class="st1" d="M159,7.2c-0.1-1.8,0.6-3.6,1.8-5c2.6-2.5,6.7-2.5,9.4,0c1.2,1.4,1.9,3.2,1.8,5c0.1,1.8-0.6,3.6-1.8,5
	c-2.6,2.5-6.7,2.5-9.4,0C159.6,10.9,158.9,9.1,159,7.2z M161.2,7.2c-0.1,1.7,0.3,3.4,1.2,4.8c1.1,1.7,3.4,2.2,5.1,1.1
	c0.4-0.3,0.8-0.7,1.1-1.1c0.9-1.5,1.3-3.1,1.2-4.8c0.1-1.7-0.3-3.4-1.2-4.9c-1.1-1.7-3.4-2.2-5.1-1.1c-0.4,0.3-0.8,0.7-1.1,1.1
	C161.5,3.8,161,5.5,161.2,7.2L161.2,7.2z"/>
<path class="st1" d="M183.7,4.2c0,0.9-0.3,1.7-0.9,2.3c-0.7,0.7-1.6,1.1-2.5,1.1c0.6,0.3,1,0.8,1.3,1.4l2.5,4.4l1.1,0.3v0.2h-3
	l-3.5-6.2h-2.2v5.7l1.3,0.4v0.2h-4.6v-0.2l1.3-0.4V1l-1.2-0.3V0.5h5.8c1.2-0.1,2.4,0.3,3.5,1C183.2,2.1,183.7,3.1,183.7,4.2z
	 M178.7,0.9h-2.2v6.5h2.2c0.8,0,1.6-0.3,2.1-0.8c0.6-0.7,0.9-1.5,0.8-2.4c0.1-0.9-0.2-1.7-0.8-2.4C180.3,1.1,179.5,0.8,178.7,0.9
	L178.7,0.9z"/>
<path class="st1" d="M187.5,1l4.2,6.6l4.3-6.6l-1.6-0.4V0.5h3.4v0.2L196.3,1l-4.5,7.1v5.3l1.2,0.4v0.2h-4.5v-0.2l1.3-0.4V8.1l-4.5-7
	l-1.2-0.4V0.5h4.6v0.2L187.5,1z"/>
<path class="st1" d="M68,29.6v-2.7h0.3c0.1,0.5,0.3,1.1,0.7,1.5c0.3,0.4,0.6,0.7,1.1,0.9c0.7,0.4,1.5,0.5,2.2,0.5
	c0.9,0.1,1.8-0.2,2.5-0.8c0.9-0.8,1.2-2.1,0.7-3.3c-0.2-0.3-0.4-0.6-0.7-0.8c-0.3-0.2-0.7-0.4-1-0.5c-0.3-0.1-0.8-0.3-1.5-0.5
	l-0.7-0.2l-0.7-0.2c-0.2-0.1-0.5-0.2-0.7-0.3l-0.6-0.3c-0.2-0.1-0.4-0.2-0.6-0.4l-0.4-0.5c-0.2-0.2-0.3-0.3-0.4-0.5
	c-0.1-0.2-0.2-0.4-0.2-0.7c-0.3-1.3,0.1-2.6,1-3.6c0.9-0.8,2.1-1.1,3.3-1.1c1.1,0,2.3,0.3,3.2,0.9l0.8-0.6l0.2,0.2v2.7h-0.3
	c-0.1-0.5-0.3-1-0.6-1.5c-0.3-0.4-0.6-0.7-1-0.9c-0.3-0.2-0.7-0.3-1-0.4c-0.3-0.1-0.7-0.1-1-0.1c-0.8,0-1.6,0.2-2.2,0.8
	c-0.6,0.5-0.9,1.2-0.8,2c0,0.5,0.2,1.1,0.5,1.5c0.2,0.2,0.4,0.4,0.7,0.5c0.3,0.2,0.6,0.3,0.8,0.4l1.1,0.3c0.6,0.2,1,0.3,1.4,0.5
	c0.4,0.2,0.8,0.3,1.2,0.5c0.4,0.2,0.7,0.4,1.1,0.8c0.6,0.7,0.9,1.5,0.9,2.4c0,1.1-0.4,2.1-1.2,2.8c-1,0.8-2.3,1.2-3.6,1.1
	c-1.2,0-2.4-0.3-3.5-0.9l-0.8,0.6L68,29.6z"/>
<path class="st1" d="M78.9,23.3c-0.1-1.8,0.5-3.6,1.8-5c2.6-2.5,6.7-2.5,9.4,0c1.2,1.4,1.9,3.2,1.8,5c0.1,1.8-0.6,3.6-1.8,5
	c-2.6,2.5-6.7,2.5-9.4,0C79.4,26.9,78.8,25.1,78.9,23.3z M81,23.3c-0.1,1.7,0.3,3.4,1.2,4.8c1.1,1.7,3.4,2.2,5.1,1.1
	c0.4-0.3,0.8-0.6,1.1-1.1c0.9-1.5,1.3-3.1,1.2-4.8c0.1-1.7-0.3-3.4-1.2-4.9c-1.1-1.7-3.4-2.2-5.1-1.1c-0.4,0.3-0.8,0.7-1.1,1.1
	C81.4,19.9,80.9,21.6,81,23.3L81,23.3z"/>
<path class="st1" d="M100.7,23.3h-4.3v6.2l1.8,0.4V30h-5.2v-0.2l1.3-0.4V17l-1.3-0.3v-0.2h10.1v2.4h-0.3L102,17h-5.6v5.9h4.3
	l0.4-1.5h0.3v3.4h-0.3L100.7,23.3z"/>
<path class="st1" d="M115.3,17h-3.6v12.5l1.3,0.4V30h-4.6v-0.2l1.3-0.4V17H106l-0.9,2h-0.3v-2.4h11.7v2.4h-0.3L115.3,17z"/>
<path class="st1" d="M132.6,30l-4.1-9.8l-4,9.8h-0.6l-5.4-12.9l-1.2-0.4v-0.2h4.6v0.2l-1.3,0.4l4.4,10.8l3.3-8.1l-1.1-2.6l-1.2-0.4
	v-0.2h4.6v0.2l-1.3,0.4l4.4,10.8l4.3-10.8l-1.7-0.4v-0.2h3.4v0.2l-1.3,0.4L133.2,30H132.6z"/>
<path class="st1" d="M144.4,16.6l5.4,12.9l1.2,0.4V30h-4.6v-0.2l1.3-0.4l-1.6-3.9h-5.8l-1.7,3.9l1.7,0.4V30h-3.4v-0.2l1.3-0.4
	l5.6-12.9L144.4,16.6z M143.2,18.7l-2.8,6.5h5.5L143.2,18.7z"/>
<path class="st1" d="M162,20.2c0,0.9-0.3,1.7-0.9,2.4c-0.7,0.7-1.6,1.1-2.5,1.1c0.6,0.3,1.1,0.8,1.3,1.4l2.5,4.4l1.1,0.3V30h-3
	l-3.5-6.2h-2.2v5.6l1.3,0.4V30h-4.5v-0.2l1.3-0.4V17l-1.3-0.3v-0.2h5.8c1.2-0.1,2.4,0.3,3.5,1C161.6,18.2,162.1,19.2,162,20.2z
	 M157,17h-2.2v6.5h2.2c0.8,0,1.5-0.3,2.1-0.8c0.6-0.7,0.9-1.5,0.8-2.4c0.1-0.9-0.2-1.7-0.8-2.4C158.6,17.3,157.8,17,157,17z"/>
<path class="st1" d="M167.5,29.6h6l0.9-2h0.3V30h-10.5v-0.2l1.3-0.3V17l-1.3-0.3v-0.2h10.3v2.4h-0.3l-0.9-2h-5.8v5.9h4.7l0.4-1.5
	h0.3v3.4h-0.3l-0.4-1.5h-4.7V29.6z"/>
<path class="st1" d="M67.3,32.7h6.1c1.8-0.1,3.5,0.6,4.7,1.8c1.3,1.3,1.9,3.1,1.8,4.9c0.1,1.8-0.6,3.6-1.8,4.9
	c-1.3,1.2-3,1.9-4.7,1.8h-6.2V46l1.3-0.3V33.1l-1.3-0.3V32.7z M73.4,33h-2.8v12.7h2.8c1.3,0,2.5-0.6,3.2-1.6c0.9-1.4,1.3-3,1.2-4.7
	c0.1-1.7-0.3-3.3-1.2-4.7C75.9,33.6,74.7,33,73.4,33z"/>
<path class="st1" d="M84.6,45.7h6l0.9-2h0.3v2.3H81.2V46l1.3-0.3V33.1l-1.3-0.3v-0.2h10.3V35h-0.3l-0.9-2h-5.8v6h4.7l0.4-1.5h0.3
	v3.4h-0.3l-0.4-1.5h-4.7V45.7z"/>
<path class="st1" d="M99.7,46.1l-5.5-12.9l-1.2-0.4v-0.2h4.6v0.2l-1.3,0.4l4.6,10.8l4.5-10.8l-1.7-0.4v-0.2h3.4v0.2l-1.3,0.4
	l-5.5,12.9H99.7z"/>
<path class="st1" d="M111,45.7h6l0.9-2h0.3v2.3h-10.6V46l1.3-0.3V33.1l-1.3-0.3v-0.2H118V35h-0.3l-0.9-2H111v6h4.7l0.4-1.5h0.3v3.4
	h-0.3l-0.4-1.5H111V45.7z"/>
<path class="st1" d="M122.8,45.7h5.3l0.9-2h0.3v2.3h-9.8V46l1.3-0.3V33.2l-1.3-0.4v-0.2h4.6v0.2l-1.3,0.4L122.8,45.7z"/>
<path class="st1" d="M130.6,39.4c-0.1-1.8,0.5-3.6,1.8-5c2.6-2.5,6.7-2.5,9.4,0c1.2,1.4,1.9,3.2,1.8,5c0.1,1.8-0.5,3.6-1.8,5
	c-2.6,2.5-6.7,2.5-9.4,0C131.2,43,130.6,41.2,130.6,39.4z M132.8,39.4c-0.1,1.7,0.3,3.4,1.2,4.9c1.1,1.7,3.4,2.2,5.1,1.1
	c0.4-0.3,0.8-0.7,1.1-1.1c0.9-1.5,1.3-3.1,1.2-4.8c0.1-1.7-0.3-3.4-1.2-4.9c-1.1-1.7-3.4-2.2-5.1-1.1c-0.4,0.3-0.8,0.7-1.1,1.1
	C133.1,36,132.7,37.7,132.8,39.4L132.8,39.4z"/>
<path class="st1" d="M150,33h-1.9v12.5l1.9,0.4v0.2h-5.2v-0.2l1.3-0.4V33.1l-1.3-0.3v-0.2h5.4c1.3-0.1,2.6,0.3,3.7,1
	c1.5,1.1,1.9,3.3,0.8,4.8c-0.2,0.3-0.5,0.5-0.8,0.8c-1.1,0.7-2.4,1.1-3.7,1h-1.6l-0.3-0.3v0h1.6c0.9,0,1.8-0.3,2.4-0.9
	c0.6-0.7,1-1.6,0.9-2.6c0.1-0.9-0.3-1.9-0.9-2.6C151.8,33.4,150.9,33,150,33z"/>
<path class="st1" d="M171.6,33.2l0.9,12.3l1.2,0.4v0.2h-4.5v-0.2l1.3-0.4l-0.8-11.1l-4.9,11.7h-0.6l-5-11.7l-0.8,11.2l1.2,0.4v0.2
	h-2.8V46l1.3-0.4l0.9-12.4l-1.3-0.4v-0.2h2.9l4.8,11.3l4.8-11.3h2.8v0.2L171.6,33.2z"/>
<path class="st1" d="M177.7,45.7h6l0.9-2h0.3v2.3h-10.5V46l1.3-0.3V33.1l-1.3-0.3v-0.2h10.3V35h-0.3l-0.9-2h-5.8v6h4.7l0.4-1.5h0.3
	v3.4h-0.3l-0.4-1.5h-4.7V45.7z"/>
<path class="st1" d="M186.3,46l1.3-0.4V33.2l-1.3-0.4v-0.2h3.4l7.6,10.6v-10l-1.3-0.4v-0.2h2.9v0.2l-1.3,0.3v12.9h-0.6l-9.2-12.7
	v12.2l1.3,0.4v0.2h-2.9L186.3,46z"/>
<path class="st1" d="M210.4,33h-3.6v12.5l1.3,0.4v0.2h-4.6v-0.2l1.3-0.4V33h-3.6l-0.9,2h-0.3v-2.4h11.7V35h-0.3L210.4,33z"/>
<path class="st1" d="M71.4,55.6c0.2,1.1-0.5,2.1-1.6,2.3c-1,0.2-1.9-0.4-2.2-1.3v1h-0.2v-5.4h0.2v2.4c0.4-1,1.5-1.6,2.5-1.2
	C71,53.7,71.6,54.6,71.4,55.6L71.4,55.6z M71.2,55.6c0-1-0.7-1.8-1.7-1.8c0,0-0.1,0-0.1,0c-1,0-1.8,0.8-1.8,1.8c0,1,0.8,1.9,1.8,1.9
	c1,0,1.8-0.8,1.8-1.7C71.2,55.7,71.2,55.6,71.2,55.6z"/>
<path class="st1" d="M75.8,53.6l-2.1,4.4C73.3,58.8,73,59,72.3,59H72v-0.2h0.3c0.6,0,0.8-0.2,1.2-0.9l0.3-0.5l-1.9-3.8h0.3l1.7,3.5
	l1.6-3.5H75.8z"/>
<path class="st1" d="M78.2,56.1h0.3c0,0.8,0.7,1.4,1.4,1.4c0,0,0.1,0,0.1,0c0.7,0.1,1.4-0.4,1.5-1.1c0,0,0-0.1,0-0.1
	c0-0.8-0.7-1-1.5-1.2s-1.7-0.4-1.7-1.3s0.7-1.4,1.7-1.4c0.8-0.1,1.5,0.5,1.6,1.3c0,0.1,0,0.1,0,0.2h-0.2c0-0.7-0.5-1.2-1.2-1.2
	c-0.1,0-0.1,0-0.2,0c-0.9,0-1.4,0.4-1.4,1.1s0.7,0.9,1.5,1.1s1.7,0.4,1.7,1.4c0,0.8-0.7,1.5-1.6,1.5c-0.1,0-0.1,0-0.2,0
	c-0.9,0.1-1.7-0.5-1.8-1.4C78.2,56.2,78.2,56.1,78.2,56.1z"/>
<path class="st1" d="M82.6,55c-0.1-1.4,1-2.6,2.5-2.7c0.1,0,0.1,0,0.2,0c1.1,0,2.1,0.6,2.4,1.7h-0.3c-0.3-0.9-1.2-1.4-2.2-1.4
	c-1.3,0.1-2.4,1.2-2.3,2.6c0.1,1.2,1.1,2.2,2.3,2.3c1,0,1.9-0.6,2.2-1.5h0.3c-0.3,1.1-1.3,1.8-2.4,1.7c-1.4,0.1-2.6-1.1-2.7-2.5
	C82.5,55.2,82.5,55.1,82.6,55z"/>
<path class="st1" d="M88.7,55.7v-3.3h0.2v3.3c0,0.9,0.8,1.7,1.7,1.7c0.9,0,1.7-0.8,1.7-1.7l0,0v-3.3h0.3v3.3c0.1,1.1-0.7,2-1.8,2.1
	s-2-0.7-2.1-1.8C88.7,55.9,88.7,55.8,88.7,55.7z"/>
<path class="st1" d="M94.1,52.4h0.2v5.2h-0.2V52.4z"/>
<path class="st1" d="M95.9,52.4h0.2v5.2h-0.2V52.4z"/>
<path class="st1" d="M97.8,52.4H98v5.2h-0.2L97.8,52.4z"/>
<path class="st1" d="M103,54c0,0.9-0.7,1.6-1.6,1.6c0,0-0.1,0-0.1,0h-1.5v2.1h-0.3v-5.2h1.8C102.2,52.4,103,53.1,103,54
	C103,54,103,54,103,54z M102.8,54c0-0.7-0.6-1.3-1.3-1.3c0,0,0,0-0.1,0h-1.5v2.7h1.5C102.1,55.4,102.7,54.8,102.8,54
	C102.7,54,102.8,54,102.8,54z"/>
<path class="st1" d="M107.1,52.6h-1.7v5h-0.2v-5h-1.7v-0.2h3.6L107.1,52.6z"/>
<path class="st1" d="M107.4,55c0-1.5,1.2-2.7,2.7-2.7s2.7,1.2,2.7,2.7c0,1.5-1.2,2.7-2.7,2.7c0,0,0,0,0,0c-1.4,0.1-2.6-1.1-2.7-2.5
	C107.4,55.1,107.4,55.1,107.4,55z M112.5,55c0-1.3-1.1-2.4-2.4-2.4s-2.4,1.1-2.4,2.4s1.1,2.4,2.4,2.4c0,0,0,0,0,0
	c1.3,0,2.4-1,2.4-2.3C112.5,55.1,112.5,55,112.5,55z"/>
<path class="st1" d="M116.1,55.3l1.4,2.3h-0.3l-1.3-2.3h-1.6v2.3H114v-5.2h1.9c0.8-0.1,1.5,0.6,1.6,1.4c0,0,0,0.1,0,0.1
	C117.5,54.6,116.9,55.3,116.1,55.3z M114.2,55.1h1.6c0.7,0.1,1.3-0.4,1.3-1.1s-0.4-1.3-1.1-1.3c-0.1,0-0.1,0-0.2,0h-1.6V55.1z"/>
<path class="st1" d="M124.8,55.6c0.2,1.1-0.5,2.1-1.6,2.3c-1,0.2-1.9-0.4-2.2-1.3V59h-0.2v-5.4h0.2v1c0.3-1.1,1.4-1.7,2.5-1.3
	C124.4,53.5,125,54.5,124.8,55.6L124.8,55.6z M124.6,55.6c0-1-0.7-1.8-1.7-1.8c0,0-0.1,0-0.1,0c-1,0-1.8,0.8-1.8,1.8
	c0,1,0.8,1.9,1.8,1.9l0,0c1,0,1.8-0.8,1.8-1.7C124.6,55.7,124.6,55.6,124.6,55.6z"/>
<path class="st1" d="M127.9,53.6v0.2h-0.4c-0.8,0-1.4,0.6-1.4,1.4c0,0,0,0.1,0,0.1v2.3h-0.2v-4h0.2v0.9c0.2-0.6,0.8-0.9,1.4-0.9
	L127.9,53.6z"/>
<path class="st1" d="M128.2,55.6c0-1.2,0.9-2.1,2.1-2.1c1.2,0,2.1,0.9,2.1,2.1s-0.9,2.1-2.1,2.1c0,0,0,0,0,0c-1.1,0.1-2-0.8-2.1-1.9
	C128.2,55.7,128.2,55.6,128.2,55.6z M132.1,55.6c0-1-0.8-1.8-1.9-1.8c-1,0-1.8,0.8-1.8,1.9c0,1,0.8,1.8,1.9,1.8c0,0,0,0,0,0
	c1,0,1.8-0.8,1.8-1.7C132.1,55.7,132.1,55.6,132.1,55.6z"/>
<path class="st1" d="M137.2,52.2v5.4H137v-1c-0.3,0.7-1.1,1.1-1.8,1.1c-1.2-0.1-2-1.1-1.9-2.2c0.1-1,0.9-1.9,1.9-1.9
	c0.8,0,1.5,0.4,1.8,1.1v-2.4H137.2z M137,55.6c0.1-1-0.7-1.9-1.7-1.9c-1-0.1-1.9,0.7-1.9,1.7c0,0.1,0,0.2,0,0.3
	c-0.1,1,0.7,1.9,1.7,1.9c1,0.1,1.9-0.7,1.9-1.7C137,55.8,137,55.7,137,55.6z"/>
<path class="st1" d="M138.5,57.1h0.4v0.5h-0.4V57.1z"/>
</svg>
