<svg id="Слой_1" data-name="Слой 1" xmlns="http://www.w3.org/2000/svg" xmlns:xlink="http://www.w3.org/1999/xlink" viewBox="0 0 212 59"><defs><style>.cls-1{fill:url(#Безымянный_градиент_3);}</style><radialGradient id="Безымянный_градиент_3" cx="28.98" cy="28.77" r="28.88" gradientUnits="userSpaceOnUse"><stop offset="0"/><stop offset="0.92"/><stop offset="1"/></radialGradient></defs><title>Безымянный-1</title><path class="cls-1" d="M27.88,37.78h3l.51-1.1h.17V38H26v-.09l.71-.17v-7l-.71-.2V30.4h2.59v.11l-.71.2Zm-1.5,9.76V46h.2a2.14,2.14,0,0,0,.38.85,1.67,1.67,0,0,0,.6.53,2.55,2.55,0,0,0,.63.23,3.21,3.21,0,0,0,.63.06,2.1,2.1,0,0,0,1.41-.43A1.51,1.51,0,0,0,30.74,46a1.38,1.38,0,0,0-.12-.61,1,1,0,0,0-.4-.43,2.66,2.66,0,0,0-.56-.28c-.18-.07-.45-.15-.82-.26l-.41-.13L28,44.19,27.66,44c-.08,0-.2-.09-.34-.17a1.18,1.18,0,0,1-.31-.21l-.24-.25a1,1,0,0,1-.2-.32,2.45,2.45,0,0,1-.12-.38,2.14,2.14,0,0,1-.05-.45A2.06,2.06,0,0,1,27,40.7a2.67,2.67,0,0,1,1.87-.59,3.29,3.29,0,0,1,1.83.51l.45-.32.11.11V42H31.1a2.62,2.62,0,0,0-.35-.85,1.5,1.5,0,0,0-.55-.52,3,3,0,0,0-.58-.24,2.1,2.1,0,0,0-.56-.07,1.83,1.83,0,0,0-1.26.42,1.44,1.44,0,0,0-.47,1.11,1.27,1.27,0,0,0,.3.84,1.62,1.62,0,0,0,.4.26c.19.08.35.15.48.19l.6.2.77.25a5.28,5.28,0,0,1,.67.31,2.18,2.18,0,0,1,.59.42,1.75,1.75,0,0,1,.37.58,1.94,1.94,0,0,1,.15.78,2.06,2.06,0,0,1-.68,1.6,3.05,3.05,0,0,1-2.06.61,3.69,3.69,0,0,1-2-.51l-.47.32Zm-1.13,2.4h3.46a3.62,3.62,0,0,1,2.67,1,4.28,4.28,0,0,1,0,5.55,3.61,3.61,0,0,1-2.67,1H25.25v-.08l.7-.18V50.2l-.7-.16Zm3.46.22H27.13v7.17h1.58a2.11,2.11,0,0,0,1.79-.92,4.44,4.44,0,0,0,.68-2.66,4.5,4.5,0,0,0-.68-2.67A2.11,2.11,0,0,0,28.71,50.16ZM31,37.62l2.83-1,.1-1.22.16-.06.45,1.25-5.23,1.9,0-.08.6-.4-2.4-6.6-.73,0,0-.1,2.43-.88,0,.1-.6.43ZM33,47.3l-.53-1.45.19-.06a2.31,2.31,0,0,0,.65.67,1.7,1.7,0,0,0,.73.28,2.57,2.57,0,0,0,.68,0,2.27,2.27,0,0,0,.61-.15,2.1,2.1,0,0,0,1.18-.89,1.51,1.51,0,0,0,.06-1.32,1.41,1.41,0,0,0-.32-.54,1,1,0,0,0-.52-.26,2.81,2.81,0,0,0-.62-.07l-.87,0-.42,0h-.41a2.46,2.46,0,0,1-.41,0l-.37,0a1.33,1.33,0,0,1-.37-.09l-.31-.16a1.17,1.17,0,0,1-.3-.22,3,3,0,0,1-.24-.32,3.11,3.11,0,0,1-.2-.41,2,2,0,0,1,.06-1.68,2.62,2.62,0,0,1,1.55-1.2,3.26,3.26,0,0,1,1.89-.14l.32-.46.14.07.53,1.45-.18.07a2.62,2.62,0,0,0-.62-.69,1.71,1.71,0,0,0-.7-.3,2.65,2.65,0,0,0-.62,0,1.75,1.75,0,0,0-.55.12,1.85,1.85,0,0,0-1,.83,1.43,1.43,0,0,0-.07,1.2,1.41,1.41,0,0,0,.26.43,1,1,0,0,0,.32.25,1.19,1.19,0,0,0,.46.11,5.08,5.08,0,0,0,.51,0l.64,0c.34,0,.61,0,.81,0s.44,0,.73,0a2.25,2.25,0,0,1,.7.2,1.84,1.84,0,0,1,.54.41,2,2,0,0,1,.42.69,2,2,0,0,1-.1,1.73,3,3,0,0,1-1.72,1.28,3.66,3.66,0,0,1-2,.19l-.33.47Zm-.25,2.64L36,48.76a3.58,3.58,0,0,1,2.86.05A4.29,4.29,0,0,1,40.73,54a3.61,3.61,0,0,1-2.16,1.87l-3.26,1.19,0-.09.61-.4L33.47,50l-.72.09ZM36,49l-1.49.55L37,56.24l1.49-.54a2.1,2.1,0,0,0,1.37-1.48,4.34,4.34,0,0,0-.27-2.72A4.42,4.42,0,0,0,38,49.22,2.11,2.11,0,0,0,36,49ZM33.93,36.38l2.31-1.93-.32-1.18.13-.11.85,1-4.27,3.58-.05-.07L33,37.1l-4.52-5.38-.67.3-.07-.09,2-1.66.07.09-.41.61Zm5.13,8.44-1-1.18.15-.12a2.34,2.34,0,0,0,.84.41,1.76,1.76,0,0,0,.79,0,2.83,2.83,0,0,0,.64-.23,2.79,2.79,0,0,0,.52-.35,2.15,2.15,0,0,0,.8-1.24,1.54,1.54,0,0,0-.39-1.26,1.47,1.47,0,0,0-.49-.4,1,1,0,0,0-.58-.07,2.59,2.59,0,0,0-.61.15c-.18.06-.45.17-.8.33l-.39.16-.38.16-.39.13-.36.09a1.44,1.44,0,0,1-.38,0l-.35,0a1,1,0,0,1-.35-.12,1.8,1.8,0,0,1-.33-.21,2,2,0,0,1-.33-.32,2,2,0,0,1-.52-1.6,2.65,2.65,0,0,1,1.05-1.65,3.17,3.17,0,0,1,1.72-.78l.15-.54h.15l1,1.19-.15.12a2.46,2.46,0,0,0-.81-.43,1.66,1.66,0,0,0-.76,0,2.91,2.91,0,0,0-.59.2,2.09,2.09,0,0,0-.47.3,1.82,1.82,0,0,0-.7,1.13,1.44,1.44,0,0,0,.35,1.16,1.21,1.21,0,0,0,.38.31,1,1,0,0,0,.87.07,3.49,3.49,0,0,0,.48-.15l.59-.24.75-.3c.19-.07.43-.13.71-.2a2.12,2.12,0,0,1,.73-.05,2.13,2.13,0,0,1,1.77,2.37,2.94,2.94,0,0,1-1.18,1.78,3.63,3.63,0,0,1-1.83.88l-.15.55Zm.67,2.57,2.65-2.23a3.68,3.68,0,0,1,2.71-.93,4.28,4.28,0,0,1,3.57,4.26A3.61,3.61,0,0,1,47.27,51l-2.65,2.22-.06-.06.43-.59-4.55-5.42-.65.33Zm2.79-2.06-1.21,1,4.61,5.49,1.21-1A2.11,2.11,0,0,0,47.91,49a4.42,4.42,0,0,0-1.19-2.47,4.48,4.48,0,0,0-2.23-1.61A2.1,2.1,0,0,0,42.52,45.33Zm-6.28-11.1,1.5-2.6-.7-1,.08-.15,1.15.66L35.49,36l-.08,0,.2-.69-6.08-3.52-.53.51-.1,0,1.3-2.24.09.05-.17.72Zm7.7,6.18-1.33-.77.09-.17a2.35,2.35,0,0,0,.93.1,1.76,1.76,0,0,0,.75-.26,2.9,2.9,0,0,0,.52-.43,2.78,2.78,0,0,0,.37-.51,2.12,2.12,0,0,0,.33-1.44,1.51,1.51,0,0,0-.8-1,1.56,1.56,0,0,0-.59-.21,1,1,0,0,0-.57.13,2.62,2.62,0,0,0-.52.35c-.15.12-.36.32-.64.58l-.31.29-.3.27a3,3,0,0,1-.32.26,3,3,0,0,1-.32.21,1.19,1.19,0,0,1-.34.17l-.34.08a.93.93,0,0,1-.37,0,1.55,1.55,0,0,1-.39-.09,1.9,1.9,0,0,1-.42-.18,2.07,2.07,0,0,1-1-1.32,2.66,2.66,0,0,1,.42-1.92,3.38,3.38,0,0,1,1.35-1.33l0-.55.15,0,1.33.77-.1.17a2.46,2.46,0,0,0-.91-.12,1.6,1.6,0,0,0-.72.21,2.28,2.28,0,0,0-.5.39,2.46,2.46,0,0,0-.34.44,1.83,1.83,0,0,0-.26,1.31,1.39,1.39,0,0,0,.72,1,1.1,1.1,0,0,0,.47.16,1.11,1.11,0,0,0,.41,0,1.16,1.16,0,0,0,.42-.21l.41-.31.47-.43.6-.54a6,6,0,0,1,.6-.42,2.3,2.3,0,0,1,.67-.31,1.88,1.88,0,0,1,.68,0A2.17,2.17,0,0,1,46,36.27a3,3,0,0,1-.49,2.09A3.73,3.73,0,0,1,44,39.8l.05.57Zm1.51,2.18,1.73-3a3.61,3.61,0,0,1,2.23-1.8,4.31,4.31,0,0,1,4.81,2.78,3.6,3.6,0,0,1-.45,2.82l-1.74,3-.07,0,.2-.7L46,42.11l-.49.53Zm1.92-2.89-.79,1.37,6.2,3.59.8-1.38a2.13,2.13,0,0,0,.1-2,5.58,5.58,0,0,0-4.61-2.66A2.12,2.12,0,0,0,47.37,39.7Zm-9.7-8.28.52-3-1-.7,0-.17,1.3.23-1,5.49-.08,0,0-.72L30.5,31.35l-.32.66-.11,0,.45-2.55.11,0,.08.73ZM47,34.59l-1.52-.27,0-.19a2.3,2.3,0,0,0,.91-.22,1.73,1.73,0,0,0,.62-.5,2.78,2.78,0,0,0,.34-.59,3.78,3.78,0,0,0,.17-.6,2.19,2.19,0,0,0-.18-1.47A1.54,1.54,0,0,0,46.28,30a1.47,1.47,0,0,0-.63,0,.93.93,0,0,0-.49.32,2.39,2.39,0,0,0-.37.5c-.1.17-.23.42-.4.77l-.2.38-.19.35a2.47,2.47,0,0,1-.21.36l-.22.3a1.35,1.35,0,0,1-.26.27l-.3.19a1,1,0,0,1-.34.15,2.35,2.35,0,0,1-.4,0,1.73,1.73,0,0,1-.45,0,2,2,0,0,1-1.42-.89,2.62,2.62,0,0,1-.27-1.94A3.35,3.35,0,0,1,41,29.11l-.23-.5.13-.09,1.52.27,0,.19a2.48,2.48,0,0,0-.9.19,1.7,1.7,0,0,0-.61.45,3,3,0,0,0-.33.53,2.12,2.12,0,0,0-.17.54,1.85,1.85,0,0,0,.2,1.32,1.37,1.37,0,0,0,1,.65,1.15,1.15,0,0,0,.49,0,1.37,1.37,0,0,0,.38-.15,1.25,1.25,0,0,0,.33-.35,3.51,3.51,0,0,0,.27-.43c.07-.12.17-.3.3-.56l.39-.72c.1-.17.24-.37.41-.6a2.24,2.24,0,0,1,.52-.51,1.81,1.81,0,0,1,.63-.26,2,2,0,0,1,.8,0,2.06,2.06,0,0,1,1.46,1,3,3,0,0,1,.24,2.13A3.72,3.72,0,0,1,46.91,34l.24.51Zm2.17,1.54.6-3.41a3.6,3.6,0,0,1,1.47-2.46,4.29,4.29,0,0,1,5.47,1A3.63,3.63,0,0,1,57.27,34l-.6,3.41-.09,0,0-.72-7-1.23-.28.66ZM50,32.75l-.27,1.56,7.05,1.25L57.06,34a2.13,2.13,0,0,0-.59-1.93A4.52,4.52,0,0,0,54,31a4.48,4.48,0,0,0-2.75.2A2.11,2.11,0,0,0,50,32.75Zm-12-4.46-.52-3L36.35,25l0-.17,1.3-.23,1,5.48-.09,0-.29-.67-6.92,1.22-.08.74H31.1l-.44-2.54.1,0,.33.66Zm9.87-.22-1.52.27,0-.19a2.42,2.42,0,0,0,.77-.52,1.63,1.63,0,0,0,.41-.68,2.88,2.88,0,0,0,.12-.67,2.62,2.62,0,0,0,0-.62A2.16,2.16,0,0,0,47,24.34a1.54,1.54,0,0,0-1.29-.29,1.52,1.52,0,0,0-.59.22,1,1,0,0,0-.35.47,2.53,2.53,0,0,0-.18.6c0,.19-.07.47-.11.86,0,.19,0,.33,0,.42s0,.22-.06.4a2.74,2.74,0,0,1-.08.4c0,.09-.06.21-.1.37a1.2,1.2,0,0,1-.16.34,2,2,0,0,1-.21.28.91.91,0,0,1-.27.25,1.51,1.51,0,0,1-.36.18,1.89,1.89,0,0,1-.44.13,2.07,2.07,0,0,1-1.64-.35,2.63,2.63,0,0,1-.91-1.74A3.21,3.21,0,0,1,40.35,25L40,24.6l.09-.12,1.51-.27,0,.19a2.48,2.48,0,0,0-.78.49,1.62,1.62,0,0,0-.42.63,2.65,2.65,0,0,0-.13.62,2.12,2.12,0,0,0,0,.56,1.82,1.82,0,0,0,.64,1.17,1.41,1.41,0,0,0,1.17.27,1.15,1.15,0,0,0,.47-.18,1.12,1.12,0,0,0,.3-.26,1.28,1.28,0,0,0,.19-.45c0-.2.09-.36.11-.49l.09-.63q.06-.51.12-.81a4.91,4.91,0,0,1,.18-.71,2.54,2.54,0,0,1,.31-.66,2.12,2.12,0,0,1,.51-.46,1.93,1.93,0,0,1,.74-.28,2,2,0,0,1,1.69.39,3,3,0,0,1,1,1.92,3.67,3.67,0,0,1-.16,2L48,28Zm2.56.7-.6-3.41a3.6,3.6,0,0,1,.55-2.81,4.3,4.3,0,0,1,5.47-1A3.67,3.67,0,0,1,57.37,24l.6,3.41-.09,0-.29-.67-7,1.23,0,.73Zm-.39-3.44.28,1.56,7.06-1.25-.28-1.56a2.1,2.1,0,0,0-1.21-1.6,4.41,4.41,0,0,0-2.73-.21,4.56,4.56,0,0,0-2.52,1.13A2.14,2.14,0,0,0,50.09,25.33Zm-12.75-.11-1.51-2.6-1.21.11-.09-.15,1.15-.66,2.79,4.82-.08,0-.5-.52L31.8,29.77l.18.71-.1.06L30.59,28.3l.1-.05.53.51Zm9.2-3.58-1.33.77-.1-.17a2.41,2.41,0,0,0,.55-.76,1.79,1.79,0,0,0,.15-.77,2.77,2.77,0,0,0-.37-1.24,2.12,2.12,0,0,0-1.08-1,1.52,1.52,0,0,0-1.31.17,1.42,1.42,0,0,0-.48.41,1,1,0,0,0-.17.56,2.49,2.49,0,0,0,0,.62c0,.19.09.47.19.85,0,.19.07.33.09.41l.09.4c0,.18,0,.31.06.4a3.63,3.63,0,0,1,0,.38,1.44,1.44,0,0,1,0,.38l-.1.33a1,1,0,0,1-.18.33,1.79,1.79,0,0,1-.27.29,2.07,2.07,0,0,1-.37.27,2,2,0,0,1-1.66.23,2.61,2.61,0,0,1-1.45-1.31,3.31,3.31,0,0,1-.47-1.84l-.5-.24,0-.15,1.33-.77.1.17a2.34,2.34,0,0,0-.56.73,1.49,1.49,0,0,0-.18.74,3.6,3.6,0,0,0,.08.62,2.31,2.31,0,0,0,.22.51,1.85,1.85,0,0,0,1,.89,1.4,1.4,0,0,0,1.19-.15,1.22,1.22,0,0,0,.38-.32,1.32,1.32,0,0,0,.2-.36,1.4,1.4,0,0,0,0-.48,4.29,4.29,0,0,0-.07-.5c0-.14-.06-.34-.13-.62s-.13-.6-.16-.8a4.63,4.63,0,0,1-.07-.73,2.29,2.29,0,0,1,.07-.73,1.81,1.81,0,0,1,.31-.6,2.1,2.1,0,0,1,.61-.53,2,2,0,0,1,1.72-.2,3,3,0,0,1,1.55,1.47,3.74,3.74,0,0,1,.55,2l.51.24Zm2.65-.22-1.74-3A3.59,3.59,0,0,1,47,15.6a4.27,4.27,0,0,1,4.81-2.78A3.62,3.62,0,0,1,54,14.62l1.73,3-.08,0-.5-.52-6.13,3.54.21.69Zm-1.55-3.11.8,1.38,6.2-3.59-.79-1.37a2.1,2.1,0,0,0-1.69-1.09,4.39,4.39,0,0,0-2.64.74,4.39,4.39,0,0,0-2,1.92A2.11,2.11,0,0,0,47.64,18.31Zm-12,4.27-2.3-1.94-1.11.53-.13-.12.85-1,4.27,3.58-.06.07-.65-.32L32,28.75l.4.61-.07.08-2-1.66.07-.08.68.29ZM43,16.06l-1,1.18-.15-.12a2.29,2.29,0,0,0,.26-.9,1.65,1.65,0,0,0-.12-.78,3,3,0,0,0-.34-.59,2.66,2.66,0,0,0-.44-.45,2,2,0,0,0-1.36-.57,1.51,1.51,0,0,0-1.17.6,1.47,1.47,0,0,0-.31.55,1,1,0,0,0,0,.58,3,3,0,0,0,.25.57c.1.17.25.41.47.73s.18.29.23.36.12.19.21.35a1.73,1.73,0,0,1,.2.36c0,.08.09.19.15.34a1.14,1.14,0,0,1,.11.37c0,.09,0,.21,0,.34a1.17,1.17,0,0,1-.05.38,2.68,2.68,0,0,1-.16.36,1.78,1.78,0,0,1-.25.38,2,2,0,0,1-1.48.78,2.6,2.6,0,0,1-1.82-.74,3.31,3.31,0,0,1-1.07-1.56l-.55,0v-.16l1-1.18.15.13a2.38,2.38,0,0,0-.28.87,1.68,1.68,0,0,0,.08.76,3.49,3.49,0,0,0,.29.55,2.46,2.46,0,0,0,.38.41,1.81,1.81,0,0,0,1.24.49,1.41,1.41,0,0,0,1.08-.54,1.47,1.47,0,0,0,.24-.44,1,1,0,0,0,.06-.4,1.16,1.16,0,0,0-.14-.46l-.23-.45c-.07-.12-.19-.29-.34-.54s-.33-.52-.43-.69a5.25,5.25,0,0,1-.31-.66,2.22,2.22,0,0,1-.19-.71,2.07,2.07,0,0,1,.09-.67,2.12,2.12,0,0,1,.39-.7,2,2,0,0,1,1.55-.79,3,3,0,0,1,2,.86,3.65,3.65,0,0,1,1.18,1.65l.57.05ZM45.45,15,42.8,12.73a3.65,3.65,0,0,1-1.39-2.5,3.79,3.79,0,0,1,1-2.79A3.8,3.8,0,0,1,45,6a3.65,3.65,0,0,1,2.71.94l2.65,2.22-.06.07-.65-.32L45.08,14.3l.44.58Zm-2.51-2.39,1.21,1,4.61-5.49-1.21-1a2.13,2.13,0,0,0-2-.45,4.53,4.53,0,0,0-2.22,1.6,4.49,4.49,0,0,0-1.2,2.48A2.12,2.12,0,0,0,42.94,12.56ZM33.1,20.68l-2.82-1-.86.87-.17-.06.46-1.25,5.23,1.91,0,.08-.72-.08-2.4,6.6.59.44,0,.1-2.43-.88,0-.1.73,0ZM37.85,12l-.53,1.45-.18-.07a2.35,2.35,0,0,0-.07-.93,1.65,1.65,0,0,0-.38-.69,2.9,2.9,0,0,0-.52-.44,2.63,2.63,0,0,0-.56-.27A2.14,2.14,0,0,0,34.13,11a1.52,1.52,0,0,0-.89,1,1.48,1.48,0,0,0-.11.62,1.06,1.06,0,0,0,.23.54,3.11,3.11,0,0,0,.43.45c.15.13.38.3.69.53l.34.26c.07.05.18.13.32.25a2.46,2.46,0,0,1,.31.27,3.59,3.59,0,0,1,.26.27,1.05,1.05,0,0,1,.22.31,2,2,0,0,1,.14.32.94.94,0,0,1,.08.36,1.88,1.88,0,0,1,0,.4A2.57,2.57,0,0,1,36,17a2.05,2.05,0,0,1-1.12,1.25,2.64,2.64,0,0,1-2-.08,3.28,3.28,0,0,1-1.54-1.1l-.54.14-.06-.14.52-1.45.19.06a2.33,2.33,0,0,0,0,.92,1.56,1.56,0,0,0,.34.68,2.47,2.47,0,0,0,.46.42,2,2,0,0,0,.5.26,1.8,1.8,0,0,0,1.33,0A1.41,1.41,0,0,0,35,17.1a1.28,1.28,0,0,0,.08-.5,1.34,1.34,0,0,0-.08-.39,1.38,1.38,0,0,0-.29-.39,4.76,4.76,0,0,0-.38-.34c-.1-.09-.27-.22-.5-.39l-.64-.5a6.31,6.31,0,0,1-.52-.52,2.21,2.21,0,0,1-.41-.6,1.89,1.89,0,0,1-.15-.67,2,2,0,0,1,.13-.79,2,2,0,0,1,1.19-1.26,2.92,2.92,0,0,1,2.13.13A3.58,3.58,0,0,1,37.23,12l.55-.15Zm1.89-1.87L36.48,9a3.63,3.63,0,0,1-2.16-1.88,3.76,3.76,0,0,1,0-2.95,3.76,3.76,0,0,1,1.91-2.27,3.63,3.63,0,0,1,2.86,0L42.33,3l0,.08L41.58,3,39.16,9.67l.61.39ZM36.56,8.77,38,9.31,40.5,2.57,39,2a2.14,2.14,0,0,0-2,.25,4.42,4.42,0,0,0-1.54,2.27,4.48,4.48,0,0,0-.28,2.74A2.1,2.1,0,0,0,36.56,8.77Zm-6.47,11h-3l-.51,1.11H26.4V19.54H32v.09l-.71.17v7L32,27v.1H29.38V27l.71-.21ZM31.59,10v1.54h-.2a2.37,2.37,0,0,0-.38-.85,1.55,1.55,0,0,0-.6-.52,3.1,3.1,0,0,0-.63-.24,3.21,3.21,0,0,0-.63-.06,2.1,2.1,0,0,0-1.41.43,1.52,1.52,0,0,0-.51,1.22,1.43,1.43,0,0,0,.12.62,1,1,0,0,0,.4.43,2.6,2.6,0,0,0,.56.27,8.33,8.33,0,0,0,.82.26l.41.13.38.12.39.15.34.17a1.18,1.18,0,0,1,.31.21l.24.26a1,1,0,0,1,.2.31,2.9,2.9,0,0,1,.11.38,1.75,1.75,0,0,1,0,.46,2,2,0,0,1-.63,1.55,2.6,2.6,0,0,1-1.86.6,3.27,3.27,0,0,1-1.83-.51l-.45.31-.11-.11V15.59h.19a2.53,2.53,0,0,0,.35.85,1.5,1.5,0,0,0,.55.52,2.1,2.1,0,0,0,.58.24,2.08,2.08,0,0,0,.55.07,1.85,1.85,0,0,0,1.27-.42,1.43,1.43,0,0,0,.47-1.11,1.3,1.3,0,0,0-.09-.49,1.1,1.1,0,0,0-.21-.34,1.16,1.16,0,0,0-.41-.26,3.26,3.26,0,0,0-.47-.2l-.6-.19L28.09,14a6.82,6.82,0,0,1-.67-.3,2.51,2.51,0,0,1-.6-.43,2,2,0,0,1-.36-.57,2,2,0,0,1-.15-.79,2.06,2.06,0,0,1,.68-1.6A3,3,0,0,1,29,9.71a3.7,3.7,0,0,1,2,.51l.47-.33Zm1.13-2.4H29.26a3.58,3.58,0,0,1-2.67-1,3.74,3.74,0,0,1-1-2.77,3.77,3.77,0,0,1,1-2.78,3.61,3.61,0,0,1,2.67-1h3.46V.09L32,.26V7.34l.71.16Zm-3.46-.22h1.58V.22H29.26a2.12,2.12,0,0,0-1.8.91,4.54,4.54,0,0,0-.67,2.66,4.57,4.57,0,0,0,.67,2.67A2.11,2.11,0,0,0,29.26,7.38ZM26.94,19.93l-2.83,1L24,22.17l-.16.06L23.4,21l5.23-1.91,0,.08-.6.41,2.4,6.6.73-.05,0,.1-2.43.89,0-.11.6-.43ZM25,10.24l.53,1.45-.19.07a2.2,2.2,0,0,0-.65-.67A1.59,1.59,0,0,0,24,10.8a2.5,2.5,0,0,0-.67,0,3.2,3.2,0,0,0-.61.15,2.11,2.11,0,0,0-1.18.89,1.51,1.51,0,0,0-.06,1.32,1.41,1.41,0,0,0,.32.54,1,1,0,0,0,.52.27,3.57,3.57,0,0,0,.62.07l.86,0,.43,0,.4,0H25l.37,0a1.33,1.33,0,0,1,.37.09l.31.16a1,1,0,0,1,.3.23,2.21,2.21,0,0,1,.23.32,2.25,2.25,0,0,1,.21.41,2.1,2.1,0,0,1-.06,1.67,2.62,2.62,0,0,1-1.56,1.2,3.23,3.23,0,0,1-1.88.15l-.32.45-.14-.07-.53-1.45.18-.06a2.41,2.41,0,0,0,.62.68,1.49,1.49,0,0,0,.69.3,2.32,2.32,0,0,0,.63,0A2.1,2.1,0,0,0,25,18a1.81,1.81,0,0,0,1-.83,1.39,1.39,0,0,0,.06-1.2,1.22,1.22,0,0,0-.25-.43,1.17,1.17,0,0,0-.32-.25,1.4,1.4,0,0,0-.46-.11l-.51,0-.64,0-.81,0a5.46,5.46,0,0,1-.73-.06,2.42,2.42,0,0,1-.71-.19,2.11,2.11,0,0,1-.95-1.11,2,2,0,0,1,.1-1.73,3,3,0,0,1,1.72-1.27,3.67,3.67,0,0,1,2-.2l.33-.46Zm.24-2.64L22,8.78a3.58,3.58,0,0,1-2.86,0,3.74,3.74,0,0,1-1.91-2.25,3.77,3.77,0,0,1,0-3A3.65,3.65,0,0,1,19.4,1.64L22.65.46l0,.08-.6.4L24.5,7.6l.72-.09Zm-3.33,1L23.41,8,21,1.3l-1.49.55A2.11,2.11,0,0,0,18.1,3.32a4.46,4.46,0,0,0,.28,2.73,4.5,4.5,0,0,0,1.55,2.28A2.12,2.12,0,0,0,21.92,8.58ZM24,21.16l-2.31,1.93.32,1.18-.13.11-.85-1,4.27-3.58.05.06-.43.59,4.52,5.38.67-.3.07.09-2,1.66-.07-.08.41-.62Zm-5.13-8.44,1,1.18-.15.13a2.19,2.19,0,0,0-.84-.41,1.64,1.64,0,0,0-.79,0,3.18,3.18,0,0,0-.64.23,3.38,3.38,0,0,0-.52.35,2.15,2.15,0,0,0-.8,1.24,1.54,1.54,0,0,0,.39,1.26,1.47,1.47,0,0,0,.49.4.92.92,0,0,0,.58.07,3.42,3.42,0,0,0,.61-.14l.8-.33.39-.17.37-.15a2.78,2.78,0,0,1,.39-.14l.37-.09a2,2,0,0,1,.38,0l.34.05a1,1,0,0,1,.36.11,2.35,2.35,0,0,1,.33.22,1.93,1.93,0,0,1,.33.31,2.07,2.07,0,0,1,.52,1.6,2.67,2.67,0,0,1-1,1.66,3.36,3.36,0,0,1-1.72.78l-.15.53h-.15l-1-1.18.15-.13a2.5,2.5,0,0,0,.82.43,1.63,1.63,0,0,0,.75.05,2.83,2.83,0,0,0,.6-.19,2.09,2.09,0,0,0,.47-.3,1.81,1.81,0,0,0,.7-1.14,1.42,1.42,0,0,0-.35-1.15,1.28,1.28,0,0,0-.39-.32,1.43,1.43,0,0,0-.38-.13,1.55,1.55,0,0,0-.48.06c-.2.05-.36.11-.49.15l-.58.24-.76.3a5.11,5.11,0,0,1-.7.2,2.46,2.46,0,0,1-.73.06,2,2,0,0,1-.65-.21,1.86,1.86,0,0,1-.62-.51,2,2,0,0,1-.51-1.66,3,3,0,0,1,1.19-1.78,3.53,3.53,0,0,1,1.83-.87l.15-.55Zm-.67-2.57-2.66,2.23a3.56,3.56,0,0,1-2.7.93,3.8,3.8,0,0,1-2.57-1.47,3.75,3.75,0,0,1-1-2.79A3.59,3.59,0,0,1,10.7,6.56l2.65-2.23.06.07L13,5l4.55,5.43.64-.33Zm-2.8,2.06,1.22-1L12.05,5.7l-1.21,1a2.15,2.15,0,0,0-.79,1.86A4.42,4.42,0,0,0,11.25,11a4.46,4.46,0,0,0,2.23,1.62A2.11,2.11,0,0,0,15.44,12.21Zm6.29,11.1-1.5,2.61.7,1-.09.15L19.7,26.4l2.78-4.82.08,0-.21.7,6.09,3.51.53-.51.09.06-1.29,2.23-.09-.05.17-.72ZM14,17.13l1.33.77-.1.17a2.27,2.27,0,0,0-.92-.09,1.63,1.63,0,0,0-.75.25,2.32,2.32,0,0,0-.52.44,3.08,3.08,0,0,0-.37.5,2.12,2.12,0,0,0-.33,1.44,1.49,1.49,0,0,0,.8,1.05,1.28,1.28,0,0,0,.59.21,1,1,0,0,0,.57-.13,3,3,0,0,0,.52-.35c.15-.12.36-.31.64-.58l.31-.29.3-.27.32-.26.32-.21a1.19,1.19,0,0,1,.34-.17l.34-.07a.94.94,0,0,1,.37,0l.39.09a1.69,1.69,0,0,1,.41.19,2,2,0,0,1,1,1.32A2.58,2.58,0,0,1,19.21,23a3.28,3.28,0,0,1-1.36,1.33l0,.55-.15,0-1.33-.77.09-.17a2.51,2.51,0,0,0,.91.12,1.61,1.61,0,0,0,.73-.21,2.61,2.61,0,0,0,.5-.38,2.53,2.53,0,0,0,.34-.45,1.8,1.8,0,0,0,.26-1.3,1.44,1.44,0,0,0-.72-1,1.25,1.25,0,0,0-.47-.16,1.1,1.1,0,0,0-.41,0,1.21,1.21,0,0,0-.42.22,4.76,4.76,0,0,0-.41.31l-.47.42c-.25.23-.45.41-.61.54a6.13,6.13,0,0,1-.59.43,2.53,2.53,0,0,1-.67.3,1.88,1.88,0,0,1-.68,0,2.08,2.08,0,0,1-.76-.26,2,2,0,0,1-1-1.39,3.05,3.05,0,0,1,.5-2.08,3.63,3.63,0,0,1,1.43-1.45l0-.57ZM12.52,15l-1.74,3a3.62,3.62,0,0,1-2.22,1.8,3.75,3.75,0,0,1-2.91-.5A3.77,3.77,0,0,1,3.75,17a3.6,3.6,0,0,1,.45-2.82l1.73-3,.08,0-.2.7,6.13,3.54.49-.53ZM10.6,17.84l.79-1.37L5.18,12.89l-.79,1.37a2.11,2.11,0,0,0-.1,2,4.45,4.45,0,0,0,2,1.91,4.51,4.51,0,0,0,2.65.75A2.11,2.11,0,0,0,10.6,17.84Zm9.7,8.28-.52,3,1,.7,0,.17-1.3-.23,1-5.49.09,0,.05.72,6.92,1.22.32-.66.11,0-.45,2.55-.11,0-.08-.73ZM11,23l1.52.27,0,.19a2.3,2.3,0,0,0-.9.23,1.71,1.71,0,0,0-.62.49,3.05,3.05,0,0,0-.34.59,3,3,0,0,0-.17.6,2.08,2.08,0,0,0,.18,1.47,1.54,1.54,0,0,0,1.11.71,1.66,1.66,0,0,0,.63,0,1.07,1.07,0,0,0,.49-.32,3.27,3.27,0,0,0,.37-.51c.1-.16.23-.42.4-.76l.19-.38.19-.36.21-.36.23-.3a1.13,1.13,0,0,1,.26-.27l.3-.19a1.26,1.26,0,0,1,.34-.15l.39,0a1.81,1.81,0,0,1,.46,0,2,2,0,0,1,1.42.89,2.62,2.62,0,0,1,.27,1.94A3.35,3.35,0,0,1,17,28.43l.23.5-.13.09-1.52-.27,0-.19a2.48,2.48,0,0,0,.9-.19,1.58,1.58,0,0,0,.6-.45,2.74,2.74,0,0,0,.34-.53,2.43,2.43,0,0,0,.17-.54,1.82,1.82,0,0,0-.2-1.31,1.41,1.41,0,0,0-1-.66,1.4,1.4,0,0,0-.5,0,1.5,1.5,0,0,0-.38.15,1.63,1.63,0,0,0-.32.35c-.12.17-.21.32-.28.43l-.29.56c-.16.31-.29.54-.39.72s-.24.37-.41.6a2.34,2.34,0,0,1-.53.52,2.07,2.07,0,0,1-.62.26,2.19,2.19,0,0,1-.81,0,2,2,0,0,1-1.45-.95,3,3,0,0,1-.24-2.13,3.72,3.72,0,0,1,.84-1.85L10.82,23ZM8.78,21.42l-.6,3.41a3.6,3.6,0,0,1-1.47,2.45,3.75,3.75,0,0,1-2.91.52,3.72,3.72,0,0,1-2.56-1.49,3.6,3.6,0,0,1-.54-2.8l.6-3.41h.08l.05.73,7,1.23.29-.67ZM8,24.79l.27-1.56L1.19,22,.91,23.54a2.13,2.13,0,0,0,.59,1.93A4.45,4.45,0,0,0,4,26.59a4.48,4.48,0,0,0,2.75-.2A2.11,2.11,0,0,0,8,24.79Zm12,4.46.52,3,1.18.31,0,.17-1.3.23-1-5.48.08,0,.3.67,6.92-1.22.08-.73.1,0,.45,2.54-.11,0L26.88,28ZM10,29.47l1.52-.27,0,.19a2.49,2.49,0,0,0-.78.53,1.72,1.72,0,0,0-.41.68,2.89,2.89,0,0,0-.12.66,3.41,3.41,0,0,0,.05.63A2.09,2.09,0,0,0,11,33.2a1.5,1.5,0,0,0,1.29.29,1.37,1.37,0,0,0,.59-.22,1,1,0,0,0,.35-.47,4.29,4.29,0,0,0,.18-.59c0-.19.07-.48.11-.86,0-.2,0-.34.05-.43s0-.22.06-.4a3.45,3.45,0,0,1,.07-.4c0-.09.07-.21.11-.36a1.28,1.28,0,0,1,.16-.35,2.89,2.89,0,0,1,.21-.28.91.91,0,0,1,.27-.25l.36-.18a1.89,1.89,0,0,1,.44-.13,2,2,0,0,1,1.63.35,2.66,2.66,0,0,1,.92,1.74,3.21,3.21,0,0,1-.19,1.88l.39.4-.09.12-1.52.27,0-.19a2.42,2.42,0,0,0,.78-.49,1.74,1.74,0,0,0,.42-.63,2.58,2.58,0,0,0,.13-.61,1.75,1.75,0,0,0,0-.56A1.82,1.82,0,0,0,17,29.68a1.39,1.39,0,0,0-1.17-.28,1.15,1.15,0,0,0-.47.18,1.18,1.18,0,0,0-.31.27,1.24,1.24,0,0,0-.18.44,3.31,3.31,0,0,0-.11.5l-.09.62q-.06.51-.12.81a4.61,4.61,0,0,1-.18.71,2.39,2.39,0,0,1-.31.66,2,2,0,0,1-1.26.74,2,2,0,0,1-1.69-.39,3,3,0,0,1-1-1.92,3.68,3.68,0,0,1,.16-2l-.4-.4Zm-2.56-.7.61,3.41A3.6,3.6,0,0,1,7.54,35,3.8,3.8,0,0,1,5,36.48,3.79,3.79,0,0,1,2.07,36,3.6,3.6,0,0,1,.6,33.5L0,30.09l.09,0,.29.67,7-1.23,0-.72Zm.39,3.45L7.6,30.66.54,31.9l.28,1.56A2.09,2.09,0,0,0,2,35.07a4.49,4.49,0,0,0,2.73.2,4.42,4.42,0,0,0,2.51-1.13A2.1,2.1,0,0,0,7.87,32.22Zm12.76.1,1.5,2.61,1.22-.11.08.15-1.14.66L19.5,30.8l.08,0,.5.53,6.08-3.52L26,27.06l.09-.06,1.3,2.24-.1.06-.53-.51Zm-9.2,3.59,1.33-.78.1.17a2.41,2.41,0,0,0-.55.76,1.6,1.6,0,0,0-.15.78,2.52,2.52,0,0,0,.11.66,2.72,2.72,0,0,0,.26.58,2.1,2.1,0,0,0,1.08,1,1.51,1.51,0,0,0,1.31-.16,1.66,1.66,0,0,0,.48-.41,1.09,1.09,0,0,0,.17-.56,3.13,3.13,0,0,0,0-.63c0-.19-.1-.47-.19-.84l-.09-.42-.09-.39a2.1,2.1,0,0,1-.06-.41c0-.09,0-.22,0-.38a1.31,1.31,0,0,1,0-.37c0-.1.06-.21.1-.34a1,1,0,0,1,.17-.33l.27-.29a2.16,2.16,0,0,1,.38-.27,2,2,0,0,1,1.66-.23,2.62,2.62,0,0,1,1.45,1.32,3.34,3.34,0,0,1,.47,1.83l.5.24,0,.15-1.34.77-.1-.17a2.38,2.38,0,0,0,.57-.73,1.7,1.7,0,0,0,.18-.73,2.71,2.71,0,0,0-.09-.62,2.36,2.36,0,0,0-.21-.52,1.83,1.83,0,0,0-1-.88,1.43,1.43,0,0,0-1.2.14,1.26,1.26,0,0,0-.57.68,1.2,1.2,0,0,0,0,.48,4.5,4.5,0,0,0,.06.51c0,.13.07.34.13.62s.13.6.17.79a6.25,6.25,0,0,1,.07.73,2.26,2.26,0,0,1-.07.73,1.76,1.76,0,0,1-.32.6,1.94,1.94,0,0,1-.6.53,2.05,2.05,0,0,1-1.73.21,3.1,3.1,0,0,1-1.55-1.48,3.79,3.79,0,0,1-.54-2l-.51-.25Zm-2.65.21,1.73,3A3.62,3.62,0,0,1,11,42a3.74,3.74,0,0,1-1.89,2.27,3.79,3.79,0,0,1-2.92.51,3.6,3.6,0,0,1-2.22-1.81l-1.73-3,.07,0,.51.52,6.13-3.54-.21-.69Zm1.54,3.11-.79-1.37-6.2,3.58.79,1.37a2.11,2.11,0,0,0,1.69,1.1,4.45,4.45,0,0,0,2.63-.75,4.47,4.47,0,0,0,2-1.92A2.08,2.08,0,0,0,10.32,39.23Zm12-4.26,2.3,1.93,1.1-.52.14.11-.86,1-4.26-3.58.05-.07.66.32L26,28.8l-.41-.61.07-.09,2,1.66-.07.09-.67-.3Zm-7.43,6.51,1-1.18.15.12a2.29,2.29,0,0,0-.26.9,1.71,1.71,0,0,0,.12.79,2.46,2.46,0,0,0,.34.58,3,3,0,0,0,.43.45,2.13,2.13,0,0,0,1.36.58,1.52,1.52,0,0,0,1.18-.61,1.59,1.59,0,0,0,.31-.54.94.94,0,0,0,0-.59,3,3,0,0,0-.25-.57c-.09-.17-.25-.41-.46-.73l-.23-.36L18.35,40l-.2-.36c0-.09-.09-.2-.15-.35a1.24,1.24,0,0,1-.1-.36,3.49,3.49,0,0,1,0-.35.88.88,0,0,1,.05-.37,3.2,3.2,0,0,1,.15-.37,2.86,2.86,0,0,1,.26-.38,2,2,0,0,1,1.48-.78,2.58,2.58,0,0,1,1.81.74A3.22,3.22,0,0,1,22.7,39l.56.05v.15l-1,1.18-.15-.12a2.49,2.49,0,0,0,.28-.88,1.53,1.53,0,0,0-.09-.75A2.26,2.26,0,0,0,22,38a2.1,2.1,0,0,0-.38-.41,1.82,1.82,0,0,0-1.24-.49,1.43,1.43,0,0,0-1.07.55,1.09,1.09,0,0,0-.24.43,1,1,0,0,0-.06.4,1.16,1.16,0,0,0,.14.46,3.06,3.06,0,0,0,.23.45c.07.12.18.3.34.54l.42.69a6.89,6.89,0,0,1,.32.66,2.61,2.61,0,0,1,.19.71,2.07,2.07,0,0,1-.49,1.38,2,2,0,0,1-1.55.78,3,3,0,0,1-2-.85,3.81,3.81,0,0,1-1.18-1.66l-.56,0Zm-2.41,1.11,2.66,2.23a3.58,3.58,0,0,1,1.38,2.5,3.76,3.76,0,0,1-1,2.78A3.72,3.72,0,0,1,13,51.57a3.6,3.6,0,0,1-2.7-.93L7.63,48.41l0-.07.66.33,4.55-5.43-.44-.58ZM15,45l-1.22-1-4.6,5.49,1.21,1a2.11,2.11,0,0,0,2,.45,4.39,4.39,0,0,0,2.22-1.6,4.56,4.56,0,0,0,1.21-2.48A2.12,2.12,0,0,0,15,45Zm9.83-8.12,2.83,1,.86-.86.16,0-.45,1.25L23,36.42l0-.08.72.08,2.4-6.6-.59-.44,0-.1,2.42.89,0,.1-.74-.05Zm-4.74,8.66.53-1.45.18.07a2.36,2.36,0,0,0,.06.93,1.9,1.9,0,0,0,.39.7,2.52,2.52,0,0,0,.52.43,3.25,3.25,0,0,0,.56.28,2.1,2.1,0,0,0,1.47.07,1.51,1.51,0,0,0,.9-1,1.43,1.43,0,0,0,.1-.62,1,1,0,0,0-.23-.54,2.66,2.66,0,0,0-.43-.45c-.15-.12-.37-.3-.68-.53l-.34-.25-.32-.25-.32-.27-.25-.27a1.28,1.28,0,0,1-.23-.31l-.13-.32a1.33,1.33,0,0,1-.09-.37,2.88,2.88,0,0,1,0-.39,1.85,1.85,0,0,1,.11-.45,2,2,0,0,1,1.12-1.24,2.59,2.59,0,0,1,2,.08,3.19,3.19,0,0,1,1.54,1.1l.53-.14.07.14L26.64,42l-.18-.07a2.53,2.53,0,0,0,0-.92,1.66,1.66,0,0,0-.33-.68,3,3,0,0,0-.47-.42,2.3,2.3,0,0,0-.49-.26,1.83,1.83,0,0,0-1.34,0,1.43,1.43,0,0,0-.82.88,1.23,1.23,0,0,0-.08.49,1.41,1.41,0,0,0,.08.4,1.36,1.36,0,0,0,.29.38c.15.15.27.26.38.35l.5.39c.27.2.48.37.63.5a6,6,0,0,1,.53.51,2.57,2.57,0,0,1,.41.6,2.13,2.13,0,0,1,.15.67,2.2,2.2,0,0,1-1.32,2.06,3,3,0,0,1-2.13-.13,3.74,3.74,0,0,1-1.68-1.15l-.55.14Zm-1.89,1.87,3.26,1.18a3.66,3.66,0,0,1,2.16,1.88,4.29,4.29,0,0,1-1.9,5.22,3.63,3.63,0,0,1-2.86,0l-3.26-1.19,0-.08.72.08,2.43-6.65-.61-.4Zm3.18,1.39-1.49-.54L17.47,55l1.49.54a2.11,2.11,0,0,0,2-.25A4.44,4.44,0,0,0,22.5,53a4.49,4.49,0,0,0,.28-2.74A2.11,2.11,0,0,0,21.41,48.78Z"/><path d="M70.62,13.56h5.32l.9-2h.31v2.34H67.29v-.15l1.25-.31V1.05L67.29.69V.5h4.57V.69l-1.24.36Z"/><path d="M85.93.5l5.4,12.89,1.23.36v.19H87.93v-.19l1.26-.36-1.61-3.9h-5.8l-1.69,3.9,1.69.36v.19H78.36v-.19l1.3-.36L85.29.5ZM84.76,2.61,82,9.08h5.46Z"/><path d="M93.07.5h6.15a5.71,5.71,0,0,1,3.34.89,2.82,2.82,0,0,1,1.27,2.45A2.84,2.84,0,0,1,103,5.93a4.39,4.39,0,0,1-2.28,1.12,5.15,5.15,0,0,1,2.67,1.17,2.88,2.88,0,0,1,1,2.23A2.9,2.9,0,0,1,103,13a6.63,6.63,0,0,1-3.73.94H93.07v-.15l1.25-.31V1L93.07.67Zm5.77.38H96.4v6h2.44a2.86,2.86,0,0,0,2.09-.76,3,3,0,0,0,.79-2.23,3,3,0,0,0-.8-2.22A2.84,2.84,0,0,0,98.84.88ZM96.4,13.56h2.44a3.63,3.63,0,0,0,2.49-.82,2.93,2.93,0,0,0,.93-2.33,2.91,2.91,0,0,0-.93-2.34,3.68,3.68,0,0,0-2.49-.81H96.4Z"/><path d="M105.91,7.22a6.92,6.92,0,0,1,1.78-5,6.83,6.83,0,0,1,9.37,0,6.89,6.89,0,0,1,1.8,5,6.87,6.87,0,0,1-1.8,5,6.86,6.86,0,0,1-9.37,0A6.9,6.9,0,0,1,105.91,7.22Zm2.17,0a8.38,8.38,0,0,0,1.18,4.84,3.64,3.64,0,0,0,3.12,1.69,3.6,3.6,0,0,0,3.11-1.69,8.38,8.38,0,0,0,1.18-4.84,8.46,8.46,0,0,0-1.18-4.87,3.61,3.61,0,0,0-3.11-1.7,3.65,3.65,0,0,0-3.12,1.7A8.46,8.46,0,0,0,108.08,7.24Z"/><path d="M130.65,4.15a3.17,3.17,0,0,1-.94,2.35,4.28,4.28,0,0,1-2.54,1.14A2.8,2.8,0,0,1,128.5,9L131,13.44l1.11.31v.19h-3l-3.49-6.2h-2.23v5.65l1.25.36v.19h-4.58v-.19l1.25-.36V1L120.12.67V.5h5.77a5.67,5.67,0,0,1,3.46,1A3.14,3.14,0,0,1,130.65,4.15Zm-5-3.27h-2.19V7.35h2.19a2.78,2.78,0,0,0,2.1-.82,3.33,3.33,0,0,0,.8-2.4,3.35,3.35,0,0,0-.8-2.41A2.76,2.76,0,0,0,125.64.88Z"/><path d="M140.14.5l5.4,12.89,1.23.36v.19h-4.63v-.19l1.27-.36-1.61-3.9H136l-1.69,3.9,1.69.36v.19h-3.42v-.19l1.31-.36L139.51.5ZM139,2.61l-2.8,6.47h5.45Z"/><path d="M156.57.88H153V13.39l1.25.36v.19h-4.58v-.19l1.25-.36V.88h-3.57l-.91,2h-.3V.5h11.66V2.86h-.33Z"/><path d="M159,7.22a6.93,6.93,0,0,1,1.79-5,6.82,6.82,0,0,1,9.36,0,6.89,6.89,0,0,1,1.8,5,6.87,6.87,0,0,1-1.8,5,6.84,6.84,0,0,1-9.36,0A6.9,6.9,0,0,1,159,7.22Zm2.17,0a8.46,8.46,0,0,0,1.18,4.84,3.72,3.72,0,0,0,6.24,0,8.46,8.46,0,0,0,1.17-4.84,8.55,8.55,0,0,0-1.17-4.87,3.71,3.71,0,0,0-6.24,0A8.54,8.54,0,0,0,161.12,7.24Z"/><path d="M183.7,4.15a3.2,3.2,0,0,1-.94,2.35,4.31,4.31,0,0,1-2.54,1.14A2.83,2.83,0,0,1,181.54,9l2.54,4.41,1.12.31v.19h-3l-3.5-6.2h-2.23v5.65l1.25.36v.19h-4.57v-.19l1.25-.36V1L173.17.67V.5h5.76a5.63,5.63,0,0,1,3.46,1A3.15,3.15,0,0,1,183.7,4.15Zm-5-3.27h-2.19V7.35h2.19a2.82,2.82,0,0,0,2.11-.82,3.32,3.32,0,0,0,.79-2.4,3.35,3.35,0,0,0-.79-2.41A2.79,2.79,0,0,0,178.68.88Z"/><path d="M187.46,1.05l4.19,6.63,4.25-6.63L194.28.69V.5h3.42V.69l-1.36.36-4.5,7.05v5.29l1.19.36v.19h-4.49v-.19l1.25-.36V8.1l-4.5-7L184.1.69V.5h4.63V.69Z"/><path d="M68,29.62V26.9h.35A4,4,0,0,0,69,28.4a3,3,0,0,0,1.06.93,4.59,4.59,0,0,0,2.23.52,3.72,3.72,0,0,0,2.49-.76,3,3,0,0,0,.71-3.25,1.9,1.9,0,0,0-.71-.76,5.67,5.67,0,0,0-1-.49c-.32-.11-.81-.27-1.46-.46l-.72-.22-.69-.22a6.75,6.75,0,0,1-.68-.26l-.59-.3a2.35,2.35,0,0,1-.56-.37l-.42-.46a1.86,1.86,0,0,1-.36-.55,4.48,4.48,0,0,1-.2-.67,3.88,3.88,0,0,1,1-3.56,4.64,4.64,0,0,1,3.3-1.06,5.79,5.79,0,0,1,3.23.91l.81-.56.19.19v2.73h-.35a4.39,4.39,0,0,0-.61-1.51,2.9,2.9,0,0,0-1-.92,4.47,4.47,0,0,0-1-.42,3.62,3.62,0,0,0-1-.13,3.23,3.23,0,0,0-2.24.75,2.49,2.49,0,0,0-.83,2,2.21,2.21,0,0,0,.53,1.48,2.28,2.28,0,0,0,.71.46c.34.16.62.27.84.35l1.07.34c.57.18,1,.33,1.36.46a10.82,10.82,0,0,1,1.18.53,4.08,4.08,0,0,1,1.06.75,3.58,3.58,0,0,1,.91,2.41,3.6,3.6,0,0,1-1.21,2.83,5.37,5.37,0,0,1-3.63,1.07,6.58,6.58,0,0,1-3.48-.9l-.82.58Z"/><path d="M78.88,23.3a6.88,6.88,0,0,1,1.78-5,6.8,6.8,0,0,1,9.37,0,6.85,6.85,0,0,1,1.8,5,6.87,6.87,0,0,1-1.8,5,6.86,6.86,0,0,1-9.37,0A6.9,6.9,0,0,1,78.88,23.3Zm2.17,0a8.36,8.36,0,0,0,1.18,4.84,3.72,3.72,0,0,0,6.23,0,8.44,8.44,0,0,0,1.18-4.84,8.56,8.56,0,0,0-1.18-4.87,3.7,3.7,0,0,0-6.23,0A8.49,8.49,0,0,0,81.05,23.32Z"/><path d="M100.68,23.28H96.42v6.19l1.82.37V30H93.09v-.19l1.25-.37V17l-1.25-.29v-.17h10.09v2.36h-.33L102,17H96.42v5.92h4.26l.41-1.5h.3v3.4h-.3Z"/><path d="M115.26,17h-3.59V29.47l1.25.37V30h-4.57v-.19l1.25-.37V17H106l-.9,2h-.31V16.58h11.66v2.36h-.32Z"/><path d="M132.56,30l-4.08-9.76-4,9.76h-.62l-5.4-12.89-1.23-.37v-.19h4.63v.19l-1.26.37L125,27.91l3.25-8.14-1.11-2.63-1.23-.37v-.19h4.63v.19l-1.27.37,4.42,10.77,4.34-10.77-1.69-.37v-.19h3.42v.19l-1.31.37L133.19,30Z"/><path d="M144.35,16.58l5.4,12.89,1.23.37V30h-4.63v-.19l1.27-.37L146,25.57h-5.8l-1.69,3.9,1.69.37V30h-3.42v-.19l1.31-.37,5.63-12.89Zm-1.17,2.11-2.81,6.48h5.46Z"/><path d="M162,20.23a3.15,3.15,0,0,1-.94,2.35,4.26,4.26,0,0,1-2.53,1.15,2.76,2.76,0,0,1,1.32,1.38l2.54,4.42,1.11.31V30h-3l-3.5-6.21h-2.23v5.65l1.25.37V30H151.5v-.19l1.25-.37V17l-1.25-.29v-.17h5.76a5.63,5.63,0,0,1,3.46,1A3.15,3.15,0,0,1,162,20.23ZM157,17h-2.19v6.48H157a2.79,2.79,0,0,0,2.1-.83,3.28,3.28,0,0,0,.8-2.4,3.33,3.33,0,0,0-.8-2.41A2.76,2.76,0,0,0,157,17Z"/><path d="M167.48,29.64h6l.9-2h.31V30H164.16v-.16l1.25-.3V17l-1.25-.29v-.17h10.33v2.36h-.3l-.91-2h-5.8v5.92h4.69l.4-1.5h.29v3.4h-.29l-.4-1.5h-4.69Z"/><path d="M67.29,32.66h6.13a6.39,6.39,0,0,1,4.73,1.82A6.66,6.66,0,0,1,80,39.39a6.64,6.64,0,0,1-1.8,4.91,6.38,6.38,0,0,1-4.73,1.81H67.29V46l1.25-.31V33.12l-1.25-.28Zm6.13.39h-2.8V45.73h2.8a3.72,3.72,0,0,0,3.17-1.63,7.86,7.86,0,0,0,1.19-4.69,8,8,0,0,0-1.19-4.73A3.72,3.72,0,0,0,73.42,33.05Z"/><path d="M84.56,45.73h6l.9-2h.31v2.34H81.24V46l1.25-.31V33.12l-1.25-.28v-.18H91.58V35h-.31l-.9-2H84.56V39h4.69l.4-1.5h.29v3.41h-.29l-.4-1.5H84.56Z"/><path d="M99.7,46.11,94.15,33.22l-1.23-.37v-.19h4.63v.19l-1.27.37L100.85,44l4.54-10.78-1.69-.37v-.19h3.42v.19l-1.31.37-5.47,12.89Z"/><path d="M111,45.73h6l.91-2h.3v2.34H107.64V46l1.25-.31V33.12l-1.25-.28v-.18H118V35h-.3l-.91-2H111V39h4.69l.4-1.5h.29v3.41h-.29l-.4-1.5H111Z"/><path d="M122.85,45.73h5.32l.91-2h.3v2.34h-9.85V46l1.25-.31V33.22l-1.25-.37v-.19h4.57v.19l-1.25.37Z"/><path d="M130.65,39.39a6.89,6.89,0,0,1,1.79-5,6.83,6.83,0,0,1,9.37,0,6.89,6.89,0,0,1,1.79,5,6.88,6.88,0,0,1-1.79,5,6.83,6.83,0,0,1-9.37,0A6.88,6.88,0,0,1,130.65,39.39Zm2.17,0A8.46,8.46,0,0,0,134,44.25a3.72,3.72,0,0,0,6.24,0,8.46,8.46,0,0,0,1.17-4.84,8.52,8.52,0,0,0-1.17-4.87,3.71,3.71,0,0,0-6.24,0A8.52,8.52,0,0,0,132.82,39.41Z"/><path d="M150,33.05h-1.85v12.5l1.92.37v.19h-5.24v-.19l1.25-.37V33.12l-1.25-.28v-.18h5.42a6.16,6.16,0,0,1,3.72,1,3.47,3.47,0,0,1,0,5.61,6.16,6.16,0,0,1-3.72,1h-1.56l-.25-.25V40H150a3.21,3.21,0,0,0,2.39-.89,3.45,3.45,0,0,0,.89-2.56,3.46,3.46,0,0,0-.89-2.57A3.21,3.21,0,0,0,150,33.05Z"/><path d="M171.65,33.22l.88,12.33,1.19.37v.19h-4.49v-.19l1.25-.37-.81-11.12-4.94,11.68h-.63l-5-11.7-.83,11.18,1.17.37v.15h-2.82V46l1.25-.37.9-12.37-1.25-.37v-.19h2.94L165.25,44,170,32.66h2.82v.19Z"/><path d="M177.7,45.73h6l.9-2h.31v2.34H174.38V46l1.25-.31V33.12l-1.25-.28v-.18h10.33V35h-.3l-.91-2h-5.8V39h4.69l.4-1.5h.29v3.41h-.29l-.4-1.5H177.7Z"/><path d="M186.27,46l1.25-.37V33.22l-1.25-.37v-.19h3.42l7.59,10.57v-10L196,32.84v-.18h2.9v.18l-1.25.34V46.11h-.59l-9.17-12.72v12.2l1.25.37v.15h-2.9Z"/><path d="M210.38,33.05h-3.59v12.5l1.25.37v.19h-4.58v-.19l1.25-.37V33.05h-3.57l-.9,2h-.31V32.66h11.66V35h-.32Z"/><path d="M71.39,55.58a2,2,0,0,1-3.86,1l0,1h-.2V52.15h.24v2.44a2,2,0,0,1,3.86,1Zm-.24,0a1.77,1.77,0,0,0-1.81-1.85,1.85,1.85,0,0,0,0,3.7A1.77,1.77,0,0,0,71.15,55.58Z"/><path d="M75.76,53.57l-2.05,4.37C73.32,58.77,73,59,72.34,59H72v-.22h.3c.55,0,.83-.17,1.17-.91l.25-.51-1.88-3.79h.27l1.73,3.52,1.64-3.52Z"/><path d="M78.2,56.06h.25A1.39,1.39,0,0,0,80,57.41a1.3,1.3,0,0,0,1.47-1.23c0-.82-.73-1-1.51-1.15s-1.67-.37-1.67-1.34S79,52.32,80,52.32a1.45,1.45,0,0,1,1.62,1.45h-.24A1.22,1.22,0,0,0,80,52.56c-.86,0-1.43.44-1.43,1.13s.74.94,1.51,1.11,1.68.38,1.68,1.38A1.53,1.53,0,0,1,80,57.64,1.62,1.62,0,0,1,78.2,56.06Z"/><path d="M82.55,55a2.57,2.57,0,0,1,2.65-2.68A2.43,2.43,0,0,1,87.6,54h-.25a2.2,2.2,0,0,0-2.15-1.4,2.44,2.44,0,0,0,0,4.87,2.23,2.23,0,0,0,2.19-1.49h.25a2.46,2.46,0,0,1-2.44,1.73A2.56,2.56,0,0,1,82.55,55Z"/><path d="M88.66,55.67V52.38h.24v3.27a1.7,1.7,0,1,0,3.4,0V52.38h.25v3.29a1.95,1.95,0,1,1-3.89,0Z"/><path d="M94.08,52.38h.24v5.2h-.24Z"/><path d="M95.93,52.38h.24v5.2h-.24Z"/><path d="M97.77,52.38H98v5.2h-.24Z"/><path d="M103,54a1.56,1.56,0,0,1-1.64,1.56h-1.5v2.07h-.25v-5.2h1.75A1.57,1.57,0,0,1,103,54Zm-.25,0a1.33,1.33,0,0,0-1.39-1.33h-1.5v2.65h1.5A1.32,1.32,0,0,0,102.75,54Z"/><path d="M107.07,52.61h-1.7v5h-.24v-5h-1.7v-.23h3.64Z"/><path d="M107.38,55a2.69,2.69,0,1,1,2.69,2.67A2.6,2.6,0,0,1,107.38,55Zm5.12,0a2.44,2.44,0,1,0-2.43,2.43A2.37,2.37,0,0,0,112.5,55Z"/><path d="M116.07,55.31l1.36,2.27h-.28l-1.35-2.25h-1.59v2.25H114v-5.2h1.89a1.48,1.48,0,0,1,1.58,1.48A1.45,1.45,0,0,1,116.07,55.31Zm-1.86-.22h1.63a1.24,1.24,0,1,0,0-2.47h-1.63Z"/><path d="M124.79,55.58a2,2,0,0,1-3.86,1V59h-.24V53.57h.19l0,1a2,2,0,0,1,3.87,1Zm-.24,0a1.77,1.77,0,0,0-1.81-1.85,1.85,1.85,0,0,0,0,3.7A1.77,1.77,0,0,0,124.55,55.58Z"/><path d="M127.9,53.56v.23h-.36a1.41,1.41,0,0,0-1.4,1.54v2.25h-.23v-4h.18l0,.91a1.5,1.5,0,0,1,1.43-.92Z"/><path d="M128.19,55.58a2.09,2.09,0,1,1,2.09,2.08A2,2,0,0,1,128.19,55.58Zm3.93,0a1.85,1.85,0,1,0-1.84,1.85A1.79,1.79,0,0,0,132.12,55.58Z"/><path d="M137.22,52.15v5.43H137l0-1a2,2,0,0,1-1.82,1.1,2.09,2.09,0,0,1,0-4.17A2,2,0,0,1,137,54.58V52.15ZM137,55.58a1.82,1.82,0,1,0-3.63,0,1.82,1.82,0,1,0,3.63,0Z"/><path d="M138.46,57.12h.36v.46h-.36Z"/></svg>