<?xml version="1.0" encoding="utf-8"?>
<!-- Generator: Adobe Illustrator 23.0.5, SVG Export Plug-In . SVG Version: 6.00 Build 0)  -->
<svg version="1.1" id="Слой_1" xmlns="http://www.w3.org/2000/svg" xmlns:xlink="http://www.w3.org/1999/xlink" x="0px" y="0px"
	 viewBox="0 0 731 287" style="enable-background:new 0 0 731 287;" xml:space="preserve">
<path d="M203.7,0.3c-78,0-141.6,63.1-142,141.1c-0.4,80.4,62.9,144.6,143.1,145.3c0.4,0,0.8,0,1.1,0c75.6,0,140.6-64.5,141.5-140.8
	C348.3,65.5,285.1,0.9,204.8,0.3C204.4,0.3,204.1,0.3,203.7,0.3C203.7,0.3,203.7,0.3,203.7,0.3z M204.3,202.2c-0.1,0-0.1,0-0.2,0
	c-32.7-0.1-58.1-25.5-58.2-58.1c-0.1-34.3,24.6-59.9,57.9-59.9h0.1c33.5,0.1,59.5,25.7,59.5,58.9
	C263.4,176.4,237.6,202.2,204.3,202.2L204.3,202.2L204.3,202.2z"/>
<path d="M445.1,0.3c-13.6,0-26.9,0.1-40.2,0.7c-3.7,0.2-8.7,8.2-10.1,13.3c-21.4,78.6-42.2,157.4-63.2,236.1
	c-2.9,11-5.8,22.1-9.4,36.1c14.6,0,28.1,0.2,41.2,0.2c12,0,23.5-0.2,35.1-0.9c4.9-0.3,12.1-8,13.6-13.6
	c21.7-79.1,42.6-158.5,63.7-237.8c2.8-10.5,5.4-21,8.7-34.2C470.9,0.4,457.9,0.3,445.1,0.3L445.1,0.3L445.1,0.3z"/>
<path d="M43,202.6c-22.6,0-41.4,18.6-41.6,41.3c-0.2,23,18.3,42.3,41,42.7c0.2,0,0.5,0,0.7,0c22.6,0,41-18.4,41.2-41.4
	c0.2-23.5-17.7-42.3-40.7-42.5C43.3,202.6,43.1,202.6,43,202.6L43,202.6L43,202.6z"/>
<path d="M691.8,0.3c-13.6,0-26.9,0.1-40.2,0.7c-3.7,0.2-8.7,8.2-10.1,13.3c-21.4,78.6-42.2,157.4-63.2,236.1
	c-2.9,11-5.8,22.1-9.4,36.1c14.6,0,28.1,0.2,41.2,0.2c12,0,23.5-0.2,35.1-0.9c4.9-0.3,12.1-8,13.6-13.6
	c21.7-79.1,42.6-158.5,63.7-237.8c2.8-10.5,5.4-21,8.7-34.2C717.5,0.4,704.5,0.3,691.8,0.3L691.8,0.3L691.8,0.3z"/>
<path d="M569.1,0.3c-13.6,0-26.9,0.1-40.2,0.7c-3.7,0.2-8.7,8.2-10.1,13.3c-21.4,78.6-42.2,157.4-63.2,236.1
	c-2.9,11-5.8,22.1-9.4,36.1c14.6,0,28.1,0.2,41.2,0.2c12,0,23.5-0.2,35.1-0.9c4.9-0.3,12.1-8,13.6-13.6
	c21.7-79.1,42.6-158.5,63.7-237.8c2.8-10.5,5.4-21,8.7-34.2C594.9,0.4,581.9,0.3,569.1,0.3L569.1,0.3L569.1,0.3z"/>
</svg>
