<?xml version="1.0" encoding="utf-8"?>
<!-- Generator: Adobe Illustrator 23.0.5, SVG Export Plug-In . SVG Version: 6.00 Build 0)  -->
<svg version="1.1" id="Слой_1" xmlns="http://www.w3.org/2000/svg" xmlns:xlink="http://www.w3.org/1999/xlink" x="0px" y="0px"
	 viewBox="0 0 524 122" style="enable-background:new 0 0 524 122;" xml:space="preserve">
<style type="text/css">
	.st0{fill:#DFFE02;}
</style>
<g>
	<path class="st0" d="M78.2,6.1C48,6.1,23.5,30.4,23.3,60.6c-0.2,31.1,24.3,55.9,55.3,56.1c0.1,0,0.3,0,0.4,0
		c29.2,0,54.3-24.9,54.7-54.4c0.4-31-24.1-56-55.1-56.2C78.5,6.1,78.3,6.1,78.2,6.1C78.2,6.1,78.2,6.1,78.2,6.1z M78.4,84.1
		C78.4,84.1,78.4,84.1,78.4,84.1c-12.7,0-22.5-9.8-22.6-22.4c0-13.2,9.5-23.1,22.4-23.1h0c13,0,23,9.9,23,22.8
		C101.2,74.1,91.3,84.1,78.4,84.1L78.4,84.1L78.4,84.1z"/>
	<path class="st0" d="M173,6.1c-5.2,0-10.4,0.1-15.5,0.3c-1.4,0.1-3.4,3.2-3.9,5.2c-8.3,30.4-16.3,60.8-24.4,91.2
		c-1.1,4.3-2.2,8.5-3.6,13.9c5.6,0,10.9,0.1,15.9,0.1c4.6,0,9.1-0.1,13.5-0.3c1.9-0.1,4.7-3.1,5.2-5.2c8.4-30.6,16.5-61.2,24.6-91.9
		c1.1-4.1,2.1-8.1,3.4-13.2C183,6.1,177.9,6.1,173,6.1L173,6.1L173,6.1z"/>
	<path class="st0" d="M16.1,84.2c-8.7,0-16,7.2-16.1,16c-0.1,8.9,7.1,16.3,15.8,16.5c0.1,0,0.2,0,0.3,0c8.7,0,15.8-7.1,15.9-16
		c0.1-9.1-6.9-16.3-15.7-16.4C16.2,84.2,16.2,84.2,16.1,84.2L16.1,84.2L16.1,84.2z"/>
</g>
<g>
	<path class="st0" d="M246.1,6.1c-30.1,0-54.7,24.4-54.9,54.5c-0.2,31.1,24.3,55.9,55.3,56.1c0.1,0,0.3,0,0.4,0
		c29.2,0,54.3-24.9,54.7-54.4c0.4-31-24.1-56-55.1-56.2C246.4,6.1,246.2,6.1,246.1,6.1C246.1,6.1,246.1,6.1,246.1,6.1z M246.3,84.1
		C246.3,84.1,246.3,84.1,246.3,84.1c-12.7,0-22.5-9.8-22.6-22.4c0-13.2,9.5-23.1,22.4-23.1h0c13,0,23,9.9,23,22.8
		C269.2,74.1,259.2,84.1,246.3,84.1L246.3,84.1L246.3,84.1z"/>
	<path class="st0" d="M340.9,6.1c-5.2,0-10.4,0.1-15.5,0.3c-1.4,0.1-3.4,3.2-3.9,5.2c-8.3,30.4-16.3,60.8-24.4,91.2
		c-1.1,4.3-2.2,8.5-3.6,13.9c5.6,0,10.9,0.1,15.9,0.1c4.6,0,9.1-0.1,13.5-0.3c1.9-0.1,4.7-3.1,5.2-5.2c8.4-30.6,16.5-61.2,24.6-91.9
		c1.1-4.1,2.1-8.1,3.4-13.2C350.9,6.1,345.9,6.1,340.9,6.1L340.9,6.1L340.9,6.1z"/>
	<path class="st0" d="M184,84.2c-8.7,0-16,7.2-16.1,16c-0.1,8.9,7.1,16.3,15.8,16.5c0.1,0,0.2,0,0.3,0c8.7,0,15.8-7.1,15.9-16
		c0.1-9.1-6.9-16.3-15.7-16.4C184.1,84.2,184.1,84.2,184,84.2L184,84.2L184,84.2z"/>
</g>
<g>
	<path class="st0" d="M414,6.1c-30.1,0-54.7,24.4-54.9,54.5c-0.2,31.1,24.3,55.9,55.3,56.1c0.1,0,0.3,0,0.4,0
		c29.2,0,54.3-24.9,54.7-54.4c0.4-31-24.1-56-55.1-56.2C414.3,6.1,414.2,6.1,414,6.1C414,6.1,414,6.1,414,6.1z M414.3,84.1
		C414.2,84.1,414.2,84.1,414.3,84.1c-12.7,0-22.5-9.8-22.6-22.4c0-13.2,9.5-23.1,22.4-23.1h0c13,0,23,9.9,23,22.8
		C437.1,74.1,427.1,84.1,414.3,84.1L414.3,84.1L414.3,84.1z"/>
	<path class="st0" d="M508.8,6.1c-5.2,0-10.4,0.1-15.5,0.3c-1.4,0.1-3.4,3.2-3.9,5.2c-8.3,30.4-16.3,60.8-24.4,91.2
		c-1.1,4.3-2.2,8.5-3.6,13.9c5.6,0,10.9,0.1,15.9,0.1c4.6,0,9.1-0.1,13.5-0.3c1.9-0.1,4.7-3.1,5.2-5.2c8.4-30.6,16.5-61.2,24.6-91.9
		c1.1-4.1,2.1-8.1,3.4-13.2C518.8,6.1,513.8,6.1,508.8,6.1L508.8,6.1L508.8,6.1z"/>
	<path class="st0" d="M351.9,84.2c-8.7,0-16,7.2-16.1,16c-0.1,8.9,7.1,16.3,15.8,16.5c0.1,0,0.2,0,0.3,0c8.7,0,15.8-7.1,15.9-16
		c0.1-9.1-6.9-16.3-15.7-16.4C352.1,84.2,352,84.2,351.9,84.2L351.9,84.2L351.9,84.2z"/>
</g>
</svg>
