<?xml version="1.0" encoding="utf-8"?>
<!-- Generator: Adobe Illustrator 23.0.5, SVG Export Plug-In . SVG Version: 6.00 Build 0)  -->
<svg version="1.1" id="Графическая_часть_1_"
	 xmlns="http://www.w3.org/2000/svg" xmlns:xlink="http://www.w3.org/1999/xlink" x="0px" y="0px" viewBox="0 0 279.8 84.8"
	 style="enable-background:new 0 0 279.8 84.8;" xml:space="preserve">
<style type="text/css">
	.st0{display:none;}
	.st1{fill:#FFFFFF;}
</style>
<g class="st0">
	<rect x="-66.3" y="643.7" style="display:inline;fill:none;" width="792.2" height="289.8"/>
	<text transform="matrix(1 0 0 1 -66.2501 706.0467)" style="display:inline;"><tspan x="0" y="0" style="font-family:'Montserrat-Medium'; font-size:84px;">volgograd </tspan><tspan x="0" y="71" style="font-family:'Montserrat-Medium'; font-size:84px;">state </tspan><tspan x="0" y="142" style="font-family:'Montserrat-Medium'; font-size:84px;">technical </tspan><tspan x="0" y="213" style="font-family:'Montserrat-Medium'; font-size:84px;">university</tspan></text>
</g>
<g>
	<path class="st1" d="M24.6,22.8h-9c-7.4,0-11.8,5.3-7.1,13.6c0.3,0.5,0.8,1.5,0.8,1.5l-3.8,5.4c-9-13.9-4.6-24.9,7.3-26.7
		c0.9-0.2,1.8-0.3,3.7-0.4h78.7L55.1,73.5c-4,5.6-8.8,9.7-15.8,10.7c-3.5,0.5-7,0.4-10.6-0.8l3.8-5.4c0,0,1.5,0.2,2.1,0.3
		c5.3,0.2,9.5-1.5,13-5.3c0.9-1,1.4-2.1,1.3-3.5v-15l6.7-9.6v16.3l26.8-38.3l-48.5,0c-1.4,0-2.5,0.5-3.3,1.6L10.9,52.7L7.6,47
		L24.6,22.8z"/>
	<path class="st1" d="M16.4,62.2l-3.3-5.7l19.7-28.2c0.9-1.2,1.7-2.2,3.4-2.2h27.8L26.5,79.7l-3.3-5.7l27.5-39.2
		c0.8-1.1,0.5-1.8-0.5-2c-1.3-0.2-2.3,0.6-3.3,2L21.5,70.9l-3.3-5.7l21.5-30.7c0.6-0.8,0.2-1.6-0.7-1.7c-1.5-0.2-2.4,0.6-3.3,2
		L16.4,62.2z"/>
</g>
<g>
	<g>
		<path class="st1" d="M124.8,1.4L117,19.3h-2.5l-7.9-17.9h2.8l6.5,14.7l6.5-14.7H124.8z"/>
		<path class="st1" d="M130.1,18.3c-1.5-0.8-2.6-1.9-3.4-3.3c-0.8-1.4-1.2-3-1.2-4.7c0-1.7,0.4-3.3,1.2-4.7c0.8-1.4,2-2.5,3.4-3.3
			c1.5-0.8,3.1-1.2,4.9-1.2c1.8,0,3.4,0.4,4.9,1.2c1.5,0.8,2.6,1.9,3.4,3.3c0.8,1.4,1.2,3,1.2,4.7s-0.4,3.3-1.2,4.7
			c-0.8,1.4-2,2.5-3.4,3.3c-1.5,0.8-3.1,1.2-4.9,1.2C133.2,19.5,131.6,19.1,130.1,18.3z M138.6,16.3c1.1-0.6,1.9-1.4,2.5-2.5
			c0.6-1.1,0.9-2.2,0.9-3.5c0-1.3-0.3-2.5-0.9-3.5c-0.6-1.1-1.4-1.9-2.5-2.5c-1.1-0.6-2.2-0.9-3.5-0.9c-1.3,0-2.5,0.3-3.6,0.9
			c-1.1,0.6-1.9,1.4-2.5,2.5c-0.6,1.1-0.9,2.2-0.9,3.5c0,1.3,0.3,2.5,0.9,3.5c0.6,1.1,1.4,1.9,2.5,2.5c1.1,0.6,2.3,0.9,3.6,0.9
			C136.3,17.2,137.5,16.9,138.6,16.3z"/>
		<path class="st1" d="M148.5,1.4h2.6v15.7h9.7v2.2h-12.3V1.4z"/>
		<path class="st1" d="M175.8,10.2h2.5v7c-0.9,0.7-1.9,1.3-3.1,1.7c-1.2,0.4-2.4,0.6-3.7,0.6c-1.8,0-3.4-0.4-4.9-1.2
			c-1.5-0.8-2.6-1.9-3.4-3.3c-0.8-1.4-1.2-3-1.2-4.7s0.4-3.3,1.2-4.7c0.8-1.4,2-2.5,3.4-3.3c1.5-0.8,3.1-1.2,4.9-1.2
			c1.4,0,2.7,0.2,3.9,0.7c1.2,0.5,2.2,1.2,3,2.1l-1.6,1.6c-1.4-1.4-3.2-2.1-5.2-2.1c-1.4,0-2.6,0.3-3.7,0.9
			c-1.1,0.6-1.9,1.4-2.6,2.5c-0.6,1.1-0.9,2.2-0.9,3.5c0,1.3,0.3,2.5,0.9,3.5c0.6,1.1,1.5,1.9,2.6,2.5c1.1,0.6,2.3,0.9,3.7,0.9
			c1.6,0,3-0.4,4.2-1.2V10.2z"/>
		<path class="st1" d="M186.3,18.3c-1.5-0.8-2.6-1.9-3.4-3.3c-0.8-1.4-1.2-3-1.2-4.7c0-1.7,0.4-3.3,1.2-4.7c0.8-1.4,2-2.5,3.4-3.3
			c1.5-0.8,3.1-1.2,4.9-1.2c1.8,0,3.4,0.4,4.9,1.2c1.5,0.8,2.6,1.9,3.4,3.3c0.8,1.4,1.2,3,1.2,4.7s-0.4,3.3-1.2,4.7
			c-0.8,1.4-2,2.5-3.4,3.3c-1.5,0.8-3.1,1.2-4.9,1.2C189.4,19.5,187.8,19.1,186.3,18.3z M194.8,16.3c1.1-0.6,1.9-1.4,2.5-2.5
			c0.6-1.1,0.9-2.2,0.9-3.5c0-1.3-0.3-2.5-0.9-3.5c-0.6-1.1-1.4-1.9-2.5-2.5c-1.1-0.6-2.2-0.9-3.5-0.9c-1.3,0-2.5,0.3-3.6,0.9
			c-1.1,0.6-1.9,1.4-2.5,2.5c-0.6,1.1-0.9,2.2-0.9,3.5c0,1.3,0.3,2.5,0.9,3.5c0.6,1.1,1.4,1.9,2.5,2.5c1.1,0.6,2.3,0.9,3.6,0.9
			C192.5,17.2,193.7,16.9,194.8,16.3z"/>
		<path class="st1" d="M217.1,10.2h2.5v7c-0.9,0.7-1.9,1.3-3.1,1.7c-1.2,0.4-2.4,0.6-3.7,0.6c-1.8,0-3.4-0.4-4.9-1.2
			c-1.5-0.8-2.6-1.9-3.4-3.3c-0.8-1.4-1.2-3-1.2-4.7s0.4-3.3,1.2-4.7c0.8-1.4,2-2.5,3.4-3.3c1.5-0.8,3.1-1.2,4.9-1.2
			c1.4,0,2.7,0.2,3.9,0.7c1.2,0.5,2.2,1.2,3,2.1l-1.6,1.6c-1.4-1.4-3.2-2.1-5.2-2.1c-1.4,0-2.6,0.3-3.7,0.9
			c-1.1,0.6-1.9,1.4-2.6,2.5c-0.6,1.1-0.9,2.2-0.9,3.5c0,1.3,0.3,2.5,0.9,3.5c0.6,1.1,1.5,1.9,2.6,2.5c1.1,0.6,2.3,0.9,3.7,0.9
			c1.6,0,3-0.4,4.2-1.2V10.2z"/>
		<path class="st1" d="M236.4,19.3l-3.9-5.5c-0.5,0-0.9,0.1-1.1,0.1H227v5.5h-2.6V1.4h7c2.3,0,4.2,0.6,5.5,1.7c1.3,1.1,2,2.6,2,4.6
			c0,1.4-0.3,2.6-1,3.5c-0.7,1-1.7,1.7-2.9,2.1l4.3,6H236.4z M235.1,10.6c0.9-0.7,1.3-1.7,1.3-3s-0.4-2.3-1.3-3
			c-0.9-0.7-2.1-1-3.7-1H227v8.1h4.4C233,11.7,234.2,11.3,235.1,10.6z"/>
		<path class="st1" d="M254.5,14.8H245l-2,4.5h-2.6l8.1-17.9h2.5l8.1,17.9h-2.7L254.5,14.8z M253.6,12.8L249.7,4l-3.9,8.8H253.6z"/>
		<path class="st1" d="M261.8,1.4h7.6c1.9,0,3.6,0.4,5,1.1c1.5,0.8,2.6,1.8,3.4,3.2c0.8,1.4,1.2,2.9,1.2,4.7c0,1.8-0.4,3.3-1.2,4.7
			c-0.8,1.4-2,2.4-3.4,3.2c-1.5,0.8-3.2,1.1-5,1.1h-7.6V1.4z M269.2,17.1c1.5,0,2.7-0.3,3.8-0.8c1.1-0.6,2-1.4,2.5-2.4
			c0.6-1,0.9-2.2,0.9-3.5c0-1.3-0.3-2.5-0.9-3.5c-0.6-1-1.4-1.8-2.5-2.4c-1.1-0.6-2.4-0.8-3.8-0.8h-4.8v13.5H269.2z"/>
		<path class="st1" d="M110.6,40.5c-1.3-0.4-2.2-1-3-1.6l0.9-2c0.7,0.6,1.6,1.1,2.6,1.5c1.1,0.4,2.2,0.6,3.3,0.6
			c1.5,0,2.6-0.3,3.3-0.8c0.7-0.5,1.1-1.2,1.1-2c0-0.6-0.2-1.1-0.6-1.5c-0.4-0.4-0.9-0.7-1.5-0.9c-0.6-0.2-1.4-0.4-2.5-0.7
			c-1.3-0.3-2.4-0.6-3.3-1c-0.8-0.3-1.5-0.8-2.1-1.5c-0.6-0.7-0.9-1.6-0.9-2.7c0-1,0.3-1.8,0.8-2.6c0.5-0.8,1.3-1.4,2.3-1.8
			s2.3-0.7,3.8-0.7c1.1,0,2.1,0.1,3.1,0.4c1,0.3,1.9,0.7,2.6,1.2l-0.8,2.1c-0.8-0.5-1.6-0.8-2.4-1.1c-0.9-0.2-1.7-0.4-2.5-0.4
			c-1.5,0-2.5,0.3-3.3,0.8c-0.7,0.5-1.1,1.2-1.1,2.1c0,0.6,0.2,1.1,0.6,1.5c0.4,0.4,0.9,0.7,1.5,0.9c0.6,0.2,1.4,0.4,2.5,0.7
			c1.3,0.3,2.4,0.6,3.3,1c0.8,0.3,1.5,0.8,2.1,1.5c0.6,0.7,0.9,1.6,0.9,2.7c0,0.9-0.3,1.8-0.8,2.6c-0.5,0.8-1.3,1.4-2.3,1.8
			c-1,0.5-2.3,0.7-3.8,0.7C113.1,41.2,111.8,40.9,110.6,40.5z"/>
		<path class="st1" d="M128.5,25.2h-6.2V23h14.8v2.2H131V41h-2.5V25.2z"/>
		<path class="st1" d="M150.5,36.5h-9.5l-2,4.5h-2.6l8.1-17.9h2.5l8.1,17.9h-2.7L150.5,36.5z M149.6,34.4l-3.9-8.8l-3.9,8.8H149.6z"
			/>
		<path class="st1" d="M160.5,25.2h-6.2V23h14.8v2.2H163V41h-2.5V25.2z"/>
		<path class="st1" d="M185,38.7V41h-13V23h12.7v2.2h-10.1v5.5h9v2.2h-9v5.8H185z"/>
		<path class="st1" d="M112.8,46.9h-6.2v-2.2h14.8v2.2h-6.2v15.7h-2.5V46.9z"/>
		<path class="st1" d="M137.3,60.4v2.2h-13V44.7h12.7v2.2h-10.1v5.5h9v2.2h-9v5.8H137.3z"/>
		<path class="st1" d="M144.5,61.6c-1.4-0.8-2.6-1.9-3.4-3.3c-0.8-1.4-1.2-3-1.2-4.7s0.4-3.3,1.2-4.7c0.8-1.4,2-2.5,3.4-3.3
			c1.5-0.8,3.1-1.2,4.9-1.2c1.4,0,2.7,0.2,3.8,0.7c1.2,0.5,2.2,1.2,3,2.1l-1.7,1.6c-1.3-1.4-3-2.1-5-2.1c-1.3,0-2.5,0.3-3.6,0.9
			c-1.1,0.6-1.9,1.4-2.5,2.5c-0.6,1.1-0.9,2.2-0.9,3.5c0,1.3,0.3,2.5,0.9,3.5c0.6,1.1,1.4,1.9,2.5,2.5c1.1,0.6,2.3,0.9,3.6,0.9
			c2,0,3.7-0.7,5-2.2l1.7,1.6c-0.8,0.9-1.8,1.6-3,2.1c-1.2,0.5-2.5,0.7-3.9,0.7C147.6,62.8,146,62.4,144.5,61.6z"/>
		<path class="st1" d="M175.3,44.7v17.9h-2.6v-8h-10.3v8h-2.6V44.7h2.6v7.7h10.3v-7.7H175.3z"/>
		<path class="st1" d="M196.1,44.7v17.9H194l-10.8-13.4v13.4h-2.6V44.7h2.1l10.8,13.4V44.7H196.1z"/>
		<path class="st1" d="M201.5,44.7h2.6v17.9h-2.6V44.7z"/>
		<path class="st1" d="M212.6,61.6c-1.4-0.8-2.6-1.9-3.4-3.3c-0.8-1.4-1.2-3-1.2-4.7s0.4-3.3,1.2-4.7c0.8-1.4,2-2.5,3.4-3.3
			c1.5-0.8,3.1-1.2,4.9-1.2c1.4,0,2.7,0.2,3.8,0.7c1.2,0.5,2.2,1.2,3,2.1l-1.7,1.6c-1.3-1.4-3-2.1-5-2.1c-1.3,0-2.5,0.3-3.6,0.9
			c-1.1,0.6-1.9,1.4-2.5,2.5c-0.6,1.1-0.9,2.2-0.9,3.5c0,1.3,0.3,2.5,0.9,3.5c0.6,1.1,1.4,1.9,2.5,2.5c1.1,0.6,2.3,0.9,3.6,0.9
			c2,0,3.7-0.7,5-2.2l1.7,1.6c-0.8,0.9-1.8,1.6-3,2.1c-1.2,0.5-2.5,0.7-3.9,0.7C215.7,62.8,214.1,62.4,212.6,61.6z"/>
		<path class="st1" d="M239,58.1h-9.5l-2,4.5h-2.6l8.1-17.9h2.5l8.1,17.9H241L239,58.1z M238.1,56.1l-3.9-8.8l-3.9,8.8H238.1z"/>
		<path class="st1" d="M246.3,44.7h2.6v15.7h9.7v2.2h-12.3V44.7z"/>
		<path class="st1" d="M111.1,82.4c-1.3-1.4-2-3.3-2-5.9V66.3h2.6v10.1c0,3.8,1.7,5.8,5,5.8c1.6,0,2.9-0.5,3.8-1.4
			c0.9-0.9,1.3-2.4,1.3-4.3V66.3h2.5v10.2c0,2.6-0.7,4.5-2,5.9c-1.3,1.4-3.2,2-5.6,2C114.3,84.5,112.4,83.8,111.1,82.4z"/>
		<path class="st1" d="M144.9,66.3v17.9h-2.1l-10.8-13.4v13.4h-2.6V66.3h2.1l10.8,13.4V66.3H144.9z"/>
		<path class="st1" d="M150.3,66.3h2.6v17.9h-2.6V66.3z"/>
		<path class="st1" d="M173.7,66.3l-7.9,17.9h-2.5l-7.9-17.9h2.8l6.5,14.7l6.5-14.7H173.7z"/>
		<path class="st1" d="M189,82v2.2h-13V66.3h12.7v2.2h-10.1v5.5h9v2.2h-9V82H189z"/>
		<path class="st1" d="M205.1,84.3l-3.9-5.5c-0.5,0-0.9,0.1-1.1,0.1h-4.4v5.5h-2.6V66.3h7c2.3,0,4.2,0.6,5.5,1.7
			c1.3,1.1,2,2.6,2,4.6c0,1.4-0.3,2.6-1,3.5c-0.7,1-1.7,1.7-2.9,2.1l4.3,6H205.1z M203.8,75.6c0.9-0.7,1.3-1.7,1.3-3s-0.4-2.3-1.3-3
			c-0.9-0.7-2.1-1-3.7-1h-4.4v8.1h4.4C201.7,76.6,202.9,76.3,203.8,75.6z"/>
		<path class="st1" d="M213.1,83.9c-1.3-0.4-2.2-1-3-1.6l0.9-2c0.7,0.6,1.6,1.1,2.6,1.5c1.1,0.4,2.2,0.6,3.3,0.6
			c1.5,0,2.6-0.3,3.3-0.8c0.7-0.5,1.1-1.2,1.1-2c0-0.6-0.2-1.1-0.6-1.5c-0.4-0.4-0.9-0.7-1.5-0.9c-0.6-0.2-1.4-0.4-2.5-0.7
			c-1.3-0.3-2.4-0.6-3.3-1c-0.8-0.3-1.5-0.8-2.1-1.5c-0.6-0.7-0.9-1.6-0.9-2.7c0-1,0.3-1.8,0.8-2.6c0.5-0.8,1.3-1.4,2.3-1.8
			c1-0.5,2.3-0.7,3.8-0.7c1.1,0,2.1,0.1,3.1,0.4c1,0.3,1.9,0.7,2.6,1.2l-0.8,2.1c-0.8-0.5-1.6-0.8-2.4-1.1c-0.9-0.2-1.7-0.4-2.5-0.4
			c-1.5,0-2.5,0.3-3.3,0.8c-0.7,0.5-1.1,1.2-1.1,2.1c0,0.6,0.2,1.1,0.6,1.5s0.9,0.7,1.5,0.9c0.6,0.2,1.4,0.4,2.5,0.7
			c1.3,0.3,2.4,0.6,3.3,1c0.8,0.3,1.5,0.8,2.1,1.5c0.6,0.7,0.9,1.6,0.9,2.7c0,0.9-0.3,1.8-0.8,2.6c-0.5,0.8-1.3,1.4-2.3,1.8
			c-1,0.5-2.3,0.7-3.8,0.7C215.6,84.5,214.3,84.3,213.1,83.9z"/>
		<path class="st1" d="M227.7,66.3h2.6v17.9h-2.6V66.3z"/>
		<path class="st1" d="M239.2,68.6H233v-2.2h14.8v2.2h-6.2v15.7h-2.5V68.6z"/>
		<path class="st1" d="M257.3,78.1v6.2h-2.5V78l-7.1-11.7h2.7l5.7,9.5l5.8-9.5h2.5L257.3,78.1z"/>
	</g>
</g>
<g>
	<path class="st1" d="M33.2,12.8V1.1H36v8l5.6-8h3.3l-8.2,11.7H33.2z"/>
	<path class="st1" d="M51.2,1.1l4.2,0l-1.8,2.6h-4c-1.2,0-2.2,0-2.2,0.7c0,1.4,4.2,2.7,2.6,5.8c-1.1,2.1-2.5,2.6-6.9,2.6
		c-1.8,0-4.8,0-4.8,0l1.8-2.6c0,0,3.2,0,4.6,0c1.3,0,2.7,0,2.7-1.1c0-1.8-3.4-2.9-3-4.7C45.1,1.1,48.6,1.1,51.2,1.1z"/>
	<path class="st1" d="M68,1.1l-1.8,2.6h-3.7l-6.4,9.1h-3.5L59,3.7h-3.7l1.8-2.6H68z"/>
	<path class="st1" d="M81.5,1.1l-4.8,6.9c-2.5,3.5-6.3,4.8-9.2,4.8c-2.9,0-5.1-1.2-2.6-4.8l4.8-6.9h3.5l-4.7,6.8
		c-1.1,1.6-0.5,2.1,1,2.1c1.5,0,2.8-0.6,3.9-2.1L78,1.1H81.5z"/>
</g>
</svg>
